<svg xmlns="http://www.w3.org/2000/svg" id="Livello_2" data-name="Livello 2" viewBox="0 0 282.96 195.56"><defs><pattern id="pattern_journal" width="20.78" height="13.52" x="0" y="0" data-name="pattern journal" patternTransform="translate(-3121.37 -567.96)" patternUnits="userSpaceOnUse" viewBox="0 0 20.78 13.52"><path d="M0 0h20.78v13.52H0z" style="fill:none"/><path d="M.14 6.76 10.39.09l10.25 6.67-10.25 6.67zM10.39.09v13.34" style="stroke:#cbcacc;stroke-width:.15px;fill:none;stroke-miterlimit:10"/></pattern><style>.cls-3{fill:none;stroke:#fff;stroke-linecap:round;stroke-linejoin:round;stroke-width:.5px}</style></defs><g id="Livello_5" data-name="Livello 5"><rect width="282.96" height="195.23" y=".33" rx="7.66" ry="7.66" style="fill:url(#pattern_journal)"/><rect width="52.23" height="195.23" rx="7.66" ry="7.66" style="fill:#e52424"/></g><circle id="luoghi" cx="266.35" cy="179.32" r="10.99" style="stroke-miterlimit:10;fill:#fff;stroke:#e52424"/><g id="KIPARLA"><text style="fill:#fff;font-family:&quot;Caveat&quot;,cursive;font-size:9px" transform="matrix(1.5 0 0 .81 7.09 41.79)"><tspan x="0" y="0">k parla</tspan></text><path d="M7.84 44.47h36.55v6.3H7.84z" style="fill:#fff"/><path d="M23.18 17.48c-.05-.19-.14-.46-.36-.71-.14-.17-.33-.39-.65-.44-.28-.05-.8.07-.89.11-.4.2-.54.57-.57.65-.15.4-.02.75.03.88.03.09.17.44.52.67.54.35.94-.02 1.5.32.37.23.53.6.58.72.18.43.13.81.1.96m.05 1.15v.34m10.91 3.85c.61-.14 1.8-.52 2.92-1.54 1.48-1.34 1.9-2.97 2.02-3.56m-4.97 5.89A7.3 7.3 0 0 1 39.55 32m-2.38-5.74h.38" class="cls-3"/><path d="M17.58 35.43c.71-1.64 1.34-3.65.66-6.79-.62-2.86-2.81-4.39-3.74-8.79-.28-1.33-.48-2.26-.36-3.56.44-4.62 4.42-7.15 4.76-7.38.69-.46 3.38-1.96 7.28-1.43 2.66.36 4.53 2.01 5.01 2.53.42.46.97 1.07 1.37 2.03.47 1.12.51 2.2.55 3.07.02.38 0 .22 0 1.93 0 1.16.02 1.57.19 2.12.18.59.45 1.02.58 1.23.15.23.42.64.91 1.02.6.48 1.05.54 1.18.99.02.06.07.25 0 .46-.16.48-.77.46-1.21 1.08-.09.13-.14.23-.2.38-.4.88-.31 1.79-.36 3.74 0 .2-.02.62-.17 1.14-.11.37-.22.75-.55.99-.2.15-.42.19-.92.22-1.33.08-2.06-.08-3.42 0-.06 0-.04 0-.16.01-.98.06-1.54.1-2.15.09-.48-.01-.84-.02-1.33-.12-.51-.1-.79-.16-1.09-.38-.04-.03-.74-.54-.82-1.3v-1.36c0-.49-.03-1.96-.09-3.95m-6.67 13.55c.17-.33.05-.09.17-.33m-2.3 4.89c0-.24.85-1.97 1.58-3.42" class="cls-3"/></g></svg>