<?xml version="1.0" encoding="UTF-8"?>
<svg id="Livello_2" data-name="Livello 2" xmlns="http://www.w3.org/2000/svg" viewBox="0 0 276.15 188.11">
  <defs>
    <style>
      .cls-1 {
        stroke: #e52421;
      }

      .cls-1, .cls-2, .cls-3 {
        fill: none;
      }

      .cls-1, .cls-4, .cls-3 {
        stroke-miterlimit: 10;
      }

      .cls-5 {
        fill: #1d1d1b;
      }

      .cls-6, .cls-7, .cls-4 {
        fill: #fff;
      }

      .cls-7 {
        font-family: StylusBT, 'Stylus BT';
        font-size: 9px;
      }

      .cls-2 {
        stroke: #fff;
        stroke-linecap: round;
        stroke-linejoin: round;
        stroke-width: .5px;
      }

      .cls-4, .cls-3 {
        stroke: #e52424;
      }

      .cls-8 {
        fill: #e52424;
      }
    </style>
  </defs>
  <g id="bordi">
    <rect class="cls-1" x=".5" y=".5" width="275.15" height="187.11" rx="3.94" ry="3.94"/>
    <rect class="cls-3" x="257.88" y="168.97" width="17.77" height="18.64" rx="3.32" ry="3.32"/>
    <rect class="cls-3" x="99.22" y="77.38" width="104.07" height="18.64" rx="3.32" ry="3.32"/>
    <rect class="cls-3" x="127.04" y="110.89" width="104.07" height="18.64" rx="3.32" ry="3.32"/>
    <rect class="cls-3" x="160.23" y="144.4" width="104.07" height="18.64" rx="3.32" ry="3.32"/>
    <rect class="cls-4" x="87.43" y="71.86" width="17.77" height="18.64" rx="3.32" ry="3.32"/>
    <rect class="cls-4" x="114.94" y="105.37" width="17.77" height="18.64" rx="3.32" ry="3.32"/>
    <rect class="cls-4" x="148.45" y="138.88" width="17.77" height="18.64" rx="3.32" ry="3.32"/>
    <rect class="cls-8" x=".5" y=".07" width="86.86" height="56.69" rx="3.32" ry="3.32"/>
    <text class="cls-7" transform="translate(25.12 41.14) scale(1.5 .81)"><tspan x="0" y="0">k parla</tspan></text>
    <rect class="cls-6" x="25.87" y="43.82" width="36.55" height="6.3"/>
    <path class="cls-2" d="M41.21,16.83c-.05-.19-.14-.46-.36-.71-.14-.17-.33-.39-.65-.44-.28-.05-.8.07-.89.11-.4.2-.54.57-.57.65-.15.4-.02.75.03.88.03.09.17.44.52.67.54.35.94-.02,1.5.32.37.23.53.6.58.72.18.43.13.81.1.96"/>
    <path class="cls-2" d="M41.52,21.14c0,.11,0,.23,0,.34"/>
    <path class="cls-2" d="M52.43,25.33c.61-.14,1.8-.52,2.92-1.54,1.48-1.34,1.9-2.97,2.02-3.56"/>
    <path class="cls-2" d="M52.41,26.12c.63.17,2.02.63,3.28,1.9,1.28,1.28,1.73,2.7,1.9,3.33"/>
    <path class="cls-2" d="M55.2,25.61h.38"/>
    <path class="cls-2" d="M35.61,34.78c.71-1.64,1.34-3.65.66-6.79-.62-2.86-2.81-4.39-3.74-8.79-.28-1.33-.48-2.26-.36-3.56.44-4.62,4.42-7.15,4.76-7.38.69-.46,3.38-1.96,7.28-1.43,2.66.36,4.53,2.01,5.01,2.53.42.46.97,1.07,1.37,2.03.47,1.12.51,2.2.55,3.07.02.38,0,.22,0,1.93,0,1.16.02,1.57.19,2.12.18.59.45,1.02.58,1.23.15.23.42.64.91,1.02.6.48,1.05.54,1.18.99.02.06.07.25,0,.46-.16.48-.77.46-1.21,1.08-.09.13-.14.23-.2.38-.4.88-.31,1.79-.36,3.74,0,.2-.02.62-.17,1.14-.11.37-.22.75-.55.99-.2.15-.42.19-.92.22-1.33.08-2.06-.08-3.42,0-.06,0-.04,0-.16.01-.98.06-1.54.1-2.15.09-.48-.01-.84-.02-1.33-.12-.51-.1-.79-.16-1.09-.38-.04-.03-.74-.54-.82-1.3,0-.03,0-.02,0-.51,0,0,0-.24,0-.85,0-.49-.03-1.96-.09-3.95"/>
    <path class="cls-2" d="M34.86,36.3c.17-.33.05-.09.17-.33"/>
    <path class="cls-2" d="M32.73,40.86c0-.24.85-1.97,1.58-3.42"/>
    <path class="cls-5" d="M95.7,77.74h1.25l2.87,8.53h-1.17l-1.47-4.76c-.3-.95-.58-1.88-.84-2.87h-.05c-.27.99-.55,1.92-.85,2.87l-1.49,4.76h-1.12l2.87-8.53ZM94.34,82.79h3.91v.88h-3.91v-.88Z"/>
    <path class="cls-5" d="M121.22,110.63h2.42c1.74,0,2.92.58,2.92,2.08,0,.84-.48,1.6-1.49,1.86v.05c1.25.19,1.98.87,1.98,2.04,0,1.68-1.3,2.5-3.21,2.5h-2.61v-8.53ZM123.45,114.22c1.46,0,2.04-.47,2.04-1.42s-.68-1.26-1.99-1.26h-1.21v2.68h1.16ZM123.67,118.25c1.46,0,2.3-.48,2.3-1.64,0-1.05-.81-1.48-2.3-1.48h-1.38v3.12h1.38Z"/>
    <path class="cls-5" d="M154.28,148.21c0-2.74,1.6-4.42,3.82-4.42,1.03,0,1.83.49,2.34,1.04l-.62.69c-.44-.47-1-.77-1.72-.77-1.62,0-2.69,1.31-2.69,3.43s1.07,3.48,2.69,3.48c.78,0,1.38-.34,1.91-.94l.62.66c-.66.78-1.51,1.23-2.64,1.23-2.11,0-3.72-1.64-3.72-4.42Z"/>
  </g>
</svg>