<?xml version="1.0" encoding="UTF-8"?>
<svg id="Livello_2" data-name="Livello 2" xmlns="http://www.w3.org/2000/svg" xmlns:xlink="http://www.w3.org/1999/xlink" viewBox="0 0 282.96 195.56">
  <defs>
    <style>
      @import url('https://fonts.googleapis.com/css2?family=Caveat&amp;display=swap');

      .cls-1, .cls-2, .cls-3 {
        fill: none;
      }

      .cls-1 {
        stroke: rgba(255,255,255,0.4);
        stroke-miterlimit: 10;
        stroke-width: .15px;
      }

      .cls-5 {
        fill: url(#pattern_journal);
      }

      .cls-6, .cls-7 {
        fill: #e52424;
      }

      .cls-4 {
        fill: #e52424;
        stroke: #fff;
        stroke-miterlimit: 10;
      }

      .cls-7 {
        font-family: 'Caveat', cursive;
        font-size: 9px;
      }

      .cls-3 {
        stroke: #e52424;
        stroke-linecap: round;
        stroke-linejoin: round;
        stroke-width: .5px;
      }

      .cls-8 {
        fill: #fff;
      }

      .cls-9 {
        fill: #e52424;
      }
    </style>
    <pattern id="pattern_journal" data-name="pattern journal" x="0" y="0" width="20.78" height="13.52" patternTransform="translate(-3121.37 -567.96)" patternUnits="userSpaceOnUse" viewBox="0 0 20.78 13.52">
      <g>
        <rect class="cls-2" width="20.78" height="13.52"/>
        <polygon class="cls-1" points=".14 6.76 10.39 .09 20.64 6.76 10.39 13.43 .14 6.76"/>
        <line class="cls-1" x1="10.39" y1=".09" x2="10.39" y2="13.43"/>
      </g>
    </pattern>
  </defs>
  <g id="Livello_5" data-name="Livello 5">
    <rect class="cls-9" y=".33" width="282.96" height="195.23" rx="7.66" ry="7.66"/>
    <rect class="cls-5" y=".33" width="282.96" height="195.23" rx="7.66" ry="7.66"/>
    <rect class="cls-8" width="52.23" height="195.23" rx="7.66" ry="7.66"/>
  </g>
  <g id="luoghi">
    <circle class="cls-4" cx="266.35" cy="179.32" r="10.99"/>
  </g>
  <g id="KIPARLA">
    <text class="cls-7" transform="translate(7.09 41.79) scale(1.5 .81)"><tspan x="0" y="0">k parla</tspan></text>
    <rect class="cls-6" x="7.84" y="44.47" width="36.55" height="6.3"/>
    <path class="cls-3" d="M23.18,17.48c-.05-.19-.14-.46-.36-.71-.14-.17-.33-.39-.65-.44-.28-.05-.8.07-.89.11-.4.2-.54.57-.57.65-.15.4-.02.75.03.88.03.09.17.44.52.67.54.35.94-.02,1.5.32.37.23.53.6.58.72.18.43.13.81.1.96"/>
    <path class="cls-3" d="M23.49,21.79c0,.11,0,.23,0,.34"/>
    <path class="cls-3" d="M34.4,25.98c.61-.14,1.8-.52,2.92-1.54,1.48-1.34,1.9-2.97,2.02-3.56"/>
    <path class="cls-3" d="M34.37,26.77c.63.17,2.02.63,3.28,1.9,1.28,1.28,1.73,2.7,1.9,3.33"/>
    <path class="cls-3" d="M37.17,26.26h.38"/>
    <path class="cls-3" d="M17.58,35.43c.71-1.64,1.34-3.65.66-6.79-.62-2.86-2.81-4.39-3.74-8.79-.28-1.33-.48-2.26-.36-3.56.44-4.62,4.42-7.15,4.76-7.38.69-.46,3.38-1.96,7.28-1.43,2.66.36,4.53,2.01,5.01,2.53.42.46.97,1.07,1.37,2.03.47,1.12.51,2.2.55,3.07.02.38,0,.22,0,1.93,0,1.16.02,1.57.19,2.12.18.59.45,1.02.58,1.23.15.23.42.64.91,1.02.6.48,1.05.54,1.18.99.02.06.07.25,0,.46-.16.48-.77.46-1.21,1.08-.09.13-.14.23-.2.38-.4.88-.31,1.79-.36,3.74,0,.2-.02.62-.17,1.14-.11.37-.22.75-.55.99-.2.15-.42.19-.92.22-1.33.08-2.06-.08-3.42,0-.06,0-.04,0-.16.01-.98.06-1.54.1-2.15.09-.48-.01-.84-.02-1.33-.12-.51-.1-.79-.16-1.09-.38-.04-.03-.74-.54-.82-1.3,0-.03,0-.02,0-.51,0,0,0-.24,0-.85,0-.49-.03-1.96-.09-3.95"/>
    <path class="cls-3" d="M16.83,36.95c.17-.33.05-.09.17-.33"/>
    <path class="cls-3" d="M14.7,41.51c0-.24.85-1.97,1.58-3.42"/>
  </g>
</svg>
