<svg xmlns="http://www.w3.org/2000/svg" id="Livello_2" data-name="Livello 2" viewBox="0 0 276.15 188.11"><defs><style>@import url(https://fonts.googleapis.com/css2?family=Caveat&amp;display=swap);.cls-1,.cls-2,.cls-3{fill:none}.cls-1{stroke:#fff;stroke-miterlimit:10}.cls-2{stroke:#e52424;stroke-linecap:round;stroke-linejoin:round;stroke-width:.5px}.cls-3,.cls-4{stroke:#fff;stroke-miterlimit:10}.cls-4{stroke:#e52424;fill:#fff}</style></defs><g id="bordi"><rect width="276.15" height="188.11" rx="3.94" ry="3.94" style="fill:#e52424"/><rect width="275.15" height="187.11" x=".5" y=".5" class="cls-1" rx="3.94" ry="3.94"/><rect width="17.77" height="18.64" x="257.88" y="168.97" class="cls-1" rx="3.32" ry="3.32"/><rect width="104.07" height="18.64" x="99.22" y="77.38" class="cls-3" rx="3.32" ry="3.32"/><rect width="104.07" height="18.64" x="127.04" y="110.89" class="cls-3" rx="3.32" ry="3.32"/><rect width="104.07" height="18.64" x="160.23" y="144.4" class="cls-3" rx="3.32" ry="3.32"/><rect width="17.77" height="18.64" x="87.43" y="71.86" class="cls-4" rx="3.32" ry="3.32"/><rect width="17.77" height="18.64" x="114.94" y="105.37" class="cls-4" rx="3.32" ry="3.32"/><rect width="17.77" height="18.64" x="148.45" y="138.88" class="cls-4" rx="3.32" ry="3.32"/><rect width="86.86" height="56.69" x=".5" y=".07" rx="3.32" ry="3.32" style="fill:#fff"/><text style="fill:#e52424;font-family:&quot;Caveat&quot;,cursive;font-size:9px" transform="matrix(1.5 0 0 .81 25.12 41.14)"><tspan x="0" y="0">k parla</tspan></text><path d="M25.87 43.82h36.55v6.3H25.87z" style="fill:#e52424"/><path d="M41.21 16.83c-.05-.19-.14-.46-.36-.71-.14-.17-.33-.39-.65-.44-.28-.05-.8.07-.89.11-.4.2-.54.57-.57.65-.15.4-.02.75.03.88.03.09.17.44.52.67.54.35.94-.02 1.5.32.37.23.53.6.58.72.18.43.13.81.1.96m.05 1.15v.34m10.91 3.85c.61-.14 1.8-.52 2.92-1.54 1.48-1.34 1.9-2.97 2.02-3.56m-4.96 5.89a7.3 7.3 0 0 1 5.18 5.23m-2.39-5.74h.38" class="cls-2"/><path d="M35.61 34.78c.71-1.64 1.34-3.65.66-6.79-.62-2.86-2.81-4.39-3.74-8.79-.28-1.33-.48-2.26-.36-3.56.44-4.62 4.42-7.15 4.76-7.38.69-.46 3.38-1.96 7.28-1.43 2.66.36 4.53 2.01 5.01 2.53.42.46.97 1.07 1.37 2.03.47 1.12.51 2.2.55 3.07.02.38 0 .22 0 1.93 0 1.16.02 1.57.19 2.12.18.59.45 1.02.58 1.23.15.23.42.64.91 1.02.6.48 1.05.54 1.18.99.02.06.07.25 0 .46-.16.48-.77.46-1.21 1.08-.09.13-.14.23-.2.38-.4.88-.31 1.79-.36 3.74 0 .2-.02.62-.17 1.14-.11.37-.22.75-.55.99-.2.15-.42.19-.92.22-1.33.08-2.06-.08-3.42 0-.06 0-.04 0-.16.01-.98.06-1.54.1-2.15.09-.48-.01-.84-.02-1.33-.12-.51-.1-.79-.16-1.09-.38-.04-.03-.74-.54-.82-1.3V26.7c0-.49-.03-1.96-.09-3.95M34.86 36.3c.17-.33.05-.09.17-.33m-2.3 4.89c0-.24.85-1.97 1.58-3.42" class="cls-2"/><path d="M95.7 77.74h1.25l2.87 8.53h-1.17l-1.47-4.76c-.3-.95-.58-1.88-.84-2.87h-.05c-.27.99-.55 1.92-.85 2.87l-1.49 4.76h-1.12zm-1.36 5.05h3.91v.88h-3.91zm26.88 27.84h2.42c1.74 0 2.92.58 2.92 2.08 0 .84-.48 1.6-1.49 1.86v.05c1.25.19 1.98.87 1.98 2.04 0 1.68-1.3 2.5-3.21 2.5h-2.61v-8.53Zm2.23 3.59c1.46 0 2.04-.47 2.04-1.42s-.68-1.26-1.99-1.26h-1.21v2.68zm.22 4.03c1.46 0 2.3-.48 2.3-1.64 0-1.05-.81-1.48-2.3-1.48h-1.38v3.12zm30.61 29.96c0-2.74 1.6-4.42 3.82-4.42 1.03 0 1.83.49 2.34 1.04l-.62.69c-.44-.47-1-.77-1.72-.77-1.62 0-2.69 1.31-2.69 3.43s1.07 3.48 2.69 3.48c.78 0 1.38-.34 1.91-.94l.62.66c-.66.78-1.51 1.23-2.64 1.23-2.11 0-3.72-1.64-3.72-4.42Z" style="fill:#fff"/></g></svg>