<svg xmlns="http://www.w3.org/2000/svg" id="Livello_2" data-name="Livello 2" viewBox="0 0 29.11 97.08"><defs><style>.cls-1{stroke-width:.75px}.cls-1,.cls-2{fill:none;stroke:#1d1d1b;stroke-miterlimit:10}.cls-3{fill:#1d1d1b}</style></defs><g id="luoghi"><path d="M9.52 1.47c.11-.6-.84-.9-1.3-.5s-.52 1.07-.54 1.68c-.09 2.4-.18 4.87.58 7.15.18.52.45 1.09.97 1.28.76.27 1.52-.4 1.94-1.08 1.02-1.64 1.31-3.62 1.41-5.55.05-.99.06-2.02-.35-2.92-.4-.91-1.34-1.64-2.32-1.52-1.24.16-1.95 1.55-2.04 2.8s.2 2.52-.06 3.75" class="cls-3"/><path d="M7.87 86.05c-.12 1.05-.25 2.16-.74 3.01s-1.46 1.35-2.15.79c-.36-.29-.59-.8-.77-1.29-1.66-4.4-1.73-9.54-1.28-14.41s1.37-9.66 1.58-14.56-.39-10.07-2.67-13.98c-.33-.57-.78-1.15-1.33-1.12.37 1.14 1.13 2.51 2.01 2.05.64-.34.78-1.43.77-2.33-.02-2.65-.44-5.27-.72-7.9-.44-4.01-.58-8.07-.43-12.11.11-3.02.42-6.14 1.64-8.71.54-1.13 1.27-2.15 2.21-2.66s2.11-.45 2.9.4m1.96 72.83c.1 1.06.22 2.16.69 3.03s1.43 1.39 2.14.85c.37-.28.6-.78.79-1.27 1.73-4.36 1.87-9.49 1.5-14.37s-1.22-9.7-1.35-14.6.55-10.06 2.89-13.9c.34-.56.8-1.13 1.34-1.09-.39 1.13-1.17 2.48-2.04 2-.64-.35-.75-1.45-.73-2.35.07-2.65.52-5.26.85-7.88.5-4 .71-8.05.62-12.1-.06-3.02-.32-6.15-1.5-8.75-.52-1.14-1.24-2.18-2.17-2.72s-2.1-.5-2.9.32" class="cls-1"/><path d="M9.39 92.86c.97 1.91-5.15 3.56-6.36 3.72 1.05-.14 5.15-6.11 6.36-3.72" class="cls-3"/><path d="M3.03 96.58c1.21-.17 7.33-1.81 6.36-3.72-1.22-2.39-5.31 3.58-6.36 3.72Z" class="cls-2"/><path d="M9.78 93.11c-.81 1.98 5.42 3.12 6.65 3.19-1.06-.06-5.63-5.67-6.65-3.19" class="cls-3"/><path d="M16.42 96.3c-1.22-.07-7.45-1.21-6.65-3.19 1.02-2.48 5.59 3.13 6.65 3.19Z" class="cls-2"/><path d="M21.44 43.68c.37-1.53 2.6-1.43 3.42-.12s.64 3.04.47 4.62c-1.73 15.36-.55 31.11 3.42 45.95" class="cls-1"/></g></svg>