<svg xmlns="http://www.w3.org/2000/svg" data-name="Livello 2" viewBox="0 0 35.13 24.24"><path d="M.25 23.99h1.1M20.2 20.6c2.75.73 8.37.51 11.06-2.15 1.32-1.31 3.21-2.9 3.57-5.59.32-2.36-.75-6.73-1.15-7.48C31.91 2.09 28.75.96 28.06.74c-3.41-1.12-6.31 0-7.38.43-.75.3-3.66 1.52-5.48 4.5-2.83 4.63.39 7.93-2.32 12.66-1.81 3.16-4.81 4.78-5.88 5.02-3.34.74-2.68.55-4.04.64" style="fill:none;stroke-linecap:round;stroke-linejoin:round;stroke:#000;stroke-width:.5px"/><path d="M22.24 7.5c.01-.42.09-1.03.44-1.67.23-.42.53-.98 1.18-1.23.57-.22 1.73-.22 1.94-.16.93.24 1.4.97 1.5 1.12.49.79.38 1.58.34 1.87-.03.21-.16 1.01-.79 1.64-.99.99-2 .38-3.02 1.35-.68.64-.84 1.5-.9 1.77-.19.98.08 1.76.21 2.08m.36 2.46c.04.24.09.48.13.73" style="stroke:#e5232b;fill:none;stroke-linecap:round;stroke-linejoin:round"/></svg>