<?xml version="1.0" encoding="UTF-8"?>
<svg id="Livello_2" data-name="Livello 2" xmlns="http://www.w3.org/2000/svg" viewBox="0 0 27.51 21.43">
  <defs>
    <style>
      .cls-1 {
        fill: #e52421;
      }

      .cls-2 {
        fill: #fff;
      }

      .cls-3 {
        fill: #e52424;
        stroke: #fff;
        stroke-linecap: round;
        stroke-linejoin: round;
        stroke-width: .25px;
      }
    </style>
  </defs>
  <g id="KIPARLA">
    <g>
      <g>
        <rect class="cls-2" y="1.28" width="13.81" height="17.34" rx="1.64" ry="1.64"/>
        <circle class="cls-2" cx="13.81" cy="17.58" r="1.69"/>
        <g>
          <path class="cls-1" d="M13.7,17.84c0-.71-2.75-1.28-6.14-1.28s-6.14.57-6.14,1.28V1.39C1.42.69,4.17.12,7.56.12s6.14.57,6.14,1.28v16.45Z"/>
          <path class="cls-2" d="M13.81,17.84h-.22c0-.55-2.48-1.16-6.03-1.16s-6.03.61-6.03,1.16h-.22V1.39C1.31.49,4.53,0,7.56,0s6.25.49,6.25,1.39v16.45ZM7.56,16.45c2.56,0,5.25.35,6.03,1V1.39c0-.55-2.48-1.16-6.03-1.16S1.53.84,1.53,1.39v16.06c.78-.65,3.47-1,6.03-1Z"/>
        </g>
        <g>
          <path class="cls-1" d="M1.42,17.84c0-.68,2.75-1.23,6.14-1.23s6.14.55,6.14,1.23"/>
          <path class="cls-2" d="M13.81,17.84h-.22c0-.53-2.48-1.12-6.03-1.12s-6.03.59-6.03,1.12h-.22c0-.87,3.22-1.34,6.25-1.34s6.25.47,6.25,1.34Z"/>
        </g>
        <rect class="cls-2" x="13.7" y="1.28" width="13.81" height="17.34" rx="1.73" ry="1.73" transform="translate(41.2 19.9) rotate(-180)"/>
        <g>
          <path class="cls-1" d="M13.81,17.84c0-.71,2.75-1.28,6.14-1.28s6.14.57,6.14,1.28V1.39c0-.71-2.75-1.28-6.14-1.28s-6.14.57-6.14,1.28v16.45Z"/>
          <path class="cls-2" d="M26.2,17.84h-.22c0-.55-2.48-1.16-6.03-1.16s-6.03.61-6.03,1.16h-.22V1.39c0-.9,3.22-1.39,6.25-1.39s6.25.49,6.25,1.39v16.45ZM19.95,16.45c2.56,0,5.25.35,6.03,1V1.39c0-.55-2.48-1.16-6.03-1.16s-6.03.61-6.03,1.16v16.06c.78-.65,3.47-1,6.03-1Z"/>
        </g>
        <g>
          <path class="cls-1" d="M26.09,17.84c0-.68-2.75-1.23-6.14-1.23s-6.14.55-6.14,1.23"/>
          <path class="cls-2" d="M26.2,17.84h-.22c0-.53-2.48-1.12-6.03-1.12s-6.03.59-6.03,1.12h-.22c0-.87,3.22-1.34,6.25-1.34s6.25.47,6.25,1.34Z"/>
        </g>
        <polygon class="cls-2" points="19.95 18.28 19.95 21.32 21.11 19.99 22.36 21.43 22.36 18.28 19.95 18.28"/>
      </g>
      <path class="cls-3" d="M3.25,2.06s2.36-.53,4.54-.49,4.63.49,4.63.49"/>
      <path class="cls-3" d="M3.25,2.94s2.36-.53,4.54-.49,4.63.49,4.63.49"/>
      <path class="cls-3" d="M3.25,3.81s2.36-.53,4.54-.49,4.63.49,4.63.49"/>
      <path class="cls-3" d="M3.25,4.68s2.36-.53,4.54-.49,4.63.49,4.63.49"/>
      <path class="cls-3" d="M3.25,5.55s2.36-.53,4.54-.49,4.63.49,4.63.49"/>
      <path class="cls-3" d="M3.25,6.42s2.36-.53,4.54-.49,4.63.49,4.63.49"/>
      <path class="cls-3" d="M3.25,7.29s2.36-.53,4.54-.49,4.63.49,4.63.49"/>
      <path class="cls-3" d="M3.25,8.16s2.36-.53,4.54-.49,4.63.49,4.63.49"/>
      <path class="cls-3" d="M3.25,9.04s2.36-.53,4.54-.49,4.63.49,4.63.49"/>
      <path class="cls-3" d="M3.25,9.91s2.36-.53,4.54-.49,4.63.49,4.63.49"/>
      <path class="cls-3" d="M3.25,10.78s2.36-.53,4.54-.49,4.63.49,4.63.49"/>
      <path class="cls-3" d="M3.25,11.65s2.36-.53,4.54-.49,4.63.49,4.63.49"/>
      <path class="cls-3" d="M3.25,12.52s2.36-.53,4.54-.49,4.63.49,4.63.49"/>
      <path class="cls-3" d="M3.25,13.39s2.36-.53,4.54-.49,4.63.49,4.63.49"/>
      <path class="cls-3" d="M3.25,14.26s2.36-.53,4.54-.49,4.63.49,4.63.49"/>
      <path class="cls-3" d="M3.25,15.14s2.36-.53,4.54-.49,4.63.49,4.63.49"/>
      <path class="cls-3" d="M24.4,2.06s-2.36-.53-4.54-.49-4.63.49-4.63.49"/>
      <path class="cls-3" d="M24.4,2.94s-2.36-.53-4.54-.49-4.63.49-4.63.49"/>
      <path class="cls-3" d="M24.4,3.81s-2.36-.53-4.54-.49-4.63.49-4.63.49"/>
      <path class="cls-3" d="M24.4,4.68s-2.36-.53-4.54-.49-4.63.49-4.63.49"/>
      <path class="cls-3" d="M24.4,5.55s-2.36-.53-4.54-.49-4.63.49-4.63.49"/>
      <path class="cls-3" d="M24.4,6.42s-2.36-.53-4.54-.49-4.63.49-4.63.49"/>
      <path class="cls-3" d="M24.4,7.29s-2.36-.53-4.54-.49-4.63.49-4.63.49"/>
      <path class="cls-3" d="M24.4,8.16s-2.36-.53-4.54-.49-4.63.49-4.63.49"/>
      <path class="cls-3" d="M24.4,9.04s-2.36-.53-4.54-.49-4.63.49-4.63.49"/>
      <path class="cls-3" d="M24.4,9.91s-2.36-.53-4.54-.49-4.63.49-4.63.49"/>
      <path class="cls-3" d="M24.4,10.78s-2.36-.53-4.54-.49-4.63.49-4.63.49"/>
      <path class="cls-3" d="M24.4,11.65s-2.36-.53-4.54-.49-4.63.49-4.63.49"/>
      <path class="cls-3" d="M24.4,12.52s-2.36-.53-4.54-.49-4.63.49-4.63.49"/>
      <path class="cls-3" d="M24.4,13.39s-2.36-.53-4.54-.49-4.63.49-4.63.49"/>
      <path class="cls-3" d="M24.4,14.26s-2.36-.53-4.54-.49-4.63.49-4.63.49"/>
      <path class="cls-3" d="M24.4,15.14s-2.36-.53-4.54-.49-4.63.49-4.63.49"/>
    </g>
  </g>
</svg>