<svg xmlns="http://www.w3.org/2000/svg" id="Livello_2" data-name="Livello 2" viewBox="0 0 276.15 188.11"><defs><style>@import url(https://fonts.googleapis.com/css2?family=Caveat&display=swap);.cls-2,.cls-4{fill:#fff}.cls-4,.cls-5{stroke-miterlimit:10}.cls-7{fill:#1d1d1b}.cls-8{stroke:#fff;stroke-linecap:round;stroke-linejoin:round;stroke-width:.5px}.cls-5,.cls-8{fill:none}.cls-4,.cls-5{stroke:#e52424}.cls-9{fill:#e52424}</style></defs><g id="bordi"><rect width="275.15" height="187.11" x=".5" y=".5" rx="3.94" ry="3.94" style="stroke:#e52424;fill:#fff;stroke-miterlimit:10"/><rect width="17.77" height="18.64" x="257.88" y="168.97" class="cls-5" rx="3.32" ry="3.32"/><rect width="234.65" height="18.64" x="26.72" y="79.49" class="cls-5" rx="3.32" ry="3.32"/><rect width="234.65" height="18.64" x="26.72" y="110.89" class="cls-5" rx="3.32" ry="3.32"/><rect width="234.65" height="18.64" x="26.72" y="144.4" class="cls-5" rx="3.32" ry="3.32"/><rect width="86.86" height="56.69" x=".5" y=".07" class="cls-9" rx="3.32" ry="3.32"/><text style="fill:#fff;font-family:Caveat,cursive;font-size:9px" transform="matrix(1.5 0 0 .81 25.12 41.14)"><tspan x="0" y="0">k parla</tspan></text><path d="M25.87 43.82h36.55v6.3H25.87z" class="cls-2"/><path d="M41.21 16.83c-.05-.19-.14-.46-.36-.71-.14-.17-.33-.39-.65-.44-.28-.05-.8.07-.89.11-.4.2-.54.57-.57.65-.15.4-.02.75.03.88.03.09.17.44.52.67.54.35.94-.02 1.5.32.37.23.53.6.58.72.18.43.13.81.1.96m.05 1.15v.34m10.91 3.85c.61-.14 1.8-.52 2.92-1.54 1.48-1.34 1.9-2.97 2.02-3.56m-4.96 5.89a7.3 7.3 0 0 1 5.18 5.23m-2.39-5.74h.38" class="cls-8"/><path d="M35.61 34.78c.71-1.64 1.34-3.65.66-6.79-.62-2.86-2.81-4.39-3.74-8.79-.28-1.33-.48-2.26-.36-3.56.44-4.62 4.42-7.15 4.76-7.38.69-.46 3.38-1.96 7.28-1.43 2.66.36 4.53 2.01 5.01 2.53.42.46.97 1.07 1.37 2.03.47 1.12.51 2.2.55 3.07.02.38 0 .22 0 1.93 0 1.16.02 1.57.19 2.12.18.59.45 1.02.58 1.23.15.23.42.64.91 1.02.6.48 1.05.54 1.18.99.02.06.07.25 0 .46-.16.48-.77.46-1.21 1.08-.09.13-.14.23-.2.38-.4.88-.31 1.79-.36 3.74 0 .2-.02.62-.17 1.14-.11.37-.22.75-.55.99-.2.15-.42.19-.92.22-1.33.08-2.06-.08-3.42 0-.06 0-.04 0-.16.01-.98.06-1.54.1-2.15.09-.48-.01-.84-.02-1.33-.12-.51-.1-.79-.16-1.09-.38-.04-.03-.74-.54-.82-1.3V26.7c0-.49-.03-1.96-.09-3.95M34.86 36.3c.17-.33.05-.09.17-.33m-2.3 4.89c0-.24.85-1.97 1.58-3.42" class="cls-8"/><text style="fill:#e52424;font-family:Lato,sans-serif;font-size:5.47px" transform="matrix(1.18 0 0 1 29.69 49.01)"><tspan x="0" y="0">SBCA001</tspan></text><rect width="17.77" height="18.64" x="14.94" y="73.97" class="cls-4" rx="3.32" ry="3.32"/><rect width="17.77" height="18.64" x="14.94" y="105.37" class="cls-4" rx="3.32" ry="3.32"/><rect width="17.77" height="18.64" x="14.94" y="138.88" class="cls-4" rx="3.32" ry="3.32"/><path d="M23.2 79.84h1.25l2.87 8.53h-1.17l-1.47-4.76c-.3-.95-.58-1.88-.84-2.87h-.05c-.27.99-.55 1.92-.85 2.87l-1.5 4.76h-1.12l2.87-8.53Zm-1.35 5.06h3.91v.88h-3.91zm-.64 25.73h2.42c1.74 0 2.92.58 2.92 2.08 0 .84-.48 1.6-1.5 1.86v.05c1.25.19 1.98.87 1.98 2.04 0 1.68-1.3 2.5-3.21 2.5h-2.61zm2.24 3.59c1.46 0 2.04-.47 2.04-1.42s-.68-1.26-1.99-1.26h-1.21v2.68zm.22 4.03c1.46 0 2.3-.48 2.3-1.64 0-1.05-.81-1.48-2.3-1.48h-1.38v3.12zm-2.9 29.96c0-2.74 1.6-4.42 3.82-4.42 1.03 0 1.83.49 2.34 1.04l-.62.69c-.44-.47-1-.77-1.72-.77-1.62 0-2.69 1.31-2.69 3.43s1.07 3.48 2.69 3.48c.78 0 1.38-.34 1.91-.94l.62.66c-.66.78-1.51 1.23-2.64 1.23-2.11 0-3.72-1.64-3.72-4.42Z" class="cls-7"/></g><path id="RISPOSTE" d="M39.06 90.4v-2.72h.75v2.62c0 .82.29 1.22 1.01 1.22.5 0 .87-.23 1.36-.8v-3.03h.75v4.38h-.62l-.06-.77h-.04c-.44.51-.95.87-1.63.87-1.04 0-1.51-.61-1.51-1.76Zm5.54-2.72h.61l.06.74h.04c.46-.48.96-.85 1.65-.85 1.04 0 1.51.61 1.51 1.76v2.72h-.75v-2.62c0-.83-.29-1.21-1-1.21-.52 0-.87.26-1.38.78v3.05h-.75v-4.38Zm5.28 3.24c0-.98.92-1.46 3.18-1.64-.03-.59-.32-1.1-1.16-1.1-.57 0-1.12.27-1.53.52l-.3-.5c.45-.29 1.19-.63 1.95-.63 1.2 0 1.78.71 1.78 1.8v2.68h-.62l-.06-.59h-.03c-.48.38-1.11.7-1.72.7-.82 0-1.49-.46-1.49-1.24m3.18-.01v-1.13c-1.87.14-2.44.51-2.44 1.09 0 .5.45.69.95.69s.98-.23 1.49-.65m8.21-3.23h.62l.07 1.04h.02c.46-.71 1.14-1.14 1.95-1.14.32 0 .59.04.87.18l-.17.64c-.31-.1-.47-.14-.81-.14-.66 0-1.28.33-1.8 1.25v2.56h-.75v-4.38Zm4.81 3.24c0-.98.92-1.46 3.18-1.64-.03-.59-.31-1.1-1.16-1.1-.57 0-1.13.27-1.53.52l-.3-.5c.45-.29 1.19-.63 1.95-.63 1.2 0 1.78.71 1.78 1.8v2.68h-.62l-.06-.59h-.03c-.48.38-1.11.7-1.72.7-.82 0-1.49-.46-1.49-1.24m3.18-.01v-1.13c-1.87.14-2.44.51-2.44 1.09 0 .5.45.69.95.69s.98-.23 1.49-.65m2.15 1.94c0-.35.25-.7.72-.97v-.04c-.23-.13-.45-.35-.45-.72 0-.28.19-.59.52-.82v-.04c-.3-.22-.54-.61-.54-1.13 0-.95.79-1.57 1.72-1.57.25 0 .46.04.65.11h1.81v.6h-1.13c.2.21.37.53.37.88 0 .94-.75 1.5-1.69 1.5-.22 0-.49-.05-.74-.16-.21.13-.34.3-.34.5 0 .34.33.5.91.5h.98c1.12 0 1.67.29 1.67 1.03 0 .82-.95 1.53-2.43 1.53-1.28 0-2.02-.44-2.02-1.22Zm3.72-.19c0-.41-.33-.53-1-.53h-.86c-.25 0-.48-.02-.67-.07-.41.22-.56.48-.56.73 0 .46.5.75 1.43.75 1.02 0 1.65-.42 1.65-.87Zm-.74-3.52c0-.61-.45-1.03-1.01-1.03s-1.01.41-1.01 1.03.46 1.04 1.01 1.04 1.01-.41 1.01-1.04m2.49 1.78c0-.98.92-1.46 3.18-1.64-.03-.59-.32-1.1-1.16-1.1-.57 0-1.12.27-1.53.52l-.3-.5c.45-.29 1.19-.63 1.95-.63 1.2 0 1.78.71 1.78 1.8v2.68h-.62l-.06-.59h-.03c-.48.38-1.11.7-1.72.7-.82 0-1.5-.46-1.5-1.24Zm3.18-.01v-1.13c-1.87.14-2.44.51-2.44 1.09 0 .5.45.69.95.69s.98-.23 1.49-.65m2.14.75 2.99-3.38h-2.66v-.6h3.73v.4l-2.99 3.37h3.07v.61H82.2zm5.4 0 2.99-3.38h-2.66v-.6h3.73v.4l-2.99 3.37h3.07v.61H87.6zm5.48-.74c0-.98.92-1.46 3.18-1.64-.03-.59-.32-1.1-1.16-1.1-.57 0-1.12.27-1.53.52l-.3-.5c.45-.29 1.19-.63 1.95-.63 1.2 0 1.78.71 1.78 1.8v2.68h-.62l-.06-.59h-.03c-.48.38-1.11.7-1.72.7-.82 0-1.49-.46-1.49-1.24m3.18-.01v-1.13c-1.87.14-2.44.51-2.44 1.09 0 .5.45.69.95.69s.98-.23 1.49-.65m7.62-1.04c0-1.47 1.12-2.3 2.44-2.3.71 0 1.23.29 1.59.64l-.37.48c-.36-.31-.74-.5-1.2-.5-1.01 0-1.7.67-1.7 1.68s.68 1.67 1.68 1.67c.54 0 .99-.24 1.35-.55l.33.49c-.49.43-1.09.68-1.74.68-1.37 0-2.39-.84-2.39-2.29Zm5.52-4.23h.75v1.75l-.04 1.04h.03c.44-.49.96-.86 1.63-.86 1.04 0 1.51.61 1.51 1.76v2.72h-.75v-2.62c0-.83-.29-1.21-1-1.21-.52 0-.87.26-1.38.78v3.05h-.75zm5.17 4.22c0-1.42 1.06-2.29 2.23-2.29 1.26 0 2 .82 2 2.05 0 .17-.02.33-.04.45h-3.7v-.58h3.26l-.19.21c0-1.04-.51-1.55-1.31-1.55s-1.51.61-1.51 1.7.74 1.71 1.71 1.71c.52 0 .94-.16 1.33-.41l.27.49c-.43.29-.99.52-1.69.52-1.31 0-2.36-.85-2.36-2.3m11.03-2.18h.61l.06.56h.03c.4-.39.98-.67 1.51-.67 1.18 0 1.81.87 1.81 2.23 0 1.49-.94 2.36-1.99 2.36-.41 0-.91-.21-1.31-.57h-.02l.04.83v1.48h-.75v-6.22Zm3.26 2.12c0-.96-.36-1.6-1.23-1.6-.39 0-.84.2-1.28.65v2.18c.4.37.86.5 1.16.5.78 0 1.35-.65 1.35-1.73m2.02 1.12c0-.98.92-1.46 3.18-1.64-.03-.59-.31-1.1-1.16-1.1-.57 0-1.13.27-1.53.52l-.3-.5c.45-.29 1.19-.63 1.95-.63 1.2 0 1.78.71 1.78 1.8v2.68h-.62l-.06-.59h-.03c-.48.38-1.11.7-1.72.7-.82 0-1.5-.46-1.5-1.24Zm3.18-.01v-1.13c-1.87.14-2.44.51-2.44 1.09 0 .5.45.69.96.69s.98-.23 1.48-.65m2.81-3.23h.62l.07 1.04h.02c.46-.71 1.14-1.14 1.95-1.14.32 0 .59.04.86.18l-.17.64c-.31-.1-.47-.14-.81-.14-.66 0-1.28.33-1.8 1.25v2.56h-.75v-4.38Zm6.31 2.91v-4.34h-1.55v-.6h2.3v5c0 .63.34.9.86.9.25 0 .52-.06.82-.2l.19.56c-.4.17-.69.26-1.17.26-.94 0-1.45-.54-1.45-1.58m3.9.33c0-.98.92-1.46 3.18-1.64-.03-.59-.32-1.1-1.16-1.1-.57 0-1.12.27-1.53.52l-.3-.5c.45-.29 1.19-.63 1.95-.63 1.2 0 1.78.71 1.78 1.8v2.68h-.62l-.06-.59h-.03c-.48.38-1.11.7-1.72.7-.82 0-1.49-.46-1.49-1.24m3.18-.01v-1.13c-1.87.14-2.44.51-2.44 1.09 0 .5.45.69.96.69s.98-.23 1.49-.65Zm7.59-.51v-2.72h.75v2.62c0 .82.29 1.22 1.01 1.22.5 0 .87-.23 1.36-.8v-3.03h.75v4.38h-.62l-.06-.77H161c-.44.51-.95.87-1.63.87-1.04 0-1.51-.61-1.51-1.76Zm6.02-2.72h.62l.07 1.04h.02c.46-.71 1.14-1.14 1.95-1.14.32 0 .59.04.86.18l-.17.64c-.31-.1-.47-.14-.81-.14-.66 0-1.28.33-1.8 1.25v2.56h-.75v-4.38Zm4.63 2.19c0-1.42.95-2.3 1.98-2.3.52 0 .93.21 1.31.56h.02l-.04-.8v-1.68h.75v6.41h-.61l-.06-.58h-.03c-.36.37-.88.68-1.43.68-1.13 0-1.89-.83-1.89-2.29m3.28 1.01V88.7c-.4-.37-.77-.5-1.14-.5-.76 0-1.37.67-1.37 1.67s.49 1.67 1.29 1.67c.43 0 .84-.22 1.22-.65Zm2.27-.48v-2.72h.75v2.62c0 .82.29 1.22 1.01 1.22.5 0 .87-.23 1.36-.8v-3.03h.75v4.38h-.62l-.06-.77h-.04c-.44.51-.95.87-1.63.87-1.04 0-1.51-.61-1.51-1.76ZM39.06 122.35v-2.72h.75v2.62c0 .82.29 1.22 1.01 1.22.5 0 .87-.23 1.36-.8v-3.03h.75v4.38h-.62l-.06-.77h-.04c-.44.51-.95.87-1.63.87-1.04 0-1.51-.61-1.51-1.76Zm5.54-2.72h.61l.06.74h.04c.46-.48.96-.85 1.65-.85 1.04 0 1.51.61 1.51 1.76V124h-.75v-2.62c0-.83-.29-1.21-1-1.21-.52 0-.87.26-1.38.78V124h-.75v-4.38Zm6.78-.81v-.99h.98v.99l-.24 2.03h-.5l-.23-2.03Zm3.9 4.06c0-.98.92-1.46 3.18-1.64-.03-.59-.32-1.1-1.16-1.1-.57 0-1.12.27-1.53.52l-.3-.5c.45-.29 1.19-.63 1.95-.63 1.2 0 1.78.71 1.78 1.8v2.68h-.62l-.06-.59h-.03c-.48.38-1.11.7-1.72.7-.82 0-1.5-.46-1.5-1.24Zm3.18-.01v-1.13c-1.87.14-2.44.51-2.44 1.09 0 .5.45.69.95.69s.98-.23 1.49-.65m2.04-1.04c0-1.42.95-2.3 1.98-2.3.52 0 .93.21 1.31.56h.02l-.04-.8v-1.68h.75v6.41h-.61l-.06-.58h-.03c-.36.37-.88.68-1.43.68-1.13 0-1.89-.83-1.89-2.29m3.28 1.01v-2.18c-.4-.37-.77-.5-1.14-.5-.76 0-1.37.67-1.37 1.67s.49 1.67 1.29 1.67c.43 0 .84-.22 1.22-.65Zm2.27-.49v-2.72h.75v2.62c0 .82.29 1.22 1.01 1.22.5 0 .87-.23 1.36-.8v-3.03h.75v4.38h-.62l-.06-.77h-.04c-.44.51-.96.87-1.63.87-1.04 0-1.51-.61-1.51-1.76Zm6.93.19v-4.34h-1.55v-.6h2.3v5c0 .63.34.9.86.9.25 0 .52-.06.82-.2l.19.56c-.4.17-.69.26-1.17.26-.94 0-1.45-.54-1.45-1.58m5.04-.23v-2.07h-1.24v-.56l1.27-.05.1-1.4h.62v1.4h2.14v.6h-2.14v2.08c0 .78.26 1.19 1.11 1.19.4 0 .73-.08 1.04-.2l.16.55c-.4.14-.82.26-1.37.26-1.28 0-1.69-.73-1.69-1.81Zm4.26.57c0-.98.92-1.46 3.18-1.64-.03-.59-.31-1.1-1.16-1.1-.57 0-1.13.27-1.53.52l-.3-.5c.45-.29 1.19-.63 1.95-.63 1.2 0 1.78.71 1.78 1.8v2.68h-.62l-.06-.59h-.03c-.48.38-1.11.7-1.72.7-.82 0-1.5-.46-1.5-1.24Zm3.18-.01v-1.13c-1.87.14-2.44.51-2.44 1.09 0 .5.45.69.96.69s.98-.23 1.48-.65m7.62-1.04c0-1.47 1.12-2.3 2.44-2.3.71 0 1.23.29 1.59.64l-.37.48c-.36-.31-.74-.5-1.2-.5-1.01 0-1.7.67-1.7 1.68s.68 1.67 1.68 1.67c.54 0 .99-.24 1.35-.55l.33.49c-.49.43-1.09.68-1.74.68-1.37 0-2.39-.84-2.39-2.29Zm5.52-4.23h.75v1.75l-.04 1.04h.03c.44-.49.95-.86 1.63-.86 1.04 0 1.51.61 1.51 1.76v2.72h-.75v-2.62c0-.83-.29-1.21-1-1.21-.52 0-.87.26-1.38.78v3.05h-.75zm5.17 4.21c0-1.42 1.06-2.29 2.23-2.29 1.26 0 2 .82 2 2.05 0 .17-.02.33-.04.45h-3.7v-.58h3.26l-.19.21c0-1.04-.51-1.55-1.31-1.55s-1.51.61-1.51 1.7.74 1.71 1.71 1.71c.52 0 .94-.16 1.33-.41l.27.49c-.43.29-.99.52-1.69.52-1.31 0-2.36-.85-2.36-2.3m11.03-2.18h.61l.06.56h.03c.41-.39.98-.67 1.51-.67 1.18 0 1.81.87 1.81 2.23 0 1.49-.94 2.36-1.99 2.36-.41 0-.91-.21-1.31-.57h-.02l.04.83v1.48h-.75v-6.22Zm3.26 2.13c0-.96-.36-1.6-1.23-1.6-.39 0-.84.2-1.28.65v2.18c.41.37.87.5 1.16.5.77 0 1.35-.65 1.35-1.73m2.02 1.12c0-.98.92-1.46 3.18-1.64-.03-.59-.32-1.1-1.16-1.1-.57 0-1.12.27-1.53.52l-.3-.5c.45-.29 1.19-.63 1.95-.63 1.2 0 1.78.71 1.78 1.8v2.68h-.62l-.06-.59h-.03c-.48.38-1.11.7-1.72.7-.82 0-1.5-.46-1.5-1.24Zm3.18-.01v-1.13c-1.87.14-2.44.51-2.44 1.09 0 .5.45.69.95.69s.98-.23 1.49-.65m2.81-3.24h.62l.07 1.04h.02c.46-.71 1.14-1.14 1.95-1.14.32 0 .59.04.87.18l-.17.64c-.31-.1-.47-.14-.81-.14-.66 0-1.28.33-1.8 1.25v2.56h-.75v-4.38Zm6.31 2.91v-4.34h-1.55v-.6h2.3v5c0 .63.34.9.86.9.25 0 .52-.06.82-.2l.19.56c-.41.17-.69.26-1.17.26-.94 0-1.45-.54-1.45-1.58m3.9.34c0-.98.92-1.46 3.18-1.64-.03-.59-.31-1.1-1.16-1.1-.57 0-1.13.27-1.53.52l-.3-.5c.45-.29 1.19-.63 1.95-.63 1.2 0 1.78.71 1.78 1.8v2.68h-.62l-.06-.59h-.03c-.48.38-1.11.7-1.72.7-.82 0-1.49-.46-1.49-1.24m3.18-.01v-1.13c-1.87.14-2.44.51-2.44 1.09 0 .5.45.69.95.69s.98-.23 1.49-.65m7.62.01c0-.98.92-1.46 3.18-1.64-.03-.59-.32-1.1-1.16-1.1-.57 0-1.12.27-1.53.52l-.3-.5c.45-.29 1.19-.63 1.95-.63 1.2 0 1.78.71 1.78 1.8v2.68h-.62l-.06-.59h-.03c-.48.38-1.11.7-1.72.7-.82 0-1.49-.46-1.49-1.24m3.18-.01v-1.13c-1.87.14-2.44.51-2.44 1.09 0 .5.45.69.96.69s.98-.23 1.49-.65Zm2.81-3.24h.62l.07 1.04h.02c.46-.71 1.14-1.14 1.95-1.14.32 0 .59.04.86.18l-.17.64c-.31-.1-.47-.14-.81-.14-.66 0-1.28.33-1.8 1.25v2.56h-.75v-4.38Zm4.81 3.25c0-.98.92-1.46 3.18-1.64-.03-.59-.32-1.1-1.16-1.1-.57 0-1.13.27-1.53.52l-.3-.5c.45-.29 1.19-.63 1.95-.63 1.2 0 1.78.71 1.78 1.8v2.68h-.62l-.06-.59h-.03c-.48.38-1.11.7-1.72.7-.82 0-1.5-.46-1.5-1.24Zm3.18-.01v-1.13c-1.87.14-2.44.51-2.44 1.09 0 .5.45.69.96.69s.98-.23 1.49-.65Zm3.03.65h-.03l-.07.49h-.59v-6.41h.75v1.75l-.04.85h.03c.4-.41.95-.67 1.47-.67 1.18 0 1.82.87 1.82 2.22 0 1.49-.94 2.37-1.97 2.37-.43 0-.95-.22-1.36-.59Zm2.57-1.76c0-.96-.36-1.6-1.23-1.6-.39 0-.84.2-1.28.65v2.18c.4.37.86.5 1.18.5.76 0 1.33-.65 1.33-1.73m1.84.07c0-1.47 1.01-2.3 2.16-2.3s2.16.84 2.16 2.3-1.01 2.29-2.16 2.29-2.16-.84-2.16-2.29m3.56 0c0-1.01-.56-1.68-1.4-1.68s-1.4.67-1.4 1.68.56 1.67 1.4 1.67 1.4-.67 1.4-1.67m7.22-2.2h.59l.06.58h.02c.23-.4.5-.68 1-.68.43 0 .7.25.83.76.25-.47.52-.76 1.03-.76.61 0 .97.48.97 1.35v3.13h-.74v-3.08c0-.5-.14-.77-.47-.77-.31 0-.47.23-.7.68v3.17h-.68v-3.08c0-.5-.13-.77-.45-.77-.31 0-.5.23-.72.68v3.17h-.74zm5.6 3.25c0-.98.92-1.46 3.18-1.64-.03-.59-.32-1.1-1.16-1.1-.57 0-1.13.27-1.53.52l-.3-.5c.45-.29 1.19-.63 1.95-.63 1.2 0 1.78.71 1.78 1.8v2.68h-.62l-.06-.59h-.03c-.48.38-1.11.7-1.72.7-.82 0-1.5-.46-1.5-1.24Zm3.18-.01v-1.13c-1.87.14-2.44.51-2.44 1.09 0 .5.45.69.96.69s.98-.23 1.49-.65Zm2.8-3.24h.62l.07 1.04h.02c.46-.71 1.14-1.14 1.95-1.14.32 0 .59.04.86.18l-.17.64c-.31-.1-.47-.14-.81-.14-.66 0-1.28.33-1.8 1.25v2.56h-.75v-4.38Zm4.64 2.2c0-1.47 1.01-2.3 2.16-2.3s2.16.84 2.16 2.3-1.01 2.29-2.16 2.29-2.16-.84-2.16-2.29m3.56 0c0-1.01-.56-1.68-1.4-1.68s-1.4.67-1.4 1.68.56 1.67 1.4 1.67 1.4-.67 1.4-1.67m2.02 0c0-1.47 1.12-2.3 2.44-2.3.71 0 1.23.29 1.59.64l-.37.48c-.36-.31-.74-.5-1.2-.5-1.01 0-1.7.67-1.7 1.68s.68 1.67 1.68 1.67c.54 0 .99-.24 1.35-.55l.33.49c-.49.43-1.09.68-1.74.68-1.37 0-2.4-.84-2.4-2.29Zm5.4 0c0-1.47 1.12-2.3 2.44-2.3.71 0 1.23.29 1.59.64l-.37.48c-.36-.31-.74-.5-1.2-.5-1.01 0-1.7.67-1.7 1.68s.68 1.67 1.68 1.67c.54 0 .99-.24 1.35-.55l.33.49c-.49.43-1.09.68-1.74.68-1.37 0-2.4-.84-2.4-2.29Zm5.52-4.23h.75v1.75l-.04 1.04h.03c.44-.49.95-.86 1.63-.86 1.04 0 1.51.61 1.51 1.76v2.72h-.75v-2.62c0-.83-.29-1.21-1-1.21-.52 0-.87.26-1.38.78v3.05H212zm7.4 2.64h-2.03v-.6h2.77v4.38h-.75v-3.77Zm-.3-2.1c0-.34.25-.58.59-.58s.59.23.59.58-.25.58-.59.58-.59-.22-.59-.58m3.7 1.49h.61l.06.74h.04c.46-.48.96-.85 1.65-.85 1.04 0 1.51.61 1.51 1.76V124h-.75v-2.62c0-.83-.29-1.21-1-1.21-.52 0-.87.26-1.38.78V124h-.75v-4.38Zm5.1 2.2c0-1.47 1.01-2.3 2.16-2.3s2.16.84 2.16 2.3-1.01 2.29-2.16 2.29-2.16-.84-2.16-2.29m3.56 0c0-1.01-.56-1.68-1.4-1.68s-1.4.67-1.4 1.68.56 1.67 1.4 1.67 1.4-.67 1.4-1.67m-192.4 32.48v-2.72h.75v2.62c0 .82.29 1.22 1.01 1.22.5 0 .87-.23 1.36-.8v-3.03h.75v4.38h-.62l-.06-.77h-.04c-.44.51-.95.87-1.63.87-1.04 0-1.51-.61-1.51-1.76Zm5.54-2.72h.61l.06.74h.04c.46-.48.96-.85 1.65-.85 1.04 0 1.51.61 1.51 1.76v2.72h-.75v-2.62c0-.83-.29-1.21-1-1.21-.52 0-.87.26-1.38.78v3.05h-.75v-4.38Zm5.28 3.24c0-.98.92-1.46 3.18-1.64-.03-.59-.32-1.1-1.16-1.1-.57 0-1.12.27-1.53.52l-.3-.5c.45-.29 1.19-.63 1.95-.63 1.2 0 1.78.71 1.78 1.8v2.68h-.62l-.06-.59h-.03c-.48.38-1.11.7-1.72.7-.82 0-1.49-.46-1.49-1.24m3.18-.01v-1.13c-1.87.14-2.44.51-2.44 1.09 0 .5.45.69.95.69s.98-.23 1.49-.65m8.21-3.23h.62l.07 1.04h.02c.46-.71 1.14-1.14 1.95-1.14.32 0 .59.04.87.18l-.17.64c-.31-.1-.47-.14-.81-.14-.66 0-1.28.33-1.8 1.25v2.56h-.75v-4.38Zm4.81 3.24c0-.98.92-1.46 3.18-1.64-.03-.59-.31-1.1-1.16-1.1-.57 0-1.13.27-1.53.52l-.3-.5c.45-.29 1.19-.63 1.95-.63 1.2 0 1.78.71 1.78 1.8v2.68h-.62l-.06-.59h-.03c-.48.38-1.11.7-1.72.7-.82 0-1.49-.46-1.49-1.24m3.18-.01v-1.13c-1.87.14-2.44.51-2.44 1.09 0 .5.45.69.95.69s.98-.23 1.49-.65m2.15 1.95c0-.35.25-.7.72-.97v-.04c-.23-.13-.45-.35-.45-.72 0-.28.19-.59.52-.82v-.04c-.3-.22-.54-.61-.54-1.13 0-.95.79-1.57 1.72-1.57.25 0 .46.04.65.11h1.81v.6h-1.13c.2.21.37.53.37.88 0 .94-.75 1.5-1.69 1.5-.22 0-.49-.05-.74-.16-.21.13-.34.3-.34.5 0 .34.33.5.91.5h.98c1.12 0 1.67.29 1.67 1.03 0 .82-.95 1.53-2.43 1.53-1.28 0-2.02-.44-2.02-1.22Zm3.72-.2c0-.41-.33-.53-1-.53h-.86c-.25 0-.48-.02-.67-.07-.41.22-.56.48-.56.73 0 .46.5.75 1.43.75 1.02 0 1.65-.42 1.65-.87Zm-.74-3.52c0-.61-.45-1.03-1.01-1.03s-1.01.41-1.01 1.03.46 1.04 1.01 1.04 1.01-.41 1.01-1.04m2.49 1.78c0-.98.92-1.46 3.18-1.64-.03-.59-.32-1.1-1.16-1.1-.57 0-1.12.27-1.53.52l-.3-.5c.45-.29 1.19-.63 1.95-.63 1.2 0 1.78.71 1.78 1.8v2.68h-.62l-.06-.59h-.03c-.48.38-1.11.7-1.72.7-.82 0-1.5-.46-1.5-1.24Zm3.18-.01v-1.13c-1.87.14-2.44.51-2.44 1.09 0 .5.45.69.95.69s.98-.23 1.49-.65m2.14.75 2.99-3.38h-2.66v-.6h3.73v.4l-2.99 3.37h3.07v.61H82.2zm5.4 0 2.99-3.38h-2.66v-.6h3.73v.4l-2.99 3.37h3.07v.61H87.6zm5.48-.74c0-.98.92-1.46 3.18-1.64-.03-.59-.32-1.1-1.16-1.1-.57 0-1.12.27-1.53.52l-.3-.5c.45-.29 1.19-.63 1.95-.63 1.2 0 1.78.71 1.78 1.8v2.68h-.62l-.06-.59h-.03c-.48.38-1.11.7-1.72.7-.82 0-1.49-.46-1.49-1.24m3.18-.01v-1.13c-1.87.14-2.44.51-2.44 1.09 0 .5.45.69.95.69s.98-.23 1.49-.65m7.62-1.03c0-1.47 1.12-2.3 2.44-2.3.71 0 1.23.29 1.59.64l-.37.48c-.36-.31-.74-.5-1.2-.5-1.01 0-1.7.67-1.7 1.68s.68 1.67 1.68 1.67c.54 0 .99-.24 1.35-.55l.33.49c-.49.43-1.09.68-1.74.68-1.37 0-2.39-.84-2.39-2.29Zm5.52-4.23h.75v1.75l-.04 1.04h.03c.44-.49.96-.86 1.63-.86 1.04 0 1.51.61 1.51 1.76v2.72h-.75v-2.62c0-.83-.29-1.21-1-1.21-.52 0-.87.26-1.38.78v3.05h-.75zm5.17 4.21c0-1.42 1.06-2.29 2.23-2.29 1.26 0 2 .82 2 2.05 0 .17-.02.33-.04.45h-3.7v-.58h3.26l-.19.21c0-1.04-.51-1.55-1.31-1.55s-1.51.61-1.51 1.7.74 1.71 1.71 1.71c.52 0 .94-.16 1.33-.41l.27.49c-.43.29-.99.52-1.69.52-1.31 0-2.36-.85-2.36-2.3m11.03-2.18h.61l.06.56h.03c.4-.39.98-.67 1.51-.67 1.18 0 1.81.87 1.81 2.23 0 1.49-.94 2.36-1.99 2.36-.41 0-.91-.21-1.31-.57h-.02l.04.83v1.48h-.75v-6.22Zm3.26 2.13c0-.96-.36-1.6-1.23-1.6-.39 0-.84.2-1.28.65v2.18c.4.37.86.5 1.16.5.78 0 1.35-.65 1.35-1.73m2.02 1.11c0-.98.92-1.46 3.18-1.64-.03-.59-.31-1.1-1.16-1.1-.57 0-1.13.27-1.53.52l-.3-.5c.45-.29 1.19-.63 1.95-.63 1.2 0 1.78.71 1.78 1.8v2.68h-.62l-.06-.59h-.03c-.48.38-1.11.7-1.72.7-.82 0-1.5-.46-1.5-1.24Zm3.18-.01v-1.13c-1.87.14-2.44.51-2.44 1.09 0 .5.45.69.96.69s.98-.23 1.48-.65m2.81-3.23h.62l.07 1.04h.02c.46-.71 1.14-1.14 1.95-1.14.32 0 .59.04.86.18l-.17.64c-.31-.1-.47-.14-.81-.14-.66 0-1.28.33-1.8 1.25v2.56h-.75v-4.38Zm6.31 2.91v-4.34h-1.55v-.6h2.3v5c0 .63.34.9.86.9.25 0 .52-.06.82-.2l.19.56c-.4.17-.69.26-1.17.26-.94 0-1.45-.54-1.45-1.58m3.9.33c0-.98.92-1.46 3.18-1.64-.03-.59-.32-1.1-1.16-1.1-.57 0-1.12.27-1.53.52l-.3-.5c.45-.29 1.19-.63 1.95-.63 1.2 0 1.78.71 1.78 1.8v2.68h-.62l-.06-.59h-.03c-.48.38-1.11.7-1.72.7-.82 0-1.49-.46-1.49-1.24m3.18-.01v-1.13c-1.87.14-2.44.51-2.44 1.09 0 .5.45.69.96.69s.98-.23 1.49-.65Zm7.62.01c0-.98.92-1.46 3.18-1.64-.03-.59-.32-1.1-1.16-1.1-.57 0-1.13.27-1.53.52l-.3-.5c.45-.29 1.19-.63 1.95-.63 1.2 0 1.78.71 1.78 1.8v2.68h-.62l-.06-.59h-.03c-.48.38-1.11.7-1.72.7-.82 0-1.5-.46-1.5-1.24Zm3.18-.01v-1.13c-1.87.14-2.44.51-2.44 1.09 0 .5.45.69.96.69s.98-.23 1.49-.65Zm2.81-3.23h.62l.07 1.04h.02c.46-.71 1.14-1.14 1.95-1.14.32 0 .59.04.86.18l-.17.64c-.31-.1-.47-.14-.81-.14-.66 0-1.28.33-1.8 1.25v2.56h-.75v-4.38Zm4.81 3.24c0-.98.92-1.46 3.18-1.64-.03-.59-.32-1.1-1.16-1.1-.57 0-1.12.27-1.53.52l-.3-.5c.45-.29 1.19-.63 1.95-.63 1.2 0 1.78.71 1.78 1.8v2.68h-.62l-.06-.59h-.03c-.48.38-1.11.7-1.72.7-.82 0-1.49-.46-1.49-1.24m3.18-.01v-1.13c-1.87.14-2.44.51-2.44 1.09 0 .5.45.69.96.69s.98-.23 1.49-.65Zm3.03.66h-.03l-.07.49h-.59v-6.41h.75v1.75l-.04.85h.03c.4-.41.95-.67 1.47-.67 1.18 0 1.82.87 1.82 2.22 0 1.49-.94 2.37-1.97 2.37-.43 0-.95-.22-1.36-.59Zm2.57-1.76c0-.96-.36-1.6-1.23-1.6-.39 0-.84.2-1.28.65v2.18c.41.37.87.5 1.18.5.76 0 1.33-.65 1.33-1.73m1.84.07c0-1.47 1.01-2.3 2.16-2.3s2.16.84 2.16 2.3-1.01 2.29-2.16 2.29-2.16-.84-2.16-2.29m3.56 0c0-1.01-.56-1.68-1.4-1.68s-1.4.67-1.4 1.68.56 1.67 1.4 1.67 1.4-.67 1.4-1.67m7.22-2.2h.59l.06.58h.02c.23-.4.5-.68 1-.68.43 0 .7.25.83.76.25-.47.52-.76 1.03-.76.61 0 .97.48.97 1.35v3.13h-.74v-3.08c0-.5-.14-.77-.47-.77-.31 0-.47.23-.7.68v3.17h-.68v-3.08c0-.5-.13-.77-.45-.77-.31 0-.5.23-.72.68v3.17h-.74zm5.6 3.24c0-.98.92-1.46 3.18-1.64-.03-.59-.32-1.1-1.16-1.1-.57 0-1.12.27-1.53.52l-.3-.5c.45-.29 1.19-.63 1.95-.63 1.2 0 1.78.71 1.78 1.8v2.68h-.62l-.06-.59h-.03c-.48.38-1.11.7-1.72.7-.82 0-1.49-.46-1.49-1.24m3.18-.01v-1.13c-1.87.14-2.44.51-2.44 1.09 0 .5.45.69.96.69s.98-.23 1.49-.65Zm2.8-3.23h.62l.07 1.04h.02c.46-.71 1.14-1.14 1.95-1.14.32 0 .59.04.86.18l-.17.64c-.31-.1-.47-.14-.81-.14-.66 0-1.28.33-1.8 1.25v2.56h-.75v-4.38Zm4.64 2.2c0-1.47 1.01-2.3 2.16-2.3s2.16.84 2.16 2.3-1.01 2.29-2.16 2.29-2.16-.84-2.16-2.29m3.56 0c0-1.01-.56-1.68-1.4-1.68s-1.4.67-1.4 1.68.56 1.67 1.4 1.67 1.4-.67 1.4-1.67m2.02 0c0-1.47 1.12-2.3 2.44-2.3.71 0 1.23.29 1.59.64l-.37.48c-.36-.31-.74-.5-1.2-.5-1.01 0-1.7.67-1.7 1.68s.68 1.67 1.68 1.67c.54 0 .99-.24 1.35-.55l.33.49c-.49.43-1.09.68-1.74.68-1.37 0-2.39-.84-2.39-2.29Zm5.4 0c0-1.47 1.12-2.3 2.44-2.3.71 0 1.23.29 1.59.64l-.37.48c-.36-.31-.74-.5-1.2-.5-1.01 0-1.7.67-1.7 1.68s.68 1.67 1.68 1.67c.54 0 .99-.24 1.35-.55l.33.49c-.49.43-1.09.68-1.74.68-1.37 0-2.39-.84-2.39-2.29Zm5.52-4.23h.75v1.75l-.04 1.04h.03c.44-.49.95-.86 1.63-.86 1.04 0 1.51.61 1.51 1.76v2.72h-.75v-2.62c0-.83-.29-1.21-1-1.21-.52 0-.87.26-1.38.78v3.05h-.75zm7.39 2.64h-2.03v-.6h2.77v4.38h-.75v-3.77Zm-.29-2.1c0-.34.25-.58.59-.58s.59.23.59.58-.25.58-.59.58-.59-.22-.59-.58m3.7 1.49h.61l.06.74h.04c.46-.48.96-.85 1.65-.85 1.04 0 1.51.61 1.51 1.76v2.72h-.75v-2.62c0-.83-.29-1.21-1-1.21-.52 0-.87.26-1.38.78v3.05h-.75v-4.38Zm5.1 2.2c0-1.47 1.01-2.3 2.16-2.3s2.16.84 2.16 2.3-1.01 2.29-2.16 2.29-2.16-.84-2.16-2.29m3.56 0c0-1.01-.56-1.68-1.4-1.68s-1.4.67-1.4 1.68.56 1.67 1.4 1.67 1.4-.67 1.4-1.67" class="cls-7"/><g id="rettangoli_rossi_sulle_carte" data-name="rettangoli rossi sulle carte"><rect width="66.94" height="12.96" x="203.54" y="20.41" class="cls-9" rx="1.86" ry="1.86"/><rect width="146.04" height="12.96" x="124.44" y="46.97" class="cls-9" rx="1.86" ry="1.86"/></g><g id="DOMANDE"><path d="M109.25 15.91c0-1.2 1.12-1.78 3.88-2-.03-.73-.39-1.34-1.42-1.34-.69 0-1.38.33-1.87.64l-.36-.62c.55-.35 1.45-.77 2.39-.77 1.46 0 2.18.87 2.18 2.2v3.28h-.76l-.08-.73h-.03c-.58.46-1.35.86-2.1.86-1 0-1.83-.56-1.83-1.52m3.88-.01v-1.39c-2.29.18-2.98.63-2.98 1.33 0 .6.55.85 1.17.85s1.2-.29 1.82-.79Zm2.62.69.42-.6c.62.44 1.34.73 2.32.73.9 0 1.34-.37 1.34-.83 0-.41-.21-.69-1.66-.99-1.4-.29-2.09-.76-2.09-1.56 0-.86.76-1.52 2.22-1.52.81 0 1.63.32 2.16.68l-.44.58c-.49-.34-1.11-.56-1.79-.56-.9 0-1.23.36-1.23.77 0 .46.46.66 1.56.89 1.77.38 2.2.83 2.2 1.65 0 .87-.85 1.6-2.38 1.6a4.65 4.65 0 0 1-2.63-.84m6.7-1.96c0-1.79 1.36-2.82 2.98-2.82.87 0 1.51.35 1.95.78l-.45.58c-.44-.37-.9-.6-1.46-.6-1.23 0-2.08.83-2.08 2.06s.84 2.04 2.06 2.04c.66 0 1.21-.3 1.65-.67l.41.59c-.59.53-1.33.84-2.12.84-1.67 0-2.93-1.02-2.93-2.79Zm6.38 0c0-1.79 1.23-2.82 2.64-2.82s2.64 1.02 2.64 2.82-1.23 2.79-2.64 2.79-2.64-1.02-2.64-2.79m4.35 0c0-1.23-.68-2.06-1.71-2.06s-1.71.83-1.71 2.06.68 2.04 1.71 2.04 1.71-.81 1.71-2.04m4.3.87v-5.3h-1.89v-.74h2.81v6.11c0 .77.42 1.1 1.06 1.1.31 0 .64-.08 1-.24l.23.68c-.49.21-.85.32-1.43.32-1.14 0-1.77-.66-1.77-1.93Zm6.16-.29v-2.53h-1.52V12l1.55-.05.12-1.72h.76v1.72h2.62v.74h-2.62v2.54c0 .96.32 1.45 1.35 1.45.5 0 .89-.1 1.28-.24l.2.67c-.48.18-1 .32-1.67.32-1.56 0-2.07-.89-2.07-2.21Zm5.21.7c0-1.2 1.12-1.78 3.88-2-.03-.73-.38-1.34-1.42-1.34-.69 0-1.38.33-1.87.64l-.36-.62c.55-.35 1.45-.77 2.39-.77 1.46 0 2.18.87 2.18 2.2v3.28h-.76l-.08-.73h-.03c-.58.46-1.35.86-2.1.86-1 0-1.83-.56-1.83-1.52m3.88-.01v-1.39c-2.29.18-2.98.63-2.98 1.33 0 .6.55.85 1.17.85s1.2-.29 1.82-.79Zm9.32-1.27c0-1.79 1.36-2.82 2.98-2.82.87 0 1.51.35 1.95.78l-.45.58c-.44-.37-.9-.6-1.46-.6-1.23 0-2.08.83-2.08 2.06s.84 2.04 2.06 2.04c.66 0 1.21-.3 1.65-.67l.41.59c-.59.53-1.33.84-2.12.84-1.67 0-2.93-1.02-2.93-2.79Zm6.38 0c0-1.79 1.23-2.82 2.64-2.82s2.64 1.02 2.64 2.82-1.23 2.79-2.64 2.79-2.64-1.02-2.64-2.79m4.35 0c0-1.23-.68-2.06-1.71-2.06s-1.71.83-1.71 2.06.68 2.04 1.71 2.04 1.71-.81 1.71-2.04m2.61-2.68h.75l.08.9h.04c.56-.58 1.18-1.03 2.01-1.03 1.27 0 1.85.75 1.85 2.16v3.32h-.91v-3.2c0-1.01-.35-1.48-1.22-1.48-.64 0-1.07.32-1.68.96v3.73h-.91v-5.35Zm13.06 3.96c0-1.2 1.12-1.78 3.88-2-.03-.73-.38-1.34-1.42-1.34-.69 0-1.38.33-1.87.64l-.36-.62c.55-.35 1.45-.77 2.39-.77 1.46 0 2.18.87 2.18 2.2v3.28h-.76l-.08-.73h-.03c-.58.46-1.35.86-2.1.86-1 0-1.83-.56-1.83-1.52m3.88-.01v-1.39c-2.29.18-2.98.63-2.98 1.33 0 .6.55.85 1.17.85s1.2-.29 1.82-.79Zm4.11-.69v-2.53h-1.52V12l1.55-.05.12-1.72h.76v1.72h2.62v.74h-2.62v2.54c0 .96.32 1.45 1.35 1.45.5 0 .89-.1 1.28-.24l.2.67c-.48.18-1 .32-1.67.32-1.56 0-2.07-.89-2.07-2.21Zm6.6 0v-2.53h-1.52V12l1.55-.05.12-1.72h.76v1.72h2.62v.74h-2.62v2.54c0 .96.32 1.45 1.35 1.45.5 0 .89-.1 1.28-.24l.2.67c-.48.18-1 .32-1.67.32-1.56 0-2.07-.89-2.07-2.21Zm5.08-.6c0-1.74 1.3-2.79 2.73-2.79 1.54 0 2.44 1 2.44 2.51 0 .21-.02.41-.04.55h-4.52v-.7h3.98l-.23.25c0-1.27-.63-1.89-1.61-1.89s-1.85.75-1.85 2.08.9 2.09 2.09 2.09c.64 0 1.14-.2 1.63-.51l.33.59c-.53.35-1.21.64-2.07.64-1.61 0-2.88-1.03-2.88-2.82m6.87-2.66h.75l.08.9h.04c.56-.58 1.18-1.03 2.01-1.03 1.27 0 1.85.75 1.85 2.16v3.32h-.91v-3.2c0-1.01-.35-1.48-1.22-1.48-.64 0-1.07.32-1.68.96v3.73H215v-5.35Zm6.36 4.86 3.65-4.13h-3.25v-.74h4.55v.48l-3.65 4.11h3.75v.75h-5.06v-.48Zm9.28-4.13h-2.48v-.74h3.39v5.35h-.91zm-.36-2.56c0-.42.31-.7.73-.7s.73.29.73.7-.31.7-.73.7-.73-.28-.73-.7m4.16 4.51c0-1.79 1.23-2.82 2.64-2.82s2.64 1.02 2.64 2.82-1.23 2.79-2.64 2.79-2.64-1.02-2.64-2.79m4.34 0c0-1.23-.68-2.06-1.71-2.06s-1.71.83-1.71 2.06.68 2.04 1.71 2.04 1.71-.81 1.71-2.04m2.62-2.68h.75l.08.9h.04c.56-.58 1.18-1.03 2.01-1.03 1.27 0 1.85.75 1.85 2.16v3.32h-.91v-3.2c0-1.01-.35-1.48-1.22-1.48-.64 0-1.07.32-1.68.96v3.73h-.91v-5.35Zm6.32 2.66c0-1.74 1.3-2.79 2.73-2.79 1.54 0 2.44 1 2.44 2.51 0 .21-.02.41-.04.55h-4.52v-.7h3.98l-.23.25c0-1.27-.63-1.89-1.61-1.89s-1.85.75-1.85 2.08.9 2.09 2.09 2.09c.64 0 1.14-.2 1.63-.51l.33.59c-.53.35-1.21.64-2.07.64-1.61 0-2.88-1.03-2.88-2.82m13.2 0c0-1.74 1.3-2.79 2.73-2.79 1.54 0 2.44 1 2.44 2.51 0 .21-.02.41-.04.55h-4.52v-.7h3.98l-.23.25c0-1.27-.63-1.89-1.61-1.89s-1.85.75-1.85 2.08.9 2.09 2.09 2.09c.64 0 1.14-.2 1.63-.51l.33.59c-.53.35-1.21.64-2.07.64-1.61 0-2.88-1.03-2.88-2.82M144.83 25.88h-2.48v-.74h3.39v5.35h-.91zm-.36-2.56c0-.42.31-.7.73-.7s.73.29.73.7-.31.7-.73.7-.73-.28-.73-.7m4.52 1.83h.75l.08.9h.04c.56-.58 1.18-1.03 2.01-1.03 1.27 0 1.85.75 1.85 2.16v3.32h-.91v-3.2c0-1.01-.35-1.48-1.22-1.48-.64 0-1.07.32-1.68.96v3.73H149v-5.35Zm6.24 2.68c0-1.74 1.15-2.82 2.42-2.82.64 0 1.13.25 1.61.68h.02l-.04-.98v-2.06h.91v7.83h-.75l-.08-.7h-.03c-.44.45-1.08.84-1.75.84-1.39 0-2.31-1.01-2.31-2.79m4 1.23V26.4c-.48-.45-.94-.62-1.4-.62-.92 0-1.67.81-1.67 2.04s.59 2.04 1.57 2.04c.53 0 1.02-.26 1.5-.79Zm2.6-1.23c0-1.79 1.23-2.82 2.64-2.82s2.64 1.02 2.64 2.82-1.23 2.79-2.64 2.79-2.64-1.02-2.64-2.79m4.35 0c0-1.23-.68-2.06-1.71-2.06s-1.71.83-1.71 2.06.68 2.04 1.71 2.04 1.71-.81 1.71-2.04m2.14-2.68h.94l1.23 3.03c.21.54.41 1.07.59 1.58h.04c.19-.52.36-1.04.58-1.58l1.23-3.03h.88l-2.22 5.35h-1.02zm9.52.73h-2.48v-.74h3.39v5.35h-.91zm-.37-2.56c0-.42.31-.7.73-.7s.73.29.73.7-.31.7-.73.7-.73-.28-.73-.7m4.52 1.83h.75l.08.9h.04c.56-.58 1.18-1.03 2.01-1.03 1.27 0 1.85.75 1.85 2.16v3.32h-.91v-3.2c0-1.01-.35-1.48-1.22-1.48-.64 0-1.07.32-1.68.96v3.73H182v-5.35Zm6.46 3.96c0-1.2 1.12-1.78 3.88-2-.03-.73-.38-1.34-1.42-1.34-.69 0-1.38.33-1.87.64l-.36-.62c.55-.35 1.45-.77 2.39-.77 1.46 0 2.18.87 2.18 2.2v3.28h-.76l-.08-.73h-.03c-.58.46-1.35.86-2.1.86-1 0-1.83-.56-1.83-1.52m3.88-.01v-1.39c-2.29.18-2.98.63-2.98 1.33 0 .6.55.85 1.17.85s1.2-.29 1.82-.79Z" class="cls-7"/><path d="M208.08 26.88c0-2.32 1.35-3.74 3.23-3.74.87 0 1.55.42 1.98.88l-.53.58c-.37-.4-.85-.65-1.45-.65-1.38 0-2.28 1.11-2.28 2.9s.9 2.95 2.28 2.95c.66 0 1.17-.29 1.62-.79l.53.56c-.56.66-1.28 1.04-2.23 1.04-1.78 0-3.15-1.39-3.15-3.74Zm6.76-3.6h.94v3.01h2.99v-3.01h.93v7.22h-.93v-3.39h-2.99v3.39h-.94zm6.77 6.43h1.79v-5.65h-1.79v-.78h4.51v.78h-1.79v5.65h1.79v.78h-4.51zm13.28-6.43h2.18c1.59 0 2.67.54 2.67 2.12s-1.09 2.23-2.67 2.23h-1.25v2.86h-.92v-7.22Zm2.07 3.6c1.25 0 1.86-.46 1.86-1.49s-.62-1.38-1.86-1.38h-1.14v2.86h1.14Zm6.18-3.6h1.06l2.43 7.22h-.99l-1.24-4.03c-.25-.8-.5-1.6-.71-2.43h-.04c-.23.84-.46 1.63-.71 2.43l-1.27 4.03h-.95l2.43-7.22Zm-1.15 4.28h3.31v.75h-3.31zm6.06-4.28h2.26c1.46 0 2.53.53 2.53 2.04s-1.07 2.13-2.53 2.13h-1.32v3.05h-.94zm2.13 3.42c1.12 0 1.74-.46 1.74-1.39s-.62-1.29-1.74-1.29h-1.19v2.67h1.19Zm.67.01 2.2 3.78h-1.04l-1.88-3.3.73-.48Zm4.19-3.43h.91v6.44h3.56v.78h-4.48v-7.22Zm7.9 0H264l2.43 7.22h-.99l-1.24-4.03c-.25-.8-.5-1.6-.71-2.43h-.04c-.23.84-.46 1.63-.71 2.43l-1.27 4.03h-.95l2.43-7.22Zm-1.15 4.28h3.31v.75h-3.31z" class="cls-2"/><path d="M105.23 39.08h-2.48v-.74h3.39v5.35h-.91zm-.36-2.56c0-.42.31-.7.73-.7s.73.29.73.7-.31.7-.73.7-.73-.28-.73-.7m4.52 1.83h.75l.08.9h.04c.56-.58 1.18-1.03 2.01-1.03 1.27 0 1.85.75 1.85 2.16v3.32h-.91v-3.2c0-1.01-.35-1.48-1.22-1.48-.64 0-1.07.32-1.68.96v3.73h-.91v-5.35ZM126.23 44l.04-.99h-.02c-.44.45-1.06.81-1.72.81-1.39 0-2.31-1.01-2.31-2.79s1.16-2.82 2.42-2.82c.65 0 1.16.25 1.65.73h.03l.09-.59h.73v7.6h-.91zm0-1.74V39.6c-.48-.45-.93-.62-1.4-.62-.92 0-1.67.81-1.67 2.04s.59 2.03 1.57 2.03c.53 0 1.02-.26 1.5-.79m2.79-.59v-3.32h.91v3.2c0 1 .35 1.49 1.23 1.49.62 0 1.07-.29 1.66-.98v-3.71h.91v5.35h-.76l-.08-.94h-.04c-.54.63-1.17 1.07-1.99 1.07-1.26 0-1.85-.75-1.85-2.16Zm6.5-.66c0-1.74 1.3-2.79 2.73-2.79 1.54 0 2.44 1 2.44 2.51 0 .21-.02.41-.04.55h-4.52v-.7h3.98l-.23.25c0-1.27-.63-1.89-1.61-1.89s-1.85.75-1.85 2.08.9 2.09 2.09 2.09c.64 0 1.14-.2 1.63-.51l.33.59c-.53.35-1.21.64-2.07.64-1.61 0-2.88-1.03-2.88-2.82m6.63 1.98.42-.61c.62.44 1.34.73 2.32.73.9 0 1.34-.37 1.34-.83 0-.41-.21-.69-1.66-.99-1.4-.29-2.09-.76-2.09-1.56 0-.86.76-1.52 2.22-1.52.81 0 1.63.32 2.16.68l-.44.58c-.49-.34-1.11-.56-1.79-.56-.9 0-1.23.36-1.23.77 0 .46.46.66 1.56.89 1.77.38 2.2.82 2.2 1.65 0 .87-.85 1.6-2.38 1.6a4.65 4.65 0 0 1-2.63-.84Zm8.09-1.38v-2.53h-1.52v-.68l1.55-.05.12-1.72h.76v1.72h2.62v.74h-2.62v2.54c0 .96.32 1.45 1.35 1.45.49 0 .89-.1 1.28-.24l.2.67c-.48.18-1 .32-1.67.32-1.56 0-2.07-.89-2.07-2.21Zm5.21.7c0-1.2 1.12-1.78 3.88-2-.03-.73-.38-1.34-1.42-1.34-.69 0-1.38.33-1.87.64l-.36-.62c.55-.35 1.45-.77 2.39-.77 1.46 0 2.18.87 2.18 2.2v3.28h-.76l-.08-.73h-.03c-.58.46-1.35.86-2.1.86-1 0-1.83-.56-1.83-1.52m3.88-.02V40.9c-2.29.18-2.98.63-2.98 1.33 0 .6.55.85 1.17.85s1.2-.29 1.81-.79m9.32-1.26c0-1.79 1.36-2.82 2.98-2.82.87 0 1.51.35 1.95.78l-.45.58c-.44-.37-.9-.6-1.46-.6-1.23 0-2.08.83-2.08 2.06s.84 2.04 2.06 2.04c.66 0 1.21-.3 1.65-.67l.41.59c-.59.53-1.33.84-2.12.84-1.67 0-2.93-1.02-2.93-2.79Zm6.38 0c0-1.79 1.23-2.82 2.64-2.82s2.64 1.02 2.64 2.82-1.23 2.79-2.64 2.79-2.64-1.02-2.64-2.79m4.35 0c0-1.23-.68-2.06-1.71-2.06s-1.71.83-1.71 2.06.68 2.04 1.71 2.04 1.71-.81 1.71-2.04m2.61-2.68h.75l.08.9h.04c.56-.58 1.18-1.03 2.01-1.03 1.27 0 1.85.75 1.85 2.16v3.32h-.91v-3.2c0-1.01-.35-1.48-1.22-1.48-.64 0-1.07.32-1.68.96v3.73H182v-5.35Zm6.13 0h.94l1.23 3.03c.21.54.41 1.07.59 1.58h.04c.19-.52.36-1.04.58-1.58l1.23-3.03h.88l-2.22 5.35h-1.02l-2.26-5.35Zm6.8 2.66c0-1.74 1.3-2.79 2.73-2.79 1.54 0 2.44 1 2.44 2.51 0 .21-.02.41-.04.55h-4.52v-.7h3.98l-.23.25c0-1.27-.63-1.89-1.61-1.89s-1.85.75-1.85 2.08.9 2.09 2.09 2.09c.64 0 1.14-.2 1.63-.51l.33.59c-.53.35-1.21.64-2.07.64-1.61 0-2.88-1.03-2.88-2.82m7.44-2.66h.76l.09 1.27h.02c.56-.87 1.4-1.4 2.39-1.4.4 0 .73.06 1.06.22l-.21.78c-.37-.12-.57-.18-.99-.18-.8 0-1.56.41-2.2 1.53v3.12h-.91v-5.35Zm5.79 4.64.42-.61c.62.44 1.34.73 2.32.73.9 0 1.34-.37 1.34-.83 0-.41-.21-.69-1.66-.99-1.4-.29-2.09-.76-2.09-1.56 0-.86.76-1.52 2.22-1.52.81 0 1.63.32 2.16.68l-.44.58c-.5-.34-1.11-.56-1.79-.56-.9 0-1.23.36-1.23.77 0 .46.46.66 1.56.89 1.77.38 2.2.82 2.2 1.65 0 .87-.85 1.6-2.38 1.6a4.65 4.65 0 0 1-2.63-.84Zm6.7-.68c0-1.2 1.12-1.78 3.88-2-.03-.73-.38-1.34-1.42-1.34-.69 0-1.38.33-1.87.64l-.36-.62c.55-.35 1.45-.77 2.39-.77 1.46 0 2.18.87 2.18 2.2v3.28h-.76l-.08-.73h-.03c-.58.46-1.35.86-2.1.86-1 0-1.83-.56-1.83-1.52m3.88-.02V40.9c-2.29.18-2.98.63-2.98 1.33 0 .6.55.85 1.17.85s1.2-.29 1.82-.79Zm2.62.92 3.65-4.13h-3.25v-.74h4.55v.48l-3.65 4.11h3.75v.75h-5.06v-.48Zm9.28-4.13h-2.48v-.74h3.39v5.35h-.91zm-.36-2.56c0-.42.31-.7.73-.7s.73.29.73.7-.31.7-.73.7-.73-.28-.73-.7m4.16 4.51c0-1.79 1.23-2.82 2.64-2.82s2.64 1.02 2.64 2.82-1.23 2.79-2.64 2.79-2.64-1.02-2.64-2.79m4.34 0c0-1.23-.68-2.06-1.71-2.06s-1.71.83-1.71 2.06.68 2.04 1.71 2.04 1.71-.81 1.71-2.04m2.62-2.68h.75l.08.9h.04c.56-.58 1.18-1.03 2.01-1.03 1.27 0 1.85.75 1.85 2.16v3.32h-.91v-3.2c0-1.01-.35-1.48-1.22-1.48-.64 0-1.07.32-1.68.96v3.73h-.91v-5.35Zm6.32 2.66c0-1.74 1.3-2.79 2.73-2.79 1.54 0 2.44 1 2.44 2.51 0 .21-.02.41-.04.55h-4.52v-.7h3.98l-.23.25c0-1.27-.63-1.89-1.61-1.89s-1.85.75-1.85 2.08.9 2.09 2.09 2.09c.64 0 1.14-.2 1.63-.51l.33.59c-.53.35-1.21.64-2.07.64-1.61 0-2.88-1.03-2.88-2.82m13.2 0c0-1.74 1.3-2.79 2.73-2.79 1.54 0 2.44 1 2.44 2.51 0 .21-.02.41-.04.55h-4.52v-.7h3.98l-.23.25c0-1.27-.63-1.89-1.61-1.89s-1.85.75-1.85 2.08.9 2.09 2.09 2.09c.64 0 1.14-.2 1.63-.51l.33.59c-.53.35-1.21.64-2.07.64-1.61 0-2.88-1.03-2.88-2.82" class="cls-7"/><path d="M129.21 56.11H131v-5.66h-1.79v-.78h4.51v.78h-1.79v5.66h1.79v.78h-4.51zm6.46-6.44h1.01l2.31 4.53.69 1.5h.02c-.03-.71-.12-1.53-.12-2.29v-3.74h.88v7.22h-1.01l-2.31-4.53-.69-1.5h-.02c.03.74.12 1.51.12 2.26v3.77h-.88zm12.83 3.58c0-2.33 1.14-3.71 2.77-3.71s2.77 1.38 2.77 3.71-1.14 3.77-2.77 3.77-2.77-1.41-2.77-3.77m4.59 0c0-1.82-.73-2.89-1.82-2.89s-1.82 1.08-1.82 2.89c0 1.91.73 3 1.82 3s1.82-1.09 1.82-3m-2.3 3.65.97-.08c.21.71.81 1.07 1.62 1.07.22 0 .4-.04.54-.1l.17.74c-.23.09-.5.15-.81.15-1.31 0-2.12-.77-2.47-1.78Zm4.65-2.74v-4.49h.94v4.51c0 1.49.65 2.02 1.51 2.02s1.53-.54 1.53-2.02v-4.51h.89v4.49c0 2.07-1.01 2.86-2.42 2.86s-2.44-.79-2.44-2.86Zm8.5-4.49H165l2.43 7.22h-.99l-1.24-4.03c-.25-.8-.5-1.6-.71-2.43h-.04c-.23.84-.46 1.63-.71 2.43l-1.27 4.03h-.95l2.43-7.22Zm-1.14 4.28h3.31v.75h-3.31zm6.44-4.28h.91v6.44h3.56v.78h-4.48v-7.22Zm6.38 0h4.47v.78h-3.54v2.26h2.99v.78h-2.99v2.62h3.65v.78h-4.58zm13.42 0h.91v6.44h3.56v.78h-4.48v-7.22Zm6.17 6.44H197v-5.66h-1.79v-.78h4.51v.78h-1.79v5.66h1.79v.78h-4.51zm6.46-6.44h1.01l2.31 4.53.69 1.5h.02c-.03-.71-.12-1.53-.12-2.29v-3.74h.88v7.22h-1.01l-2.31-4.53-.69-1.5h-.02c.03.74.12 1.51.12 2.26v3.77h-.88zm6.28 3.61c0-2.33 1.33-3.74 3.2-3.74.96 0 1.58.45 1.99.88l-.53.58c-.34-.36-.77-.65-1.46-.65-1.35 0-2.23 1.11-2.23 2.9s.8 2.95 2.21 2.95c.51 0 .98-.15 1.24-.42V53.9h-1.43v-.76h2.29v3.04c-.45.46-1.22.84-2.16.84-1.82 0-3.12-1.39-3.12-3.74m6.89.88v-4.49h.94v4.51c0 1.49.65 2.02 1.51 2.02s1.53-.54 1.53-2.02v-4.51h.89v4.49c0 2.07-1.01 2.86-2.42 2.86s-2.44-.79-2.44-2.86Zm8.5-4.49h1.06l2.43 7.22h-.99l-1.24-4.03c-.25-.8-.5-1.6-.71-2.43h-.04c-.23.84-.46 1.63-.71 2.43l-1.27 4.03h-.95l2.43-7.22Zm-1.15 4.28h3.31v.75h-3.31zm12.7-4.28h2.18c1.59 0 2.67.54 2.67 2.12s-1.09 2.23-2.67 2.23h-1.25v2.86h-.92v-7.22Zm2.07 3.61c1.25 0 1.86-.46 1.86-1.49s-.62-1.38-1.86-1.38h-1.14v2.86h1.14Zm6.18-3.61h1.06l2.43 7.22h-.99l-1.24-4.03c-.25-.8-.5-1.6-.71-2.43h-.04c-.23.84-.46 1.63-.71 2.43l-1.27 4.03h-.95l2.43-7.22Zm-1.15 4.28h3.31v.75h-3.31zm6.06-4.28h2.26c1.46 0 2.53.53 2.53 2.04s-1.07 2.13-2.53 2.13h-1.32v3.05h-.94zm2.13 3.43c1.12 0 1.74-.46 1.74-1.39s-.62-1.29-1.74-1.29h-1.19v2.67h1.19Zm.67.01 2.2 3.79h-1.04l-1.88-3.3.73-.48Zm4.19-3.44h.91v6.44h3.56v.78h-4.48v-7.22Zm7.9 0H264l2.43 7.22h-.99l-1.24-4.03c-.25-.8-.5-1.6-.71-2.43h-.04c-.23.84-.46 1.63-.71 2.43l-1.27 4.03h-.95l2.43-7.22Zm-1.15 4.28h3.31v.75h-3.31z" class="cls-2"/></g><path id="numeri_carte" d="M261.81 180.74c2.16-1.91 3.34-3.03 3.34-4.09 0-.73-.44-1.24-1.38-1.24-.6 0-1.12.34-1.53.76l-.48-.47c.58-.58 1.21-.97 2.11-.97 1.28 0 2.08.75 2.08 1.88 0 1.2-1.2 2.39-2.93 3.96.4-.03.81-.05 1.19-.05h2.09v.71h-4.49zm6.24-.2h1.84v-4.68h-1.43v-.54c.75-.1 1.23-.25 1.64-.47h.62v5.69h1.66v.69h-4.33z" class="cls-7" data-name="numeri carte"/></svg>