<?xml version="1.0" encoding="UTF-8"?>
<svg id="Livello_2" data-name="Livello 2" xmlns="http://www.w3.org/2000/svg" viewBox="0 0 17.19 77.57">
  <defs>
    <style>
      .cls-1 {
        stroke-width: .75px;
      }

      .cls-1, .cls-2 {
        fill: none;
        stroke: #1d1d1b;
        stroke-miterlimit: 10;
      }

      .cls-3 {
        fill: #1d1d1b;
      }
    </style>
  </defs>
  <g id="luoghi">
    <path class="cls-1" d="M3.93,15.82c-.19-.38-.77-.38-1.09-.11s-.44.71-.55,1.12c-4.37,17.41-.54,35.76,4.34,53.03-.65-.76-1.03-1.75-1.07-2.75"/>
    <path class="cls-1" d="M10.24,15.85c.15-.39.73-.45,1.08-.21s.51.66.65,1.06c6.01,16.91,3.95,35.55.74,53.2.57-.82.86-1.84.8-2.84"/>
    <path class="cls-3" d="M6.86,1.47c.11-.6-.84-.9-1.3-.5-.46.4-.52,1.07-.54,1.68-.09,2.4-.18,4.87.58,7.15.18.52.45,1.09.97,1.28.76.27,1.52-.4,1.94-1.08,1.02-1.64,1.31-3.62,1.41-5.55.05-.99.06-2.02-.35-2.92C9.17.62,8.23-.11,7.25.01c-1.24.16-1.95,1.55-2.04,2.8-.09,1.25.2,2.52-.06,3.75"/>
    <g>
      <path class="cls-3" d="M9.91,73.36c.97,1.91-5.15,3.56-6.36,3.72,1.05-.14,5.15-6.11,6.36-3.72Z"/>
      <path class="cls-2" d="M3.55,77.08c1.21-.17,7.33-1.81,6.36-3.72-1.22-2.39-5.31,3.58-6.36,3.72Z"/>
    </g>
    <g>
      <path class="cls-3" d="M10.3,73.61c-.81,1.98,5.42,3.12,6.65,3.19-1.06-.06-5.63-5.67-6.65-3.19Z"/>
      <path class="cls-2" d="M16.94,76.8c-1.22-.07-7.45-1.21-6.65-3.19,1.02-2.48,5.59,3.13,6.65,3.19Z"/>
    </g>
  </g>
</svg>