<?xml version="1.0" encoding="UTF-8"?>
<svg id="Livello_2" data-name="Livello 2" xmlns="http://www.w3.org/2000/svg" viewBox="0 0 276.15 188.11">
  <defs>
    <style>
      .cls-1 {
        stroke: #e52421;
      }

      .cls-1, .cls-2, .cls-3, .cls-4 {
        fill: #fff;
      }

      .cls-1, .cls-4, .cls-5 {
        stroke-miterlimit: 10;
      }

      .cls-6 {
        fill: #e52421;
        font-family: Century, Century;
        font-size: 5.47px;
      }

      .cls-7 {
        fill: #1d1d1b;
      }

      .cls-3 {
        font-family: StylusBT, 'Stylus BT';
        font-size: 9px;
      }

      .cls-8 {
        stroke: #fff;
        stroke-linecap: round;
        stroke-linejoin: round;
        stroke-width: .5px;
      }

      .cls-8, .cls-5 {
        fill: none;
      }

      .cls-4, .cls-5 {
        stroke: #e52424;
      }

      .cls-9 {
        fill: #e52424;
      }
    </style>
  </defs>
  <g id="bordi">
    <rect class="cls-1" x=".5" y=".5" width="275.15" height="187.11" rx="3.94" ry="3.94"/>
    <rect class="cls-5" x="257.88" y="168.97" width="17.77" height="18.64" rx="3.32" ry="3.32"/>
    <rect class="cls-5" x="26.72" y="79.49" width="234.65" height="18.64" rx="3.32" ry="3.32"/>
    <rect class="cls-5" x="26.72" y="110.89" width="234.65" height="18.64" rx="3.32" ry="3.32"/>
    <rect class="cls-5" x="26.72" y="144.4" width="234.65" height="18.64" rx="3.32" ry="3.32"/>
    <rect class="cls-9" x=".5" y=".07" width="86.86" height="56.69" rx="3.32" ry="3.32"/>
    <text class="cls-3" transform="translate(25.12 41.14) scale(1.5 .81)"><tspan x="0" y="0">k parla</tspan></text>
    <rect class="cls-2" x="25.87" y="43.82" width="36.55" height="6.3"/>
    <path class="cls-8" d="M41.21,16.83c-.05-.19-.14-.46-.36-.71-.14-.17-.33-.39-.65-.44-.28-.05-.8.07-.89.11-.4.2-.54.57-.57.65-.15.4-.02.75.03.88.03.09.17.44.52.67.54.35.94-.02,1.5.32.37.23.53.6.58.72.18.43.13.81.1.96"/>
    <path class="cls-8" d="M41.52,21.14c0,.11,0,.23,0,.34"/>
    <path class="cls-8" d="M52.43,25.33c.61-.14,1.8-.52,2.92-1.54,1.48-1.34,1.9-2.97,2.02-3.56"/>
    <path class="cls-8" d="M52.41,26.12c.63.17,2.02.63,3.28,1.9,1.28,1.28,1.73,2.7,1.9,3.33"/>
    <path class="cls-8" d="M55.2,25.61h.38"/>
    <path class="cls-8" d="M35.61,34.78c.71-1.64,1.34-3.65.66-6.79-.62-2.86-2.81-4.39-3.74-8.79-.28-1.33-.48-2.26-.36-3.56.44-4.62,4.42-7.15,4.76-7.38.69-.46,3.38-1.96,7.28-1.43,2.66.36,4.53,2.01,5.01,2.53.42.46.97,1.07,1.37,2.03.47,1.12.51,2.2.55,3.07.02.38,0,.22,0,1.93,0,1.16.02,1.57.19,2.12.18.59.45,1.02.58,1.23.15.23.42.64.91,1.02.6.48,1.05.54,1.18.99.02.06.07.25,0,.46-.16.48-.77.46-1.21,1.08-.09.13-.14.23-.2.38-.4.88-.31,1.79-.36,3.74,0,.2-.02.62-.17,1.14-.11.37-.22.75-.55.99-.2.15-.42.19-.92.22-1.33.08-2.06-.08-3.42,0-.06,0-.04,0-.16.01-.98.06-1.54.1-2.15.09-.48-.01-.84-.02-1.33-.12-.51-.1-.79-.16-1.09-.38-.04-.03-.74-.54-.82-1.3,0-.03,0-.02,0-.51,0,0,0-.24,0-.85,0-.49-.03-1.96-.09-3.95"/>
    <path class="cls-8" d="M34.86,36.3c.17-.33.05-.09.17-.33"/>
    <path class="cls-8" d="M32.73,40.86c0-.24.85-1.97,1.58-3.42"/>
    <text class="cls-6" transform="translate(29.69 49.01) scale(1.18 1)"><tspan x="0" y="0">SBCA001</tspan></text>
    <rect class="cls-4" x="14.94" y="73.97" width="17.77" height="18.64" rx="3.32" ry="3.32"/>
    <rect class="cls-4" x="14.94" y="105.37" width="17.77" height="18.64" rx="3.32" ry="3.32"/>
    <rect class="cls-4" x="14.94" y="138.88" width="17.77" height="18.64" rx="3.32" ry="3.32"/>
    <path class="cls-7" d="M23.2,79.84h1.25l2.87,8.53h-1.17l-1.47-4.76c-.3-.95-.58-1.88-.84-2.87h-.05c-.27.99-.55,1.92-.85,2.87l-1.5,4.76h-1.12l2.87-8.53ZM21.85,84.9h3.91v.88h-3.91v-.88Z"/>
    <path class="cls-7" d="M21.21,110.63h2.42c1.74,0,2.92.58,2.92,2.08,0,.84-.48,1.6-1.5,1.86v.05c1.25.19,1.98.87,1.98,2.04,0,1.68-1.3,2.5-3.21,2.5h-2.61v-8.53ZM23.45,114.22c1.46,0,2.04-.47,2.04-1.42s-.68-1.26-1.99-1.26h-1.21v2.68h1.16ZM23.67,118.25c1.46,0,2.3-.48,2.3-1.64,0-1.05-.81-1.48-2.3-1.48h-1.38v3.12h1.38Z"/>
    <path class="cls-7" d="M20.77,148.21c0-2.74,1.6-4.42,3.82-4.42,1.03,0,1.83.49,2.34,1.04l-.62.69c-.44-.47-1-.77-1.72-.77-1.62,0-2.69,1.31-2.69,3.43s1.07,3.48,2.69,3.48c.78,0,1.38-.34,1.91-.94l.62.66c-.66.78-1.51,1.23-2.64,1.23-2.11,0-3.72-1.64-3.72-4.42Z"/>
  </g>
  <g id="RISPOSTE">
    <g>
      <path class="cls-7" d="M39.06,90.4v-2.72h.75v2.62c0,.82.29,1.22,1.01,1.22.5,0,.87-.23,1.36-.8v-3.03h.75v4.38h-.62l-.06-.77h-.04c-.44.51-.95.87-1.63.87-1.04,0-1.51-.61-1.51-1.76Z"/>
      <path class="cls-7" d="M44.6,87.68h.61l.06.74h.04c.46-.48.96-.85,1.65-.85,1.04,0,1.51.61,1.51,1.76v2.72h-.75v-2.62c0-.83-.29-1.21-1-1.21-.52,0-.87.26-1.38.78v3.05h-.75v-4.38Z"/>
      <path class="cls-7" d="M49.88,90.92c0-.98.92-1.46,3.18-1.64-.03-.59-.32-1.1-1.16-1.1-.57,0-1.12.27-1.53.52l-.3-.5c.45-.29,1.19-.63,1.95-.63,1.2,0,1.78.71,1.78,1.8v2.68h-.62l-.06-.59h-.03c-.48.38-1.11.7-1.72.7-.82,0-1.49-.46-1.49-1.24ZM53.06,90.91v-1.13c-1.87.14-2.44.51-2.44,1.09,0,.5.45.69.95.69s.98-.23,1.49-.65Z"/>
      <path class="cls-7" d="M61.27,87.68h.62l.07,1.04h.02c.46-.71,1.14-1.14,1.95-1.14.32,0,.59.04.87.18l-.17.64c-.31-.1-.47-.14-.81-.14-.66,0-1.28.33-1.8,1.25v2.56h-.75v-4.38Z"/>
      <path class="cls-7" d="M66.08,90.92c0-.98.92-1.46,3.18-1.64-.03-.59-.31-1.1-1.16-1.1-.57,0-1.13.27-1.53.52l-.3-.5c.45-.29,1.19-.63,1.95-.63,1.2,0,1.78.71,1.78,1.8v2.68h-.62l-.06-.59h-.03c-.48.38-1.11.7-1.72.7-.82,0-1.49-.46-1.49-1.24ZM69.26,90.91v-1.13c-1.87.14-2.44.51-2.44,1.09,0,.5.45.69.95.69s.98-.23,1.49-.65Z"/>
      <path class="cls-7" d="M71.41,92.85c0-.35.25-.7.72-.97v-.04c-.23-.13-.45-.35-.45-.72,0-.28.19-.59.52-.82v-.04c-.3-.22-.54-.61-.54-1.13,0-.95.79-1.57,1.72-1.57.25,0,.46.04.65.11h1.81v.6h-1.13c.2.21.37.53.37.88,0,.94-.75,1.5-1.69,1.5-.22,0-.49-.05-.74-.16-.21.13-.34.3-.34.5,0,.34.33.5.91.5h.98c1.12,0,1.67.29,1.67,1.03,0,.82-.95,1.53-2.43,1.53-1.28,0-2.02-.44-2.02-1.22ZM75.13,92.66c0-.41-.33-.53-1-.53h-.86c-.25,0-.48-.02-.67-.07-.41.22-.56.48-.56.73,0,.46.5.75,1.43.75,1.02,0,1.65-.42,1.65-.87ZM74.39,89.14c0-.61-.45-1.03-1.01-1.03s-1.01.41-1.01,1.03.46,1.04,1.01,1.04,1.01-.41,1.01-1.04Z"/>
      <path class="cls-7" d="M76.88,90.92c0-.98.92-1.46,3.18-1.64-.03-.59-.32-1.1-1.16-1.1-.57,0-1.12.27-1.53.52l-.3-.5c.45-.29,1.19-.63,1.95-.63,1.2,0,1.78.71,1.78,1.8v2.68h-.62l-.06-.59h-.03c-.48.38-1.11.7-1.72.7-.82,0-1.5-.46-1.5-1.24ZM80.06,90.91v-1.13c-1.87.14-2.44.51-2.44,1.09,0,.5.45.69.95.69s.98-.23,1.49-.65Z"/>
      <path class="cls-7" d="M82.2,91.66l2.99-3.38h-2.66v-.6h3.73v.4l-2.99,3.37h3.07v.61h-4.14v-.4Z"/>
      <path class="cls-7" d="M87.6,91.66l2.99-3.38h-2.66v-.6h3.73v.4l-2.99,3.37h3.07v.61h-4.14v-.4Z"/>
      <path class="cls-7" d="M93.08,90.92c0-.98.92-1.46,3.18-1.64-.03-.59-.32-1.1-1.16-1.1-.57,0-1.12.27-1.53.52l-.3-.5c.45-.29,1.19-.63,1.95-.63,1.2,0,1.78.71,1.78,1.8v2.68h-.62l-.06-.59h-.03c-.48.38-1.11.7-1.72.7-.82,0-1.49-.46-1.49-1.24ZM96.26,90.91v-1.13c-1.87.14-2.44.51-2.44,1.09,0,.5.45.69.95.69s.98-.23,1.49-.65Z"/>
      <path class="cls-7" d="M103.88,89.87c0-1.47,1.12-2.3,2.44-2.3.71,0,1.23.29,1.59.64l-.37.48c-.36-.31-.74-.5-1.2-.5-1.01,0-1.7.67-1.7,1.68s.68,1.67,1.68,1.67c.54,0,.99-.24,1.35-.55l.33.49c-.49.43-1.09.68-1.74.68-1.37,0-2.39-.84-2.39-2.29Z"/>
      <path class="cls-7" d="M109.4,85.64h.75v1.75l-.04,1.04h.03c.44-.49.96-.86,1.63-.86,1.04,0,1.51.61,1.51,1.76v2.72h-.75v-2.62c0-.83-.29-1.21-1-1.21-.52,0-.87.26-1.38.78v3.05h-.75v-6.41Z"/>
      <path class="cls-7" d="M114.57,89.86c0-1.42,1.06-2.29,2.23-2.29,1.26,0,2,.82,2,2.05,0,.17-.02.33-.04.45h-3.7v-.58h3.26l-.19.21c0-1.04-.51-1.55-1.31-1.55s-1.51.61-1.51,1.7.74,1.71,1.71,1.71c.52,0,.94-.16,1.33-.41l.27.49c-.43.29-.99.52-1.69.52-1.31,0-2.36-.85-2.36-2.3Z"/>
      <path class="cls-7" d="M125.6,87.68h.61l.06.56h.03c.4-.39.98-.67,1.51-.67,1.18,0,1.81.87,1.81,2.23,0,1.49-.94,2.36-1.99,2.36-.41,0-.91-.21-1.31-.57h-.02l.04.83v1.48h-.75v-6.22ZM128.86,89.8c0-.96-.36-1.6-1.23-1.6-.39,0-.84.2-1.28.65v2.18c.4.37.86.5,1.16.5.78,0,1.35-.65,1.35-1.73Z"/>
      <path class="cls-7" d="M130.88,90.92c0-.98.92-1.46,3.18-1.64-.03-.59-.31-1.1-1.16-1.1-.57,0-1.13.27-1.53.52l-.3-.5c.45-.29,1.19-.63,1.95-.63,1.2,0,1.78.71,1.78,1.8v2.68h-.62l-.06-.59h-.03c-.48.38-1.11.7-1.72.7-.82,0-1.5-.46-1.5-1.24ZM134.06,90.91v-1.13c-1.87.14-2.44.51-2.44,1.09,0,.5.45.69.96.69s.98-.23,1.48-.65Z"/>
      <path class="cls-7" d="M136.87,87.68h.62l.07,1.04h.02c.46-.71,1.14-1.14,1.95-1.14.32,0,.59.04.86.18l-.17.64c-.31-.1-.47-.14-.81-.14-.66,0-1.28.33-1.8,1.25v2.56h-.75v-4.38Z"/>
      <path class="cls-7" d="M143.18,90.59v-4.34h-1.55v-.6h2.3v5c0,.63.34.9.86.9.25,0,.52-.06.82-.2l.19.56c-.4.17-.69.26-1.17.26-.94,0-1.45-.54-1.45-1.58Z"/>
      <path class="cls-7" d="M147.08,90.92c0-.98.92-1.46,3.18-1.64-.03-.59-.32-1.1-1.16-1.1-.57,0-1.12.27-1.53.52l-.3-.5c.45-.29,1.19-.63,1.95-.63,1.2,0,1.78.71,1.78,1.8v2.68h-.62l-.06-.59h-.03c-.48.38-1.11.7-1.72.7-.82,0-1.49-.46-1.49-1.24ZM150.26,90.91v-1.13c-1.87.14-2.44.51-2.44,1.09,0,.5.45.69.96.69s.98-.23,1.49-.65Z"/>
      <path class="cls-7" d="M157.85,90.4v-2.72h.75v2.62c0,.82.29,1.22,1.01,1.22.5,0,.87-.23,1.36-.8v-3.03h.75v4.38h-.62l-.06-.77h-.04c-.44.51-.95.87-1.63.87-1.04,0-1.51-.61-1.51-1.76Z"/>
      <path class="cls-7" d="M163.87,87.68h.62l.07,1.04h.02c.46-.71,1.14-1.14,1.95-1.14.32,0,.59.04.86.18l-.17.64c-.31-.1-.47-.14-.81-.14-.66,0-1.28.33-1.8,1.25v2.56h-.75v-4.38Z"/>
      <path class="cls-7" d="M168.5,89.87c0-1.42.95-2.3,1.98-2.3.52,0,.93.21,1.31.56h.02l-.04-.8v-1.68h.75v6.41h-.61l-.06-.58h-.03c-.36.37-.88.68-1.43.68-1.13,0-1.89-.83-1.89-2.29ZM171.78,90.88v-2.18c-.4-.37-.77-.5-1.14-.5-.76,0-1.37.67-1.37,1.67s.49,1.67,1.29,1.67c.43,0,.84-.22,1.22-.65Z"/>
      <path class="cls-7" d="M174.05,90.4v-2.72h.75v2.62c0,.82.29,1.22,1.01,1.22.5,0,.87-.23,1.36-.8v-3.03h.75v4.38h-.62l-.06-.77h-.04c-.44.51-.95.87-1.63.87-1.04,0-1.51-.61-1.51-1.76Z"/>
    </g>
    <g>
      <path class="cls-7" d="M39.06,122.35v-2.72h.75v2.62c0,.82.29,1.22,1.01,1.22.5,0,.87-.23,1.36-.8v-3.03h.75v4.38h-.62l-.06-.77h-.04c-.44.51-.95.87-1.63.87-1.04,0-1.51-.61-1.51-1.76Z"/>
      <path class="cls-7" d="M44.6,119.63h.61l.06.74h.04c.46-.48.96-.85,1.65-.85,1.04,0,1.51.61,1.51,1.76v2.72h-.75v-2.62c0-.83-.29-1.21-1-1.21-.52,0-.87.26-1.38.78v3.05h-.75v-4.38Z"/>
      <path class="cls-7" d="M51.38,118.82v-.99s.98,0,.98,0v.99s-.24,2.03-.24,2.03h-.5l-.23-2.03Z"/>
      <path class="cls-7" d="M55.28,122.88c0-.98.92-1.46,3.18-1.64-.03-.59-.32-1.1-1.16-1.1-.57,0-1.12.27-1.53.52l-.3-.5c.45-.29,1.19-.63,1.95-.63,1.2,0,1.78.71,1.78,1.8v2.68h-.62l-.06-.59h-.03c-.48.38-1.11.7-1.72.7-.82,0-1.5-.46-1.5-1.24ZM58.46,122.87v-1.13c-1.87.14-2.44.51-2.44,1.09,0,.5.45.69.95.69s.98-.23,1.49-.65Z"/>
      <path class="cls-7" d="M60.5,121.83c0-1.42.95-2.3,1.98-2.3.52,0,.93.21,1.31.56h.02l-.04-.8v-1.68h.75v6.41h-.61l-.06-.58h-.03c-.36.37-.88.68-1.43.68-1.13,0-1.89-.83-1.89-2.29ZM63.78,122.84v-2.18c-.4-.37-.77-.5-1.14-.5-.76,0-1.37.67-1.37,1.67s.49,1.67,1.29,1.67c.43,0,.84-.22,1.22-.65Z"/>
      <path class="cls-7" d="M66.05,122.35v-2.72h.75v2.62c0,.82.29,1.22,1.01,1.22.5,0,.87-.23,1.36-.8v-3.03h.75v4.38h-.62l-.06-.77h-.04c-.44.51-.96.87-1.63.87-1.04,0-1.51-.61-1.51-1.76Z"/>
      <path class="cls-7" d="M72.98,122.54v-4.34h-1.55v-.6h2.3v5c0,.63.34.9.86.9.25,0,.52-.06.82-.2l.19.56c-.4.17-.69.26-1.17.26-.94,0-1.45-.54-1.45-1.58Z"/>
      <path class="cls-7" d="M78.02,122.31v-2.07h-1.24v-.56l1.27-.05.1-1.4h.62v1.4h2.14v.6h-2.14v2.08c0,.78.26,1.19,1.11,1.19.4,0,.73-.08,1.04-.2l.16.55c-.4.14-.82.26-1.37.26-1.28,0-1.69-.73-1.69-1.81Z"/>
      <path class="cls-7" d="M82.28,122.88c0-.98.92-1.46,3.18-1.64-.03-.59-.31-1.1-1.16-1.1-.57,0-1.13.27-1.53.52l-.3-.5c.45-.29,1.19-.63,1.95-.63,1.2,0,1.78.71,1.78,1.8v2.68h-.62l-.06-.59h-.03c-.48.38-1.11.7-1.72.7-.82,0-1.5-.46-1.5-1.24ZM85.46,122.87v-1.13c-1.87.14-2.44.51-2.44,1.09,0,.5.45.69.96.69s.98-.23,1.48-.65Z"/>
      <path class="cls-7" d="M93.08,121.83c0-1.47,1.12-2.3,2.44-2.3.71,0,1.23.29,1.59.64l-.37.48c-.36-.31-.74-.5-1.2-.5-1.01,0-1.7.67-1.7,1.68s.68,1.67,1.68,1.67c.54,0,.99-.24,1.35-.55l.33.49c-.49.43-1.09.68-1.74.68-1.37,0-2.39-.84-2.39-2.29Z"/>
      <path class="cls-7" d="M98.6,117.6h.75v1.75l-.04,1.04h.03c.44-.49.95-.86,1.63-.86,1.04,0,1.51.61,1.51,1.76v2.72h-.75v-2.62c0-.83-.29-1.21-1-1.21-.52,0-.87.26-1.38.78v3.05h-.75v-6.41Z"/>
      <path class="cls-7" d="M103.77,121.81c0-1.42,1.06-2.29,2.23-2.29,1.26,0,2,.82,2,2.05,0,.17-.02.33-.04.45h-3.7v-.58h3.26l-.19.21c0-1.04-.51-1.55-1.31-1.55s-1.51.61-1.51,1.7.74,1.71,1.71,1.71c.52,0,.94-.16,1.33-.41l.27.49c-.43.29-.99.52-1.69.52-1.31,0-2.36-.85-2.36-2.3Z"/>
      <path class="cls-7" d="M114.8,119.63h.61l.06.56h.03c.41-.39.98-.67,1.51-.67,1.18,0,1.81.87,1.81,2.23,0,1.49-.94,2.36-1.99,2.36-.41,0-.91-.21-1.31-.57h-.02l.04.83v1.48h-.75v-6.22ZM118.06,121.76c0-.96-.36-1.6-1.23-1.6-.39,0-.84.2-1.28.65v2.18c.41.37.87.5,1.16.5.77,0,1.35-.65,1.35-1.73Z"/>
      <path class="cls-7" d="M120.08,122.88c0-.98.92-1.46,3.18-1.64-.03-.59-.32-1.1-1.16-1.1-.57,0-1.12.27-1.53.52l-.3-.5c.45-.29,1.19-.63,1.95-.63,1.2,0,1.78.71,1.78,1.8v2.68h-.62l-.06-.59h-.03c-.48.38-1.11.7-1.72.7-.82,0-1.5-.46-1.5-1.24ZM123.26,122.87v-1.13c-1.87.14-2.44.51-2.44,1.09,0,.5.45.69.95.69s.98-.23,1.49-.65Z"/>
      <path class="cls-7" d="M126.07,119.63h.62l.07,1.04h.02c.46-.71,1.14-1.14,1.95-1.14.32,0,.59.04.87.18l-.17.64c-.31-.1-.47-.14-.81-.14-.66,0-1.28.33-1.8,1.25v2.56h-.75v-4.38Z"/>
      <path class="cls-7" d="M132.38,122.54v-4.34h-1.55v-.6h2.3v5c0,.63.34.9.86.9.25,0,.52-.06.82-.2l.19.56c-.41.17-.69.26-1.17.26-.94,0-1.45-.54-1.45-1.58Z"/>
      <path class="cls-7" d="M136.28,122.88c0-.98.92-1.46,3.18-1.64-.03-.59-.31-1.1-1.16-1.1-.57,0-1.13.27-1.53.52l-.3-.5c.45-.29,1.19-.63,1.95-.63,1.2,0,1.78.71,1.78,1.8v2.68h-.62l-.06-.59h-.03c-.48.38-1.11.7-1.72.7-.82,0-1.49-.46-1.49-1.24ZM139.46,122.87v-1.13c-1.87.14-2.44.51-2.44,1.09,0,.5.45.69.95.69s.98-.23,1.49-.65Z"/>
      <path class="cls-7" d="M147.08,122.88c0-.98.92-1.46,3.18-1.64-.03-.59-.32-1.1-1.16-1.1-.57,0-1.12.27-1.53.52l-.3-.5c.45-.29,1.19-.63,1.95-.63,1.2,0,1.78.71,1.78,1.8v2.68h-.62l-.06-.59h-.03c-.48.38-1.11.7-1.72.7-.82,0-1.49-.46-1.49-1.24ZM150.26,122.87v-1.13c-1.87.14-2.44.51-2.44,1.09,0,.5.45.69.96.69s.98-.23,1.49-.65Z"/>
      <path class="cls-7" d="M153.07,119.63h.62l.07,1.04h.02c.46-.71,1.14-1.14,1.95-1.14.32,0,.59.04.86.18l-.17.64c-.31-.1-.47-.14-.81-.14-.66,0-1.28.33-1.8,1.25v2.56h-.75v-4.38Z"/>
      <path class="cls-7" d="M157.88,122.88c0-.98.92-1.46,3.18-1.64-.03-.59-.32-1.1-1.16-1.1-.57,0-1.13.27-1.53.52l-.3-.5c.45-.29,1.19-.63,1.95-.63,1.2,0,1.78.71,1.78,1.8v2.68h-.62l-.06-.59h-.03c-.48.38-1.11.7-1.72.7-.82,0-1.5-.46-1.5-1.24ZM161.06,122.87v-1.13c-1.87.14-2.44.51-2.44,1.09,0,.5.45.69.96.69s.98-.23,1.49-.65Z"/>
      <path class="cls-7" d="M164.09,123.52h-.03l-.07.49h-.59v-6.41h.75v1.75l-.04.85h.03c.4-.41.95-.67,1.47-.67,1.18,0,1.82.87,1.82,2.22,0,1.49-.94,2.37-1.97,2.37-.43,0-.95-.22-1.36-.59ZM166.66,121.76c0-.96-.36-1.6-1.23-1.6-.39,0-.84.2-1.28.65v2.18c.4.37.86.5,1.18.5.76,0,1.33-.65,1.33-1.73Z"/>
      <path class="cls-7" d="M168.5,121.83c0-1.47,1.01-2.3,2.16-2.3s2.16.84,2.16,2.3-1.01,2.29-2.16,2.29-2.16-.84-2.16-2.29ZM172.06,121.83c0-1.01-.56-1.68-1.4-1.68s-1.4.67-1.4,1.68.56,1.67,1.4,1.67,1.4-.67,1.4-1.67Z"/>
      <path class="cls-7" d="M179.28,119.63h.59l.06.58h.02c.23-.4.5-.68,1-.68.43,0,.7.25.83.76.25-.47.52-.76,1.03-.76.61,0,.97.48.97,1.35v3.13h-.74v-3.08c0-.5-.14-.77-.47-.77-.31,0-.47.23-.7.68v3.17h-.68v-3.08c0-.5-.13-.77-.45-.77-.31,0-.5.23-.72.68v3.17h-.74v-4.38Z"/>
      <path class="cls-7" d="M184.88,122.88c0-.98.92-1.46,3.18-1.64-.03-.59-.32-1.1-1.16-1.1-.57,0-1.13.27-1.53.52l-.3-.5c.45-.29,1.19-.63,1.95-.63,1.2,0,1.78.71,1.78,1.8v2.68h-.62l-.06-.59h-.03c-.48.38-1.11.7-1.72.7-.82,0-1.5-.46-1.5-1.24ZM188.06,122.87v-1.13c-1.87.14-2.44.51-2.44,1.09,0,.5.45.69.96.69s.98-.23,1.49-.65Z"/>
      <path class="cls-7" d="M190.86,119.63h.62l.07,1.04h.02c.46-.71,1.14-1.14,1.95-1.14.32,0,.59.04.86.18l-.17.64c-.31-.1-.47-.14-.81-.14-.66,0-1.28.33-1.8,1.25v2.56h-.75v-4.38Z"/>
      <path class="cls-7" d="M195.5,121.83c0-1.47,1.01-2.3,2.16-2.3s2.16.84,2.16,2.3-1.01,2.29-2.16,2.29-2.16-.84-2.16-2.29ZM199.06,121.83c0-1.01-.56-1.68-1.4-1.68s-1.4.67-1.4,1.68.56,1.67,1.4,1.67,1.4-.67,1.4-1.67Z"/>
      <path class="cls-7" d="M201.08,121.83c0-1.47,1.12-2.3,2.44-2.3.71,0,1.23.29,1.59.64l-.37.48c-.36-.31-.74-.5-1.2-.5-1.01,0-1.7.67-1.7,1.68s.68,1.67,1.68,1.67c.54,0,.99-.24,1.35-.55l.33.49c-.49.43-1.09.68-1.74.68-1.37,0-2.4-.84-2.4-2.29Z"/>
      <path class="cls-7" d="M206.48,121.83c0-1.47,1.12-2.3,2.44-2.3.71,0,1.23.29,1.59.64l-.37.48c-.36-.31-.74-.5-1.2-.5-1.01,0-1.7.67-1.7,1.68s.68,1.67,1.68,1.67c.54,0,.99-.24,1.35-.55l.33.49c-.49.43-1.09.68-1.74.68-1.37,0-2.4-.84-2.4-2.29Z"/>
      <path class="cls-7" d="M212,117.6h.75v1.75l-.04,1.04h.03c.44-.49.95-.86,1.63-.86,1.04,0,1.51.61,1.51,1.76v2.72h-.75v-2.62c0-.83-.29-1.21-1-1.21-.52,0-.87.26-1.38.78v3.05h-.75v-6.41Z"/>
      <path class="cls-7" d="M219.4,120.24h-2.03v-.6h2.77v4.38h-.75v-3.77ZM219.1,118.14c0-.34.25-.58.59-.58s.59.23.59.58-.25.58-.59.58-.59-.22-.59-.58Z"/>
      <path class="cls-7" d="M222.8,119.63h.61l.06.74h.04c.46-.48.96-.85,1.65-.85,1.04,0,1.51.61,1.51,1.76v2.72h-.75v-2.62c0-.83-.29-1.21-1-1.21-.52,0-.87.26-1.38.78v3.05h-.75v-4.38Z"/>
      <path class="cls-7" d="M227.9,121.83c0-1.47,1.01-2.3,2.16-2.3s2.16.84,2.16,2.3-1.01,2.29-2.16,2.29-2.16-.84-2.16-2.29ZM231.46,121.83c0-1.01-.56-1.68-1.4-1.68s-1.4.67-1.4,1.68.56,1.67,1.4,1.67,1.4-.67,1.4-1.67Z"/>
    </g>
    <g>
      <path class="cls-7" d="M39.06,154.31v-2.72h.75v2.62c0,.82.29,1.22,1.01,1.22.5,0,.87-.23,1.36-.8v-3.03h.75v4.38h-.62l-.06-.77h-.04c-.44.51-.95.87-1.63.87-1.04,0-1.51-.61-1.51-1.76Z"/>
      <path class="cls-7" d="M44.6,151.59h.61l.06.74h.04c.46-.48.96-.85,1.65-.85,1.04,0,1.51.61,1.51,1.76v2.72h-.75v-2.62c0-.83-.29-1.21-1-1.21-.52,0-.87.26-1.38.78v3.05h-.75v-4.38Z"/>
      <path class="cls-7" d="M49.88,154.83c0-.98.92-1.46,3.18-1.64-.03-.59-.32-1.1-1.16-1.1-.57,0-1.12.27-1.53.52l-.3-.5c.45-.29,1.19-.63,1.95-.63,1.2,0,1.78.71,1.78,1.8v2.68h-.62l-.06-.59h-.03c-.48.38-1.11.7-1.72.7-.82,0-1.49-.46-1.49-1.24ZM53.06,154.82v-1.13c-1.87.14-2.44.51-2.44,1.09,0,.5.45.69.95.69s.98-.23,1.49-.65Z"/>
      <path class="cls-7" d="M61.27,151.59h.62l.07,1.04h.02c.46-.71,1.14-1.14,1.95-1.14.32,0,.59.04.87.18l-.17.64c-.31-.1-.47-.14-.81-.14-.66,0-1.28.33-1.8,1.25v2.56h-.75v-4.38Z"/>
      <path class="cls-7" d="M66.08,154.83c0-.98.92-1.46,3.18-1.64-.03-.59-.31-1.1-1.16-1.1-.57,0-1.13.27-1.53.52l-.3-.5c.45-.29,1.19-.63,1.95-.63,1.2,0,1.78.71,1.78,1.8v2.68h-.62l-.06-.59h-.03c-.48.38-1.11.7-1.72.7-.82,0-1.49-.46-1.49-1.24ZM69.26,154.82v-1.13c-1.87.14-2.44.51-2.44,1.09,0,.5.45.69.95.69s.98-.23,1.49-.65Z"/>
      <path class="cls-7" d="M71.41,156.77c0-.35.25-.7.72-.97v-.04c-.23-.13-.45-.35-.45-.72,0-.28.19-.59.52-.82v-.04c-.3-.22-.54-.61-.54-1.13,0-.95.79-1.57,1.72-1.57.25,0,.46.04.65.11h1.81v.6h-1.13c.2.21.37.53.37.88,0,.94-.75,1.5-1.69,1.5-.22,0-.49-.05-.74-.16-.21.13-.34.3-.34.5,0,.34.33.5.91.5h.98c1.12,0,1.67.29,1.67,1.03,0,.82-.95,1.53-2.43,1.53-1.28,0-2.02-.44-2.02-1.22ZM75.13,156.57c0-.41-.33-.53-1-.53h-.86c-.25,0-.48-.02-.67-.07-.41.22-.56.48-.56.73,0,.46.5.75,1.43.75,1.02,0,1.65-.42,1.65-.87ZM74.39,153.05c0-.61-.45-1.03-1.01-1.03s-1.01.41-1.01,1.03.46,1.04,1.01,1.04,1.01-.41,1.01-1.04Z"/>
      <path class="cls-7" d="M76.88,154.83c0-.98.92-1.46,3.18-1.64-.03-.59-.32-1.1-1.16-1.1-.57,0-1.12.27-1.53.52l-.3-.5c.45-.29,1.19-.63,1.95-.63,1.2,0,1.78.71,1.78,1.8v2.68h-.62l-.06-.59h-.03c-.48.38-1.11.7-1.72.7-.82,0-1.5-.46-1.5-1.24ZM80.06,154.82v-1.13c-1.87.14-2.44.51-2.44,1.09,0,.5.45.69.95.69s.98-.23,1.49-.65Z"/>
      <path class="cls-7" d="M82.2,155.57l2.99-3.38h-2.66v-.6h3.73v.4l-2.99,3.37h3.07v.61h-4.14v-.4Z"/>
      <path class="cls-7" d="M87.6,155.57l2.99-3.38h-2.66v-.6h3.73v.4l-2.99,3.37h3.07v.61h-4.14v-.4Z"/>
      <path class="cls-7" d="M93.08,154.83c0-.98.92-1.46,3.18-1.64-.03-.59-.32-1.1-1.16-1.1-.57,0-1.12.27-1.53.52l-.3-.5c.45-.29,1.19-.63,1.95-.63,1.2,0,1.78.71,1.78,1.8v2.68h-.62l-.06-.59h-.03c-.48.38-1.11.7-1.72.7-.82,0-1.49-.46-1.49-1.24ZM96.26,154.82v-1.13c-1.87.14-2.44.51-2.44,1.09,0,.5.45.69.95.69s.98-.23,1.49-.65Z"/>
      <path class="cls-7" d="M103.88,153.79c0-1.47,1.12-2.3,2.44-2.3.71,0,1.23.29,1.59.64l-.37.48c-.36-.31-.74-.5-1.2-.5-1.01,0-1.7.67-1.7,1.68s.68,1.67,1.68,1.67c.54,0,.99-.24,1.35-.55l.33.49c-.49.43-1.09.68-1.74.68-1.37,0-2.39-.84-2.39-2.29Z"/>
      <path class="cls-7" d="M109.4,149.56h.75v1.75l-.04,1.04h.03c.44-.49.96-.86,1.63-.86,1.04,0,1.51.61,1.51,1.76v2.72h-.75v-2.62c0-.83-.29-1.21-1-1.21-.52,0-.87.26-1.38.78v3.05h-.75v-6.41Z"/>
      <path class="cls-7" d="M114.57,153.77c0-1.42,1.06-2.29,2.23-2.29,1.26,0,2,.82,2,2.05,0,.17-.02.33-.04.45h-3.7v-.58h3.26l-.19.21c0-1.04-.51-1.55-1.31-1.55s-1.51.61-1.51,1.7.74,1.71,1.71,1.71c.52,0,.94-.16,1.33-.41l.27.49c-.43.29-.99.52-1.69.52-1.31,0-2.36-.85-2.36-2.3Z"/>
      <path class="cls-7" d="M125.6,151.59h.61l.06.56h.03c.4-.39.98-.67,1.51-.67,1.18,0,1.81.87,1.81,2.23,0,1.49-.94,2.36-1.99,2.36-.41,0-.91-.21-1.31-.57h-.02l.04.83v1.48h-.75v-6.22ZM128.86,153.72c0-.96-.36-1.6-1.23-1.6-.39,0-.84.2-1.28.65v2.18c.4.37.86.5,1.16.5.78,0,1.35-.65,1.35-1.73Z"/>
      <path class="cls-7" d="M130.88,154.83c0-.98.92-1.46,3.18-1.64-.03-.59-.31-1.1-1.16-1.1-.57,0-1.13.27-1.53.52l-.3-.5c.45-.29,1.19-.63,1.95-.63,1.2,0,1.78.71,1.78,1.8v2.68h-.62l-.06-.59h-.03c-.48.38-1.11.7-1.72.7-.82,0-1.5-.46-1.5-1.24ZM134.06,154.82v-1.13c-1.87.14-2.44.51-2.44,1.09,0,.5.45.69.96.69s.98-.23,1.48-.65Z"/>
      <path class="cls-7" d="M136.87,151.59h.62l.07,1.04h.02c.46-.71,1.14-1.14,1.95-1.14.32,0,.59.04.86.18l-.17.64c-.31-.1-.47-.14-.81-.14-.66,0-1.28.33-1.8,1.25v2.56h-.75v-4.38Z"/>
      <path class="cls-7" d="M143.18,154.5v-4.34h-1.55v-.6h2.3v5c0,.63.34.9.86.9.25,0,.52-.06.82-.2l.19.56c-.4.17-.69.26-1.17.26-.94,0-1.45-.54-1.45-1.58Z"/>
      <path class="cls-7" d="M147.08,154.83c0-.98.92-1.46,3.18-1.64-.03-.59-.32-1.1-1.16-1.1-.57,0-1.12.27-1.53.52l-.3-.5c.45-.29,1.19-.63,1.95-.63,1.2,0,1.78.71,1.78,1.8v2.68h-.62l-.06-.59h-.03c-.48.38-1.11.7-1.72.7-.82,0-1.49-.46-1.49-1.24ZM150.26,154.82v-1.13c-1.87.14-2.44.51-2.44,1.09,0,.5.45.69.96.69s.98-.23,1.49-.65Z"/>
      <path class="cls-7" d="M157.88,154.83c0-.98.92-1.46,3.18-1.64-.03-.59-.32-1.1-1.16-1.1-.57,0-1.13.27-1.53.52l-.3-.5c.45-.29,1.19-.63,1.95-.63,1.2,0,1.78.71,1.78,1.8v2.68h-.62l-.06-.59h-.03c-.48.38-1.11.7-1.72.7-.82,0-1.5-.46-1.5-1.24ZM161.06,154.82v-1.13c-1.87.14-2.44.51-2.44,1.09,0,.5.45.69.96.69s.98-.23,1.49-.65Z"/>
      <path class="cls-7" d="M163.87,151.59h.62l.07,1.04h.02c.46-.71,1.14-1.14,1.95-1.14.32,0,.59.04.86.18l-.17.64c-.31-.1-.47-.14-.81-.14-.66,0-1.28.33-1.8,1.25v2.56h-.75v-4.38Z"/>
      <path class="cls-7" d="M168.68,154.83c0-.98.92-1.46,3.18-1.64-.03-.59-.32-1.1-1.16-1.1-.57,0-1.12.27-1.53.52l-.3-.5c.45-.29,1.19-.63,1.95-.63,1.2,0,1.78.71,1.78,1.8v2.68h-.62l-.06-.59h-.03c-.48.38-1.11.7-1.72.7-.82,0-1.49-.46-1.49-1.24ZM171.86,154.82v-1.13c-1.87.14-2.44.51-2.44,1.09,0,.5.45.69.96.69s.98-.23,1.49-.65Z"/>
      <path class="cls-7" d="M174.89,155.48h-.03l-.07.49h-.59v-6.41h.75v1.75l-.04.85h.03c.4-.41.95-.67,1.47-.67,1.18,0,1.82.87,1.82,2.22,0,1.49-.94,2.37-1.97,2.37-.43,0-.95-.22-1.36-.59ZM177.46,153.72c0-.96-.36-1.6-1.23-1.6-.39,0-.84.2-1.28.65v2.18c.41.37.87.5,1.18.5.76,0,1.33-.65,1.33-1.73Z"/>
      <path class="cls-7" d="M179.3,153.79c0-1.47,1.01-2.3,2.16-2.3s2.16.84,2.16,2.3-1.01,2.29-2.16,2.29-2.16-.84-2.16-2.29ZM182.86,153.79c0-1.01-.56-1.68-1.4-1.68s-1.4.67-1.4,1.68.56,1.67,1.4,1.67,1.4-.67,1.4-1.67Z"/>
      <path class="cls-7" d="M190.08,151.59h.59l.06.58h.02c.23-.4.5-.68,1-.68.43,0,.7.25.83.76.25-.47.52-.76,1.03-.76.61,0,.97.48.97,1.35v3.13h-.74v-3.08c0-.5-.14-.77-.47-.77-.31,0-.47.23-.7.68v3.17h-.68v-3.08c0-.5-.13-.77-.45-.77-.31,0-.5.23-.72.68v3.17h-.74v-4.38Z"/>
      <path class="cls-7" d="M195.68,154.83c0-.98.92-1.46,3.18-1.64-.03-.59-.32-1.1-1.16-1.1-.57,0-1.12.27-1.53.52l-.3-.5c.45-.29,1.19-.63,1.95-.63,1.2,0,1.78.71,1.78,1.8v2.68h-.62l-.06-.59h-.03c-.48.38-1.11.7-1.72.7-.82,0-1.49-.46-1.49-1.24ZM198.86,154.82v-1.13c-1.87.14-2.44.51-2.44,1.09,0,.5.45.69.96.69s.98-.23,1.49-.65Z"/>
      <path class="cls-7" d="M201.66,151.59h.62l.07,1.04h.02c.46-.71,1.14-1.14,1.95-1.14.32,0,.59.04.86.18l-.17.64c-.31-.1-.47-.14-.81-.14-.66,0-1.28.33-1.8,1.25v2.56h-.75v-4.38Z"/>
      <path class="cls-7" d="M206.3,153.79c0-1.47,1.01-2.3,2.16-2.3s2.16.84,2.16,2.3-1.01,2.29-2.16,2.29-2.16-.84-2.16-2.29ZM209.86,153.79c0-1.01-.56-1.68-1.4-1.68s-1.4.67-1.4,1.68.56,1.67,1.4,1.67,1.4-.67,1.4-1.67Z"/>
      <path class="cls-7" d="M211.88,153.79c0-1.47,1.12-2.3,2.44-2.3.71,0,1.23.29,1.59.64l-.37.48c-.36-.31-.74-.5-1.2-.5-1.01,0-1.7.67-1.7,1.68s.68,1.67,1.68,1.67c.54,0,.99-.24,1.35-.55l.33.49c-.49.43-1.09.68-1.74.68-1.37,0-2.39-.84-2.39-2.29Z"/>
      <path class="cls-7" d="M217.28,153.79c0-1.47,1.12-2.3,2.44-2.3.71,0,1.23.29,1.59.64l-.37.48c-.36-.31-.74-.5-1.2-.5-1.01,0-1.7.67-1.7,1.68s.68,1.67,1.68,1.67c.54,0,.99-.24,1.35-.55l.33.49c-.49.43-1.09.68-1.74.68-1.37,0-2.39-.84-2.39-2.29Z"/>
      <path class="cls-7" d="M222.8,149.56h.75v1.75l-.04,1.04h.03c.44-.49.95-.86,1.63-.86,1.04,0,1.51.61,1.51,1.76v2.72h-.75v-2.62c0-.83-.29-1.21-1-1.21-.52,0-.87.26-1.38.78v3.05h-.75v-6.41Z"/>
      <path class="cls-7" d="M230.19,152.2h-2.03v-.6h2.77v4.38h-.75v-3.77ZM229.9,150.1c0-.34.25-.58.59-.58s.59.23.59.58-.25.58-.59.58-.59-.22-.59-.58Z"/>
      <path class="cls-7" d="M233.6,151.59h.61l.06.74h.04c.46-.48.96-.85,1.65-.85,1.04,0,1.51.61,1.51,1.76v2.72h-.75v-2.62c0-.83-.29-1.21-1-1.21-.52,0-.87.26-1.38.78v3.05h-.75v-4.38Z"/>
      <path class="cls-7" d="M238.7,153.79c0-1.47,1.01-2.3,2.16-2.3s2.16.84,2.16,2.3-1.01,2.29-2.16,2.29-2.16-.84-2.16-2.29ZM242.26,153.79c0-1.01-.56-1.68-1.4-1.68s-1.4.67-1.4,1.68.56,1.67,1.4,1.67,1.4-.67,1.4-1.67Z"/>
    </g>
  </g>
  <g id="rettangoli_rossi_sulle_carte" data-name="rettangoli rossi sulle carte">
    <rect class="cls-9" x="203.54" y="20.41" width="66.94" height="12.96" rx="1.86" ry="1.86"/>
    <rect class="cls-9" x="124.44" y="46.97" width="146.04" height="12.96" rx="1.86" ry="1.86"/>
  </g>
  <g id="DOMANDE">
    <g>
      <path class="cls-7" d="M109.25,15.91c0-1.2,1.12-1.78,3.88-2-.03-.73-.39-1.34-1.42-1.34-.69,0-1.38.33-1.87.64l-.36-.62c.55-.35,1.45-.77,2.39-.77,1.46,0,2.18.87,2.18,2.2v3.28h-.76l-.08-.73h-.03c-.58.46-1.35.86-2.1.86-1,0-1.83-.56-1.83-1.52ZM113.13,15.9v-1.39c-2.29.18-2.98.63-2.98,1.33,0,.6.55.85,1.17.85s1.2-.29,1.82-.79Z"/>
      <path class="cls-7" d="M115.75,16.59l.42-.6c.62.44,1.34.73,2.32.73.9,0,1.34-.37,1.34-.83,0-.41-.21-.69-1.66-.99-1.4-.29-2.09-.76-2.09-1.56,0-.86.76-1.52,2.22-1.52.81,0,1.63.32,2.16.68l-.44.58c-.49-.34-1.11-.56-1.79-.56-.9,0-1.23.36-1.23.77,0,.46.46.66,1.56.89,1.77.38,2.2.83,2.2,1.65,0,.87-.85,1.6-2.38,1.6-1.04,0-1.98-.38-2.63-.84Z"/>
      <path class="cls-7" d="M122.45,14.63c0-1.79,1.36-2.82,2.98-2.82.87,0,1.51.35,1.95.78l-.45.58c-.44-.37-.9-.6-1.46-.6-1.23,0-2.08.83-2.08,2.06s.84,2.04,2.06,2.04c.66,0,1.21-.3,1.65-.67l.41.59c-.59.53-1.33.84-2.12.84-1.67,0-2.93-1.02-2.93-2.79Z"/>
      <path class="cls-7" d="M128.83,14.63c0-1.79,1.23-2.82,2.64-2.82s2.64,1.02,2.64,2.82-1.23,2.79-2.64,2.79-2.64-1.02-2.64-2.79ZM133.18,14.63c0-1.23-.68-2.06-1.71-2.06s-1.71.83-1.71,2.06.68,2.04,1.71,2.04,1.71-.81,1.71-2.04Z"/>
      <path class="cls-7" d="M137.48,15.5v-5.3h-1.89v-.74h2.81v6.11c0,.77.42,1.1,1.06,1.1.31,0,.64-.08,1-.24l.23.68c-.49.21-.85.32-1.43.32-1.14,0-1.77-.66-1.77-1.93Z"/>
      <path class="cls-7" d="M143.64,15.21v-2.53h-1.52v-.68l1.55-.05.12-1.72h.76v1.72h2.62v.74h-2.62v2.54c0,.96.32,1.45,1.35,1.45.5,0,.89-.1,1.28-.24l.2.67c-.48.18-1,.32-1.67.32-1.56,0-2.07-.89-2.07-2.21Z"/>
      <path class="cls-7" d="M148.85,15.91c0-1.2,1.12-1.78,3.88-2-.03-.73-.38-1.34-1.42-1.34-.69,0-1.38.33-1.87.64l-.36-.62c.55-.35,1.45-.77,2.39-.77,1.46,0,2.18.87,2.18,2.2v3.28h-.76l-.08-.73h-.03c-.58.46-1.35.86-2.1.86-1,0-1.83-.56-1.83-1.52ZM152.73,15.9v-1.39c-2.29.18-2.98.63-2.98,1.33,0,.6.55.85,1.17.85s1.2-.29,1.82-.79Z"/>
      <path class="cls-7" d="M162.05,14.63c0-1.79,1.36-2.82,2.98-2.82.87,0,1.51.35,1.95.78l-.45.58c-.44-.37-.9-.6-1.46-.6-1.23,0-2.08.83-2.08,2.06s.84,2.04,2.06,2.04c.66,0,1.21-.3,1.65-.67l.41.59c-.59.53-1.33.84-2.12.84-1.67,0-2.93-1.02-2.93-2.79Z"/>
      <path class="cls-7" d="M168.43,14.63c0-1.79,1.23-2.82,2.64-2.82s2.64,1.02,2.64,2.82-1.23,2.79-2.64,2.79-2.64-1.02-2.64-2.79ZM172.78,14.63c0-1.23-.68-2.06-1.71-2.06s-1.71.83-1.71,2.06.68,2.04,1.71,2.04,1.71-.81,1.71-2.04Z"/>
      <path class="cls-7" d="M175.39,11.95h.75l.08.9h.04c.56-.58,1.18-1.03,2.01-1.03,1.27,0,1.85.75,1.85,2.16v3.32h-.91v-3.2c0-1.01-.35-1.48-1.22-1.48-.64,0-1.07.32-1.68.96v3.73h-.91v-5.35Z"/>
      <path class="cls-7" d="M188.45,15.91c0-1.2,1.12-1.78,3.88-2-.03-.73-.38-1.34-1.42-1.34-.69,0-1.38.33-1.87.64l-.36-.62c.55-.35,1.45-.77,2.39-.77,1.46,0,2.18.87,2.18,2.2v3.28h-.76l-.08-.73h-.03c-.58.46-1.35.86-2.1.86-1,0-1.83-.56-1.83-1.52ZM192.33,15.9v-1.39c-2.29.18-2.98.63-2.98,1.33,0,.6.55.85,1.17.85s1.2-.29,1.82-.79Z"/>
      <path class="cls-7" d="M196.44,15.21v-2.53h-1.52v-.68l1.55-.05.12-1.72h.76v1.72h2.62v.74h-2.62v2.54c0,.96.32,1.45,1.35,1.45.5,0,.89-.1,1.28-.24l.2.67c-.48.18-1,.32-1.67.32-1.56,0-2.07-.89-2.07-2.21Z"/>
      <path class="cls-7" d="M203.04,15.21v-2.53h-1.52v-.68l1.55-.05.12-1.72h.76v1.72h2.62v.74h-2.62v2.54c0,.96.32,1.45,1.35,1.45.5,0,.89-.1,1.28-.24l.2.67c-.48.18-1,.32-1.67.32-1.56,0-2.07-.89-2.07-2.21Z"/>
      <path class="cls-7" d="M208.12,14.61c0-1.74,1.3-2.79,2.73-2.79,1.54,0,2.44,1,2.44,2.51,0,.21-.02.41-.04.55h-4.52v-.7h3.98l-.23.25c0-1.27-.63-1.89-1.61-1.89s-1.85.75-1.85,2.08.9,2.09,2.09,2.09c.64,0,1.14-.2,1.63-.51l.33.59c-.53.35-1.21.64-2.07.64-1.61,0-2.88-1.03-2.88-2.82Z"/>
      <path class="cls-7" d="M214.99,11.95h.75l.08.9h.04c.56-.58,1.18-1.03,2.01-1.03,1.27,0,1.85.75,1.85,2.16v3.32h-.91v-3.2c0-1.01-.35-1.48-1.22-1.48-.64,0-1.07.32-1.68.96v3.73h-.91v-5.35Z"/>
      <path class="cls-7" d="M221.35,16.81l3.65-4.13h-3.25v-.74h4.55v.48l-3.65,4.11h3.75v.75h-5.06v-.48Z"/>
      <path class="cls-7" d="M230.63,12.68h-2.48v-.74h3.39v5.35h-.91v-4.61ZM230.27,10.12c0-.42.31-.7.73-.7s.73.29.73.7-.31.7-.73.7-.73-.28-.73-.7Z"/>
      <path class="cls-7" d="M234.43,14.63c0-1.79,1.23-2.82,2.64-2.82s2.64,1.02,2.64,2.82-1.23,2.79-2.64,2.79-2.64-1.02-2.64-2.79ZM238.77,14.63c0-1.23-.68-2.06-1.71-2.06s-1.71.83-1.71,2.06.68,2.04,1.71,2.04,1.71-.81,1.71-2.04Z"/>
      <path class="cls-7" d="M241.39,11.95h.75l.08.9h.04c.56-.58,1.18-1.03,2.01-1.03,1.27,0,1.85.75,1.85,2.16v3.32h-.91v-3.2c0-1.01-.35-1.48-1.22-1.48-.64,0-1.07.32-1.68.96v3.73h-.91v-5.35Z"/>
      <path class="cls-7" d="M247.71,14.61c0-1.74,1.3-2.79,2.73-2.79,1.54,0,2.44,1,2.44,2.51,0,.21-.02.41-.04.55h-4.52v-.7h3.98l-.23.25c0-1.27-.63-1.89-1.61-1.89s-1.85.75-1.85,2.08.9,2.09,2.09,2.09c.64,0,1.14-.2,1.63-.51l.33.59c-.53.35-1.21.64-2.07.64-1.61,0-2.88-1.03-2.88-2.82Z"/>
      <path class="cls-7" d="M260.91,14.61c0-1.74,1.3-2.79,2.73-2.79,1.54,0,2.44,1,2.44,2.51,0,.21-.02.41-.04.55h-4.52v-.7h3.98l-.23.25c0-1.27-.63-1.89-1.61-1.89s-1.85.75-1.85,2.08.9,2.09,2.09,2.09c.64,0,1.14-.2,1.63-.51l.33.59c-.53.35-1.21.64-2.07.64-1.61,0-2.88-1.03-2.88-2.82Z"/>
      <path class="cls-7" d="M144.83,25.88h-2.48v-.74h3.39v5.35h-.91v-4.61ZM144.47,23.32c0-.42.31-.7.73-.7s.73.29.73.7-.31.7-.73.7-.73-.28-.73-.7Z"/>
      <path class="cls-7" d="M148.99,25.15h.75l.08.9h.04c.56-.58,1.18-1.03,2.01-1.03,1.27,0,1.85.75,1.85,2.16v3.32h-.91v-3.2c0-1.01-.35-1.48-1.22-1.48-.64,0-1.07.32-1.68.96v3.73h-.91v-5.35Z"/>
      <path class="cls-7" d="M155.23,27.83c0-1.74,1.15-2.82,2.42-2.82.64,0,1.13.25,1.61.68h.02l-.04-.98v-2.06h.91v7.83h-.75l-.08-.7h-.03c-.44.45-1.08.84-1.75.84-1.39,0-2.31-1.01-2.31-2.79ZM159.23,29.06v-2.66c-.48-.45-.94-.62-1.4-.62-.92,0-1.67.81-1.67,2.04s.59,2.04,1.57,2.04c.53,0,1.02-.26,1.5-.79Z"/>
      <path class="cls-7" d="M161.83,27.83c0-1.79,1.23-2.82,2.64-2.82s2.64,1.02,2.64,2.82-1.23,2.79-2.64,2.79-2.64-1.02-2.64-2.79ZM166.18,27.83c0-1.23-.68-2.06-1.71-2.06s-1.71.83-1.71,2.06.68,2.04,1.71,2.04,1.71-.81,1.71-2.04Z"/>
      <path class="cls-7" d="M168.32,25.15h.94l1.23,3.03c.21.54.41,1.07.59,1.58h.04c.19-.52.36-1.04.58-1.58l1.23-3.03h.88l-2.22,5.35h-1.02l-2.25-5.35Z"/>
      <path class="cls-7" d="M177.84,25.88h-2.48v-.74h3.39v5.35h-.91v-4.61ZM177.47,23.32c0-.42.31-.7.73-.7s.73.29.73.7-.31.7-.73.7-.73-.28-.73-.7Z"/>
      <path class="cls-7" d="M181.99,25.15h.75l.08.9h.04c.56-.58,1.18-1.03,2.01-1.03,1.27,0,1.85.75,1.85,2.16v3.32h-.91v-3.2c0-1.01-.35-1.48-1.22-1.48-.64,0-1.07.32-1.68.96v3.73h-.91v-5.35Z"/>
      <path class="cls-7" d="M188.45,29.11c0-1.2,1.12-1.78,3.88-2-.03-.73-.38-1.34-1.42-1.34-.69,0-1.38.33-1.87.64l-.36-.62c.55-.35,1.45-.77,2.39-.77,1.46,0,2.18.87,2.18,2.2v3.28h-.76l-.08-.73h-.03c-.58.46-1.35.86-2.1.86-1,0-1.83-.56-1.83-1.52ZM192.33,29.1v-1.39c-2.29.18-2.98.63-2.98,1.33,0,.6.55.85,1.17.85s1.2-.29,1.82-.79Z"/>
      <path class="cls-2" d="M208.08,26.88c0-2.32,1.35-3.74,3.23-3.74.87,0,1.55.42,1.98.88l-.53.58c-.37-.4-.85-.65-1.45-.65-1.38,0-2.28,1.11-2.28,2.9s.9,2.95,2.28,2.95c.66,0,1.17-.29,1.62-.79l.53.56c-.56.66-1.28,1.04-2.23,1.04-1.78,0-3.15-1.39-3.15-3.74Z"/>
      <path class="cls-2" d="M214.84,23.28h.94v3.01h2.99v-3.01h.93v7.22h-.93v-3.39h-2.99v3.39h-.94v-7.22Z"/>
      <path class="cls-2" d="M221.61,29.71h1.79v-5.65h-1.79v-.78h4.51v.78h-1.79v5.65h1.79v.78h-4.51v-.78Z"/>
      <path class="cls-2" d="M234.89,23.28h2.18c1.59,0,2.67.54,2.67,2.12s-1.09,2.23-2.67,2.23h-1.25v2.86h-.92v-7.22ZM236.96,26.88c1.25,0,1.86-.46,1.86-1.49s-.62-1.38-1.86-1.38h-1.14v2.86h1.14Z"/>
      <path class="cls-2" d="M243.14,23.28h1.06l2.43,7.22h-.99l-1.24-4.03c-.25-.8-.5-1.6-.71-2.43h-.04c-.23.84-.46,1.63-.71,2.43l-1.27,4.03h-.95l2.43-7.22ZM241.99,27.56h3.31v.75h-3.31v-.75Z"/>
      <path class="cls-2" d="M248.05,23.28h2.26c1.46,0,2.53.53,2.53,2.04s-1.07,2.13-2.53,2.13h-1.32v3.05h-.94v-7.22ZM250.18,26.7c1.12,0,1.74-.46,1.74-1.39s-.62-1.29-1.74-1.29h-1.19v2.67h1.19ZM250.85,26.71l2.2,3.78h-1.04l-1.88-3.3.73-.48Z"/>
      <path class="cls-2" d="M255.04,23.28h.91v6.44h3.56v.78h-4.48v-7.22Z"/>
      <path class="cls-2" d="M262.94,23.28h1.06l2.43,7.22h-.99l-1.24-4.03c-.25-.8-.5-1.6-.71-2.43h-.04c-.23.84-.46,1.63-.71,2.43l-1.27,4.03h-.95l2.43-7.22ZM261.79,27.56h3.31v.75h-3.31v-.75Z"/>
      <path class="cls-7" d="M105.23,39.08h-2.48v-.74h3.39v5.35h-.91v-4.61ZM104.87,36.52c0-.42.31-.7.73-.7s.73.29.73.7-.31.7-.73.7-.73-.28-.73-.7Z"/>
      <path class="cls-7" d="M109.39,38.35h.75l.08.9h.04c.56-.58,1.18-1.03,2.01-1.03,1.27,0,1.85.75,1.85,2.16v3.32h-.91v-3.2c0-1.01-.35-1.48-1.22-1.48-.64,0-1.07.32-1.68.96v3.73h-.91v-5.35Z"/>
      <path class="cls-7" d="M126.23,44l.04-.99h-.02c-.44.45-1.06.81-1.72.81-1.39,0-2.31-1.01-2.31-2.79s1.16-2.82,2.42-2.82c.65,0,1.16.25,1.65.73h.03l.09-.59h.73v7.6h-.91v-1.95ZM126.23,42.26v-2.66c-.48-.45-.93-.62-1.4-.62-.92,0-1.67.81-1.67,2.04s.59,2.03,1.57,2.03c.53,0,1.02-.26,1.5-.79Z"/>
      <path class="cls-7" d="M129.02,41.67v-3.32h.91v3.2c0,1,.35,1.49,1.23,1.49.62,0,1.07-.29,1.66-.98v-3.71h.91v5.35h-.76l-.08-.94h-.04c-.54.63-1.17,1.07-1.99,1.07-1.26,0-1.85-.75-1.85-2.16Z"/>
      <path class="cls-7" d="M135.52,41.01c0-1.74,1.3-2.79,2.73-2.79,1.54,0,2.44,1,2.44,2.51,0,.21-.02.41-.04.55h-4.52v-.7h3.98l-.23.25c0-1.27-.63-1.89-1.61-1.89s-1.85.75-1.85,2.08.9,2.09,2.09,2.09c.64,0,1.14-.2,1.63-.51l.33.59c-.53.35-1.21.64-2.07.64-1.61,0-2.88-1.03-2.88-2.82Z"/>
      <path class="cls-7" d="M142.15,42.99l.42-.61c.62.44,1.34.73,2.32.73.9,0,1.34-.37,1.34-.83,0-.41-.21-.69-1.66-.99-1.4-.29-2.09-.76-2.09-1.56,0-.86.76-1.52,2.22-1.52.81,0,1.63.32,2.16.68l-.44.58c-.49-.34-1.11-.56-1.79-.56-.9,0-1.23.36-1.23.77,0,.46.46.66,1.56.89,1.77.38,2.2.82,2.2,1.65,0,.87-.85,1.6-2.38,1.6-1.04,0-1.98-.38-2.63-.84Z"/>
      <path class="cls-7" d="M150.24,41.61v-2.53h-1.52v-.68l1.55-.05.12-1.72h.76v1.72h2.62v.74h-2.62v2.54c0,.96.32,1.45,1.35,1.45.49,0,.89-.1,1.28-.24l.2.67c-.48.18-1,.32-1.67.32-1.56,0-2.07-.89-2.07-2.21Z"/>
      <path class="cls-7" d="M155.45,42.31c0-1.2,1.12-1.78,3.88-2-.03-.73-.38-1.34-1.42-1.34-.69,0-1.38.33-1.87.64l-.36-.62c.55-.35,1.45-.77,2.39-.77,1.46,0,2.18.87,2.18,2.2v3.28h-.76l-.08-.73h-.03c-.58.46-1.35.86-2.1.86-1,0-1.83-.56-1.83-1.52ZM159.33,42.29v-1.39c-2.29.18-2.98.63-2.98,1.33,0,.6.55.85,1.17.85s1.2-.29,1.81-.79Z"/>
      <path class="cls-7" d="M168.65,41.03c0-1.79,1.36-2.82,2.98-2.82.87,0,1.51.35,1.95.78l-.45.58c-.44-.37-.9-.6-1.46-.6-1.23,0-2.08.83-2.08,2.06s.84,2.04,2.06,2.04c.66,0,1.21-.3,1.65-.67l.41.59c-.59.53-1.33.84-2.12.84-1.67,0-2.93-1.02-2.93-2.79Z"/>
      <path class="cls-7" d="M175.03,41.03c0-1.79,1.23-2.82,2.64-2.82s2.64,1.02,2.64,2.82-1.23,2.79-2.64,2.79-2.64-1.02-2.64-2.79ZM179.38,41.03c0-1.23-.68-2.06-1.71-2.06s-1.71.83-1.71,2.06.68,2.04,1.71,2.04,1.71-.81,1.71-2.04Z"/>
      <path class="cls-7" d="M181.99,38.35h.75l.08.9h.04c.56-.58,1.18-1.03,2.01-1.03,1.27,0,1.85.75,1.85,2.16v3.32h-.91v-3.2c0-1.01-.35-1.48-1.22-1.48-.64,0-1.07.32-1.68.96v3.73h-.91v-5.35Z"/>
      <path class="cls-7" d="M188.12,38.35h.94l1.23,3.03c.21.54.41,1.07.59,1.58h.04c.19-.52.36-1.04.58-1.58l1.23-3.03h.88l-2.22,5.35h-1.02l-2.26-5.35Z"/>
      <path class="cls-7" d="M194.92,41.01c0-1.74,1.3-2.79,2.73-2.79,1.54,0,2.44,1,2.44,2.51,0,.21-.02.41-.04.55h-4.52v-.7h3.98l-.23.25c0-1.27-.63-1.89-1.61-1.89s-1.85.75-1.85,2.08.9,2.09,2.09,2.09c.64,0,1.14-.2,1.63-.51l.33.59c-.53.35-1.21.64-2.07.64-1.61,0-2.88-1.03-2.88-2.82Z"/>
      <path class="cls-7" d="M202.36,38.35h.76l.09,1.27h.02c.56-.87,1.4-1.4,2.39-1.4.4,0,.73.06,1.06.22l-.21.78c-.37-.12-.57-.18-.99-.18-.8,0-1.56.41-2.2,1.53v3.12h-.91v-5.35Z"/>
      <path class="cls-7" d="M208.15,42.99l.42-.61c.62.44,1.34.73,2.32.73.9,0,1.34-.37,1.34-.83,0-.41-.21-.69-1.66-.99-1.4-.29-2.09-.76-2.09-1.56,0-.86.76-1.52,2.22-1.52.81,0,1.63.32,2.16.68l-.44.58c-.5-.34-1.11-.56-1.79-.56-.9,0-1.23.36-1.23.77,0,.46.46.66,1.56.89,1.77.38,2.2.82,2.2,1.65,0,.87-.85,1.6-2.38,1.6-1.04,0-1.98-.38-2.63-.84Z"/>
      <path class="cls-7" d="M214.85,42.31c0-1.2,1.12-1.78,3.88-2-.03-.73-.38-1.34-1.42-1.34-.69,0-1.38.33-1.87.64l-.36-.62c.55-.35,1.45-.77,2.39-.77,1.46,0,2.18.87,2.18,2.2v3.28h-.76l-.08-.73h-.03c-.58.46-1.35.86-2.1.86-1,0-1.83-.56-1.83-1.52ZM218.73,42.29v-1.39c-2.29.18-2.98.63-2.98,1.33,0,.6.55.85,1.17.85s1.2-.29,1.82-.79Z"/>
      <path class="cls-7" d="M221.35,43.21l3.65-4.13h-3.25v-.74h4.55v.48l-3.65,4.11h3.75v.75h-5.06v-.48Z"/>
      <path class="cls-7" d="M230.63,39.08h-2.48v-.74h3.39v5.35h-.91v-4.61ZM230.27,36.52c0-.42.31-.7.73-.7s.73.29.73.7-.31.7-.73.7-.73-.28-.73-.7Z"/>
      <path class="cls-7" d="M234.43,41.03c0-1.79,1.23-2.82,2.64-2.82s2.64,1.02,2.64,2.82-1.23,2.79-2.64,2.79-2.64-1.02-2.64-2.79ZM238.77,41.03c0-1.23-.68-2.06-1.71-2.06s-1.71.83-1.71,2.06.68,2.04,1.71,2.04,1.71-.81,1.71-2.04Z"/>
      <path class="cls-7" d="M241.39,38.35h.75l.08.9h.04c.56-.58,1.18-1.03,2.01-1.03,1.27,0,1.85.75,1.85,2.16v3.32h-.91v-3.2c0-1.01-.35-1.48-1.22-1.48-.64,0-1.07.32-1.68.96v3.73h-.91v-5.35Z"/>
      <path class="cls-7" d="M247.71,41.01c0-1.74,1.3-2.79,2.73-2.79,1.54,0,2.44,1,2.44,2.51,0,.21-.02.41-.04.55h-4.52v-.7h3.98l-.23.25c0-1.27-.63-1.89-1.61-1.89s-1.85.75-1.85,2.08.9,2.09,2.09,2.09c.64,0,1.14-.2,1.63-.51l.33.59c-.53.35-1.21.64-2.07.64-1.61,0-2.88-1.03-2.88-2.82Z"/>
      <path class="cls-7" d="M260.91,41.01c0-1.74,1.3-2.79,2.73-2.79,1.54,0,2.44,1,2.44,2.51,0,.21-.02.41-.04.55h-4.52v-.7h3.98l-.23.25c0-1.27-.63-1.89-1.61-1.89s-1.85.75-1.85,2.08.9,2.09,2.09,2.09c.64,0,1.14-.2,1.63-.51l.33.59c-.53.35-1.21.64-2.07.64-1.61,0-2.88-1.03-2.88-2.82Z"/>
      <path class="cls-2" d="M129.21,56.11h1.79v-5.66h-1.79v-.78h4.51v.78h-1.79v5.66h1.79v.78h-4.51v-.78Z"/>
      <path class="cls-2" d="M135.67,49.67h1.01l2.31,4.53.69,1.5h.02c-.03-.71-.12-1.53-.12-2.29v-3.74h.88v7.22h-1.01l-2.31-4.53-.69-1.5h-.02c.03.74.12,1.51.12,2.26v3.77h-.88v-7.22Z"/>
      <path class="cls-2" d="M148.5,53.25c0-2.33,1.14-3.71,2.77-3.71s2.77,1.38,2.77,3.71-1.14,3.77-2.77,3.77-2.77-1.41-2.77-3.77ZM153.09,53.25c0-1.82-.73-2.89-1.82-2.89s-1.82,1.08-1.82,2.89c0,1.91.73,3,1.82,3s1.82-1.09,1.82-3ZM150.79,56.9l.97-.08c.21.71.81,1.07,1.62,1.07.22,0,.4-.04.54-.1l.17.74c-.23.09-.5.15-.81.15-1.31,0-2.12-.77-2.47-1.78Z"/>
      <path class="cls-2" d="M155.44,54.16v-4.49h.94v4.51c0,1.49.65,2.02,1.51,2.02s1.53-.54,1.53-2.02v-4.51h.89v4.49c0,2.07-1.01,2.86-2.42,2.86s-2.44-.79-2.44-2.86Z"/>
      <path class="cls-2" d="M163.94,49.67h1.06l2.43,7.22h-.99l-1.24-4.03c-.25-.8-.5-1.6-.71-2.43h-.04c-.23.84-.46,1.63-.71,2.43l-1.27,4.03h-.95l2.43-7.22ZM162.8,53.95h3.31v.75h-3.31v-.75Z"/>
      <path class="cls-2" d="M169.24,49.67h.91v6.44h3.56v.78h-4.48v-7.22Z"/>
      <path class="cls-2" d="M175.62,49.67h4.47v.78h-3.54v2.26h2.99v.78h-2.99v2.62h3.65v.78h-4.58v-7.22Z"/>
      <path class="cls-2" d="M189.04,49.67h.91v6.44h3.56v.78h-4.48v-7.22Z"/>
      <path class="cls-2" d="M195.21,56.11h1.79v-5.66h-1.79v-.78h4.51v.78h-1.79v5.66h1.79v.78h-4.51v-.78Z"/>
      <path class="cls-2" d="M201.67,49.67h1.01l2.31,4.53.69,1.5h.02c-.03-.71-.12-1.53-.12-2.29v-3.74h.88v7.22h-1.01l-2.31-4.53-.69-1.5h-.02c.03.74.12,1.51.12,2.26v3.77h-.88v-7.22Z"/>
      <path class="cls-2" d="M207.95,53.28c0-2.33,1.33-3.74,3.2-3.74.96,0,1.58.45,1.99.88l-.53.58c-.34-.36-.77-.65-1.46-.65-1.35,0-2.23,1.11-2.23,2.9s.8,2.95,2.21,2.95c.51,0,.98-.15,1.24-.42v-1.88h-1.43v-.76h2.29v3.04c-.45.46-1.22.84-2.16.84-1.82,0-3.12-1.39-3.12-3.74Z"/>
      <path class="cls-2" d="M214.84,54.16v-4.49h.94v4.51c0,1.49.65,2.02,1.51,2.02s1.53-.54,1.53-2.02v-4.51h.89v4.49c0,2.07-1.01,2.86-2.42,2.86s-2.44-.79-2.44-2.86Z"/>
      <path class="cls-2" d="M223.34,49.67h1.06l2.43,7.22h-.99l-1.24-4.03c-.25-.8-.5-1.6-.71-2.43h-.04c-.23.84-.46,1.63-.71,2.43l-1.27,4.03h-.95l2.43-7.22ZM222.19,53.95h3.31v.75h-3.31v-.75Z"/>
      <path class="cls-2" d="M234.89,49.67h2.18c1.59,0,2.67.54,2.67,2.12s-1.09,2.23-2.67,2.23h-1.25v2.86h-.92v-7.22ZM236.96,53.28c1.25,0,1.86-.46,1.86-1.49s-.62-1.38-1.86-1.38h-1.14v2.86h1.14Z"/>
      <path class="cls-2" d="M243.14,49.67h1.06l2.43,7.22h-.99l-1.24-4.03c-.25-.8-.5-1.6-.71-2.43h-.04c-.23.84-.46,1.63-.71,2.43l-1.27,4.03h-.95l2.43-7.22ZM241.99,53.95h3.31v.75h-3.31v-.75Z"/>
      <path class="cls-2" d="M248.05,49.67h2.26c1.46,0,2.53.53,2.53,2.04s-1.07,2.13-2.53,2.13h-1.32v3.05h-.94v-7.22ZM250.18,53.1c1.12,0,1.74-.46,1.74-1.39s-.62-1.29-1.74-1.29h-1.19v2.67h1.19ZM250.85,53.11l2.2,3.79h-1.04l-1.88-3.3.73-.48Z"/>
      <path class="cls-2" d="M255.04,49.67h.91v6.44h3.56v.78h-4.48v-7.22Z"/>
      <path class="cls-2" d="M262.94,49.67h1.06l2.43,7.22h-.99l-1.24-4.03c-.25-.8-.5-1.6-.71-2.43h-.04c-.23.84-.46,1.63-.71,2.43l-1.27,4.03h-.95l2.43-7.22ZM261.79,53.95h3.31v.75h-3.31v-.75Z"/>
    </g>
  </g>
  <g id="numeri_carte" data-name="numeri carte">
    <g>
      <path class="cls-7" d="M261.81,180.74c2.16-1.91,3.34-3.03,3.34-4.09,0-.73-.44-1.24-1.38-1.24-.6,0-1.12.34-1.53.76l-.48-.47c.58-.58,1.21-.97,2.11-.97,1.28,0,2.08.75,2.08,1.88,0,1.2-1.2,2.39-2.93,3.96.4-.03.81-.05,1.19-.05h2.09v.71h-4.49v-.49Z"/>
      <path class="cls-7" d="M268.05,180.54h1.84v-4.68h-1.43v-.54c.75-.1,1.23-.25,1.64-.47h.62v5.69h1.66v.69h-4.33v-.69Z"/>
    </g>
  </g>
</svg>