<?xml version="1.0" encoding="UTF-8"?>
<svg id="Livello_2" data-name="Livello 2" xmlns="http://www.w3.org/2000/svg" viewBox="0 0 276.15 188.11">
  <defs>
    <style>
      .cls-1 {
        stroke: #e52421;
      }

      .cls-1, .cls-2, .cls-3, .cls-4 {
        fill: #fff;
      }

      .cls-1, .cls-4, .cls-5 {
        stroke-miterlimit: 10;
      }

      .cls-6, .cls-7 {
        fill: #e52421;
      }

      .cls-7 {
        font-family: Century, Century;
        font-size: 5.47px;
      }

      .cls-8 {
        fill: #1d1d1b;
      }

      .cls-3 {
        font-family: StylusBT, 'Stylus BT';
        font-size: 9px;
      }

      .cls-9 {
        stroke: #fff;
        stroke-linecap: round;
        stroke-linejoin: round;
        stroke-width: .5px;
      }

      .cls-9, .cls-5 {
        fill: none;
      }

      .cls-4, .cls-5 {
        stroke: #e52424;
      }

      .cls-10 {
        fill: #e52424;
      }
    </style>
  </defs>
  <g id="bordi">
    <rect class="cls-1" x=".5" y=".5" width="275.15" height="187.11" rx="3.94" ry="3.94"/>
    <rect class="cls-5" x="257.88" y="168.97" width="17.77" height="18.64" rx="3.32" ry="3.32"/>
    <rect class="cls-5" x="99.22" y="77.38" width="104.07" height="18.64" rx="3.32" ry="3.32"/>
    <rect class="cls-5" x="127.04" y="110.89" width="104.07" height="18.64" rx="3.32" ry="3.32"/>
    <rect class="cls-5" x="160.23" y="144.4" width="104.07" height="18.64" rx="3.32" ry="3.32"/>
    <rect class="cls-4" x="87.43" y="71.86" width="17.77" height="18.64" rx="3.32" ry="3.32"/>
    <rect class="cls-4" x="114.94" y="105.37" width="17.77" height="18.64" rx="3.32" ry="3.32"/>
    <rect class="cls-4" x="148.45" y="138.88" width="17.77" height="18.64" rx="3.32" ry="3.32"/>
    <rect class="cls-10" x=".5" y=".07" width="86.86" height="56.69" rx="3.32" ry="3.32"/>
    <text class="cls-3" transform="translate(25.12 41.14) scale(1.5 .81)"><tspan x="0" y="0">k parla</tspan></text>
    <rect class="cls-2" x="25.87" y="43.82" width="36.55" height="6.3"/>
    <path class="cls-9" d="M41.21,16.83c-.05-.19-.14-.46-.36-.71-.14-.17-.33-.39-.65-.44-.28-.05-.8.07-.89.11-.4.2-.54.57-.57.65-.15.4-.02.75.03.88.03.09.17.44.52.67.54.35.94-.02,1.5.32.37.23.53.6.58.72.18.43.13.81.1.96"/>
    <path class="cls-9" d="M41.52,21.14c0,.11,0,.23,0,.34"/>
    <path class="cls-9" d="M52.43,25.33c.61-.14,1.8-.52,2.92-1.54,1.48-1.34,1.9-2.97,2.02-3.56"/>
    <path class="cls-9" d="M52.41,26.12c.63.17,2.02.63,3.28,1.9,1.28,1.28,1.73,2.7,1.9,3.33"/>
    <path class="cls-9" d="M55.2,25.61h.38"/>
    <path class="cls-9" d="M35.61,34.78c.71-1.64,1.34-3.65.66-6.79-.62-2.86-2.81-4.39-3.74-8.79-.28-1.33-.48-2.26-.36-3.56.44-4.62,4.42-7.15,4.76-7.38.69-.46,3.38-1.96,7.28-1.43,2.66.36,4.53,2.01,5.01,2.53.42.46.97,1.07,1.37,2.03.47,1.12.51,2.2.55,3.07.02.38,0,.22,0,1.93,0,1.16.02,1.57.19,2.12.18.59.45,1.02.58,1.23.15.23.42.64.91,1.02.6.48,1.05.54,1.18.99.02.06.07.25,0,.46-.16.48-.77.46-1.21,1.08-.09.13-.14.23-.2.38-.4.88-.31,1.79-.36,3.74,0,.2-.02.62-.17,1.14-.11.37-.22.75-.55.99-.2.15-.42.19-.92.22-1.33.08-2.06-.08-3.42,0-.06,0-.04,0-.16.01-.98.06-1.54.1-2.15.09-.48-.01-.84-.02-1.33-.12-.51-.1-.79-.16-1.09-.38-.04-.03-.74-.54-.82-1.3,0-.03,0-.02,0-.51,0,0,0-.24,0-.85,0-.49-.03-1.96-.09-3.95"/>
    <path class="cls-9" d="M34.86,36.3c.17-.33.05-.09.17-.33"/>
    <path class="cls-9" d="M32.73,40.86c0-.24.85-1.97,1.58-3.42"/>
    <text class="cls-7" transform="translate(31.9 49.01) scale(1.18 1)"><tspan x="0" y="0">PBB020</tspan></text>
    <path class="cls-8" d="M95.7,77.74h1.25l2.87,8.53h-1.17l-1.47-4.76c-.3-.95-.58-1.88-.85-2.87h-.05c-.27.99-.55,1.92-.84,2.87l-1.5,4.76h-1.12l2.87-8.53ZM94.34,82.79h3.91v.88h-3.91v-.88Z"/>
    <path class="cls-8" d="M121.21,110.63h2.42c1.74,0,2.93.58,2.93,2.08,0,.85-.48,1.6-1.5,1.86v.05c1.25.2,1.98.87,1.98,2.04,0,1.68-1.3,2.5-3.21,2.5h-2.61v-8.53ZM123.45,114.22c1.46,0,2.04-.47,2.04-1.42s-.68-1.26-1.99-1.26h-1.21v2.68h1.16ZM123.67,118.25c1.46,0,2.3-.48,2.3-1.64,0-1.05-.81-1.48-2.3-1.48h-1.38v3.12h1.38Z"/>
    <path class="cls-8" d="M154.28,148.21c0-2.74,1.6-4.42,3.82-4.42,1.03,0,1.83.49,2.34,1.04l-.62.69c-.44-.47-1-.77-1.72-.77-1.62,0-2.69,1.31-2.69,3.43s1.07,3.48,2.69,3.48c.78,0,1.38-.34,1.91-.94l.62.66c-.66.78-1.51,1.23-2.64,1.23-2.11,0-3.72-1.64-3.72-4.42Z"/>
  </g>
  <g id="italie">
    <g>
      <path class="cls-6" d="M72.1,151.85c1.1,1.25,2.15,2.41,3.14,3.6.24.29.48.73.44,1.07-.17,1.55-.46,3.08-.67,4.63-.1.77-.52.95-1.19.76-.37-.1-.73-.22-1.09-.35-1.73-.61-2.93.24-2.92,2.07,0,.83-.17,1.5-.94,2.05-1.36.97-2.58,2.14-3.92,3.14-.68.51-1.49.85-2.25,1.27-.14-.05-.28-.1-.42-.16,0-.56-.18-1.2.02-1.67,1.31-2.99,2.72-5.93,4.07-8.91.14-.31.13-.74.05-1.09-.62-2.98-1.21-5.96-1.95-8.91-.16-.64-.83-1.24-1.4-1.68-2.16-1.69-3.94-3.68-5.25-6.1-.2-.38-.58-.82-.96-.92-1.25-.33-1.52-1.08-1.19-2.22.04-.14.02-.29.03-.59-.69-.03-1.35-.06-1.99-.08-.36-3.14-2.42-5.08-4.86-6.5-3.5-2.05-6.12-4.81-8.11-8.3-.42-.74-1.25-1.23-1.86-1.88-.32-.33-.78-.74-.79-1.12-.06-2.34-1.41-4.07-2.71-5.78-1.09-1.43-2.42-2.68-3.55-4.08-.23-.29-.21-.95-.07-1.36,1.1-3.28.12-6.33-.99-9.35-.62-1.68-2.34-2.21-3.65-3.14-1.58-1.12-3.25-2.13-4.97-3.03-.54-.29-1.41-.26-2.02-.06-2.54.81-5.03,1.75-7.55,2.62-.71.25-1.38.56-1.89-.49-.5-1.04.07-1.46.73-1.94.33-.24.7-.42,1.16-.7-1.22-1.61-2.37-3.12-3.51-4.63-.25-.33-.52-.66-.75-1q-.95-1.38.37-2.41c.54-.42,1.09-.83,1.78-1.35-.67-.79-1.32-1.55-1.76-2.07,1.05-.83,2.06-1.69,3.13-2.46.62-.44.93-.91.83-1.7-.14-1.12-.16-2.26-.24-3.52,1.25.13,2.44.24,3.62.37q3.5.37,5.76-2.28c1.52-1.78,1.48-1.75,2.77.07.97,1.39,2.06,2.69,3.23,4.22.99-1.36,1.8-2.44,2.58-3.55.52-.73.98-1.05,1.8-.27.95.91,2.05,1.68,3.28,2.66.55-1.21,1.06-2.32,1.61-3.53.82.36,1.6.7,2.46,1.08.12-.28.24-.5.32-.74.27-.85.69-1.25,1.58-.66,1.92,1.27,3.95.89,6,.39,1.07-.26,2.17-.38,3.24-.64.57-.14.87-.03.98.56.48,2.6,1.93,4.01,4.64,4.48,1.71.3,3.31,1.28,4.95,1.99,1.05.45,1.07.71.13,1.44-.69.53-1.38,1.05-2.14,1.63.97,2.32,1.94,4.62,2.94,7-2.87-.58-5.43.11-8,.35-1.2.11-2.4.34-3.78.54-.52,2.61-1.31,5.3-1.49,8.03-.09,1.32.91,2.76,1.54,4.08,1.26,2.64,3.14,4.83,5.13,6.95.36.38.58.97.68,1.49.25,1.46.26,2.97.63,4.4.55,2.12,1.15,4.27,2.08,6.23.59,1.25,1.71,2.33,2.8,3.25,2.45,2.07,5.13,3.81,8.28,4.68.11.03.22.06.33.1,2.01.77,2.12,1.03,1.3,2.98-1.14,2.71-1.16,2.73,1,4.58,3.62,3.09,7.3,6.1,10.88,9.24,1.22,1.07,2.22,2.39,3.25,3.66.77.96.67,1.62-.19,2.49-.59.59-1.2,1.17-1.77,1.78-.53.56-.94.6-1.25-.2-.3-.78-.55-1.59-.94-2.32-.29-.55-.69-1.12-1.2-1.46-1.38-.94-2.82-1.8-4.27-2.62-.25-.14-.86-.07-1,.13-1.4,1.88-2.74,3.82-4.11,5.75ZM8.33,85.87c1.44,1.9,2.8,3.64,4.1,5.42.48.66.93.8,1.74.52,2.37-.82,4.76-1.6,7.18-2.24,1.37-.36,2.82-.43,4.48-.66-1.27-2.19-2.46-4.26-3.66-6.32-.51-.88-.36-1.31.65-1.29,1.16.02,1.3-.61,1.44-1.53.27-1.71.69-3.4,1.03-5.11.05-.27.12-.64-.01-.82-.66-.96-1.39-1.88-2.13-2.86-.58.69-1.22,1.6-2.02,2.34-.72.66-.9,1.19-.52,2.14.31.78.24,1.71.24,2.58,0,.18-.41.51-.64.52-1.56.07-3.15.27-4.67.05-2.59-.38-4.12,1.45-6.14,2.38.59.73,1.14,1.32,1.57,1.99.13.21.04.77-.15.94-.75.68-1.59,1.26-2.49,1.96ZM36.62,81.19c.11-.54.14-1.04.31-1.49.62-1.71,1.3-3.4,1.91-5.12.6-1.71.57-1.72-1.07-2.44-.13-.06-.28-.06-.39-.08-.59,1.22-1.16,2.39-1.75,3.62-1.52-1.22-2.91-2.34-4.39-3.53-1.1,1.58-2.12,3.05-3.2,4.62-.65-.64-1.32-1.3-2.17-2.15-.5,2.53-.94,4.74-1.4,7.05-.53.08-1.19.18-1.92.28,1.28,2.23,2.53,4.39,3.83,6.65.34-.54.61-.98.89-1.42.44-.7,1.02-.94,1.85-.64,2.04.72,4.1,1.39,6.16,2.08,1.8.6,3.6,1.18,5.59,1.83-1.01-1.19-1.87-2.2-2.73-3.2-.5-.59-.54-1.12-.16-1.86.58-1.13.97-2.35,1.47-3.63l-2.83-.56ZM51.52,104.01c-.5-.92-.92-1.55-1.22-2.24-1.02-2.3-2.86-4.4-1.82-7.25.07-.2-.46-.81-.82-.96-1.51-.63-3.04-1.19-4.59-1.7-4.33-1.43-8.67-2.83-13.01-4.25-1.96-.64-2.21-.56-3.12,1.25-.11.22-.14.64,0,.79,1.05,1.13,2.01,2.42,3.27,3.27,2.06,1.4,4.34,2.49,6.5,3.75,2.63,1.54,5.74,2.55,6.67,6.02.1.37.71.8,1.12.84,2.26.22,4.53.32,7.03.48ZM37.22,115.54c2.42-2.65,4.89-5.14,7.06-7.86.56-.71.2-2.16.25-3.27,0-.06-.17-.18-.25-.18-1.6,0-1.52-1.45-2.02-2.36-.46-.85-.73-1.76-1.72-2.29-3.34-1.8-6.63-3.69-9.95-5.54-.27-.15-.57-.24-.98-.41.3,1.13.55,2.09.81,3.03.16.56.29,1.14.53,1.66,1.27,2.84,2.32,5.71,1.83,8.91-.19,1.23-.77,2.29.64,3.48,1.52,1.28,2.53,3.17,3.81,4.84ZM84.29,152.09c.29-.25.49-.41.67-.58,2.13-2,2.29-2.16.25-4.21-2.87-2.87-5.98-5.51-9.04-8.19-1.71-1.51-3.54-2.88-5.25-4.4-.41-.36-.82-1.09-.74-1.56.16-.95.61-1.88,1.05-2.75.47-.95.22-1.49-.72-1.84-1.39-.51-2.8-.99-4.14-1.61-.6-.28-.89-.17-1.23.3-.73,1.02-1.55,1.98-2.21,3.05-1.4,2.26-1.49,1.68.49,3.43,2.88,2.54,5.91,4.92,8.86,7.38,2.62,2.19,5.08,4.58,8.23,6.05,1.45.68,2.6,1.67,2.99,3.36.12.53.5,1,.79,1.57ZM53.96,75.85c-.06-.08-.13-.16-.19-.25-.42.2-.87.35-1.24.61-2.49,1.75-4.92,3.57-7.44,5.26-1.98,1.32-4.09,2.45-6.08,3.76-.35.23-.69,1.16-.54,1.33,1.33,1.54,2.58,3.3,4.25,4.37,1.71,1.09,3.87,1.45,5.92,2.17.38-1.46.79-2.8,1.08-4.16.18-.86.63-1.04,1.43-1.09,1.29-.09,2.57-.35,4.08-.57-.67-.77-1.27-1.28-1.65-1.92-.67-1.13-2.38-1.64-2.26-3.14.11-1.33.68-2.63,1.1-3.93.14-.42.41-.81.65-1.2.27-.43.58-.84.88-1.25ZM64.39,147.68c.28-3.87.56-7.59.84-11.42-1.14-1.04-2.29-2.52-3.8-3.38-2.41-1.36-5.05-2.29-7.61-3.41-.31.83-.6,1.73-.99,2.6-.4.89-.26,1.62.32,2.4.55.74.94,1.59,1.48,2.55.4.1,1.4.07,1.64.48.32.55.05,1.44.03,2.21,1.3.28,1.92,1.18,2.53,2.27,1.31,2.35,3.23,4.15,5.55,5.71ZM69.16,149.89c-1.28,0-1.52.64-3.33-.58-.13-.09-.36-.04-.65-.07.07.56.09,1.05.2,1.52.59,2.52,1.22,5.03,1.79,7.55.08.36.04.82-.11,1.16-.95,2.03-1.97,4.02-2.91,6.05-.51,1.1-.91,2.25-1.36,3.38.68-.05,1.14-.22,1.52-.51,1.51-1.16,3.01-2.32,4.45-3.56.3-.26.51-.94.39-1.31-.37-1.13.29-1.68,1.02-2.25.41-.33.81-.67,1.15-.95,1.01.34,1.93.65,2.96,1,.34-2.61,1.65-5.14-1.01-7.17-.5-.39-.84-.98-1.31-1.41-.57-.52-.7-.94-.18-1.63.4-.52.87-.82.65-1.44-.36-1.02-1.83.22-3.27.22ZM39.63,114.01c-.48.53-1.04,1.1-1.55,1.71-.17.21-.39.67-.31.75,1.27,1.36.24,4.02,2.66,4.74.22.07.35.48.51.73.79,1.25,1.54,2.52,2.38,3.74,2.18,3.15,5.71,4.68,8.61,7.05.37-1,.7-1.97,1.08-2.92.4-1,.07-1.73-.72-2.39-1.48-1.25-2.94-2.54-4.37-3.85-.62-.57-1.14-1.23-1.89-2.04,1.28-.21,2.24-.36,3.26-.53-.12-.14-.21-.25-.31-.36-1-1.08-.98-1.19.24-1.88.93-.53,1.84-1.09,2.76-1.64-.04-.16-.07-.32-.11-.47-.9.05-1.85-.06-2.69.18-1.74.51-3.46,1.15-5.13,1.87-.77.33-1.13.07-1.51-.48-.97-1.4-1.95-2.8-2.93-4.21ZM39.21,84.26c.11.11.21.22.32.33,4.35-3.09,8.7-6.19,13.04-9.28-.52-1.42-1.01-2.73-1.54-4.17-2.08.44-4.1.91-6.15,1.27-.58.1-1.25,0-1.83-.17-.84-.26-1.63-.67-2.44-1.01-1.14,3.25-2.23,6.34-3.31,9.42.73.14,1.25.23,1.77.36.77.19,1.23.56.81,1.46-.27.58-.45,1.19-.67,1.79ZM45.44,104.45c-.12,3.41-.64,2.41,2.27,3.74.28.13.62.18.82.38.31.31.69.7.74,1.09.17,1.24.18,2.5.28,3.75.18,2.08.17,2.15,2.19,2.67,1.67.43,3.38.69,5.06,1.03-.23-1.71-.35-3.19-.64-4.63-.33-1.66-.01-3.5-1.47-4.87-1.02-.95-1.89-2.07-2.68-2.96-2.22-.07-4.35-.13-6.56-.2ZM61.29,123.96c-1.13-1.6-2.42-3.14-3.36-4.87-.53-.97-1.12-1.44-2.11-1.54-.97-.1-2.07-.49-2.88-.17-1.37.54-2.57,1.54-3.85,2.36.47.6.9,1.15,1.45,1.87-1.2.14-2.08.24-3.27.37,2.31,2.08,4.41,3.97,6.36,5.73,2.73-1.33,5.31-2.59,7.67-3.75ZM66.15,136.89c-.13.07-.26.14-.39.21-.18,3.37-.37,6.74-.54,10.11-.02.32.01.74.2.97.57.71,2.82,1.23,3.67.81,1.51-.12,2.8-.27,4.14-.59s1.75-2.25,2.81-3.22c-3.45-2.89-6.67-5.59-9.89-8.28ZM61,86.74c-.72-1.77-1.41-3.5-2.12-5.21-.3-.74-.2-1.29.56-1.72.63-.35,1.18-.84,1.86-1.34-2.35-.93-4.45-1.77-6.53-2.6-1.49,1.86-2.32,3.85-2.68,6.02-.05.3.04.71.22.94,1.18,1.39,2.4,2.75,3.63,4.09.16.18.53.26.79.24,1.39-.11,2.78-.27,4.26-.42ZM49.09,115.85c-.18-2.13-.34-4.06-.51-5.99-1.12-.61-2.24-1.23-3.38-1.82-.05-.03-.23.17-.34.28-1.4,1.45-2.82,2.88-4.17,4.38-.21.23-.28.85-.12,1.13.74,1.28,1.55,2.53,2.42,3.73.19.26.79.47,1.09.37,1.55-.52,3.06-1.13,4.58-1.74.21-.08.36-.3.41-.34ZM29.7,97.06c-.05-.42-.05-.56-.08-.7-.48-2.18-1.12-4.28-2.87-5.82-.35-.31-.82-.72-1.21-.7-4.9.29-9.52,1.59-13.74,4.15-.26.16-.33.64-.48.97.36.05.76.24,1.07.13,2.63-.88,5.25-1.79,7.85-2.75.9-.33,1.61-.28,2.43.27,2.24,1.49,4.55,2.88,7.04,4.44ZM65.07,126.19c-1.45-1.12-2.89-2.3-4.88-.95-.24.17-.57.21-.84.35-1.74.88-3.48,1.78-5.21,2.67,0,.17,0,.34,0,.51,2.23,1.01,4.46,2.03,6.71,3.01.15.06.51-.11.62-.28,1.21-1.74,2.39-3.51,3.61-5.32ZM13.2,74.26c.01.48.02.9.04,1.31.11,2.31.11,2.35,2.43,2.4,1.49.03,2.99-.07,4.59-.11-.1-.84-.12-1.53-.3-2.17-.08-.31-.44-.73-.72-.77-1.99-.27-3.99-.45-6.04-.66Z"/>
      <path class="cls-6" d="M54.28,180.79c-2.88-1.94-5.68-3.81-8.47-5.7-3.75-2.54-7.48-5.09-11.24-7.62-.74-.5-.85-.99-.2-1.64,1.07-1.08,2.1-2.2,3.19-3.25.21-.2.64-.29.96-.25,1.78.19,3.55.41,5.31.66.25.04.62.24.68.44.76,2.32,2.64,2.28,4.53,2.19,3.19-.16,6.38-.37,9.57-.55.57-.03,1.14-.03,1.71,0,1.08.05,1.32.53.76,1.45-1.18,1.95-2.29,3.94-3.51,5.86-.84,1.33-.72,2.72-.63,4.17.03.52-.04,1.17-.33,1.56-.76,1.02-1.67,1.94-2.34,2.69ZM34.59,166.72c6.56,4.41,13.03,8.75,19.62,13.18.51-.6,1.1-1.23,1.63-1.91.23-.3.54-.75.47-1.06-.57-2.68.42-4.89,1.88-7.01.87-1.26,1.61-2.62,2.52-4.13-1.13,0-2-.01-2.86.01-3.68.12-7.36.23-11.03.38-1.08.04-1.85-.36-2.25-1.35-.33-.81-.89-1.13-1.74-1.21-1.36-.14-2.71-.4-4.07-.57-.31-.04-.75,0-.93.18-1.06,1.08-2.07,2.21-3.23,3.48Z"/>
      <path class="cls-6" d="M17.09,147.42c-.95-.68-1.73-1.28-2.54-1.83-1.01-.68-1.28-1.61-1.05-2.77.33-1.68.69-3.35.9-5.05.09-.73-.16-1.52-.3-2.27-.12-.67-.38-1.32-.44-1.98-.18-2.12-.77-4.07-1.86-5.92-.37-.62-.31-1.5-.48-2.43.78.13,1.25.1,1.59.29,1.19.67,2.02.15,2.94-.61,1.23-1.01,2.6-1.84,3.87-2.81.72-.55,1.2-.29,1.58.35.81,1.37,1.61,2.75,2.35,4.16.64,1.24,1.19,2.53,1.82,3.89-2.23,1.48-1.28,3.94-1.46,6.05-.21,2.45-.06,4.94-.07,7.41,0,.18-.06.36-.12.73-1.09-.39-2.11-.72-3.11-1.12-.6-.24-.95-.14-1.3.43-.71,1.16-1.5,2.28-2.29,3.47ZM23.18,143.63c.14-3.82.25-7.51.44-11.2.03-.57.46-1.12.69-1.68.1-.26.32-.6.23-.78-1.16-2.35-2.37-4.68-3.56-7.02-.32-.63-.72-.55-1.19-.19-1.46,1.1-2.95,2.15-4.36,3.31-.57.47-1.05.65-1.74.41-.54-.19-1.12-.28-1.96-.48.32.76.42,1.32.74,1.7,1.17,1.43,1.38,3.19,1.75,4.89.22.99.45,1.98.66,2.97.11.5.33,1.01.27,1.49-.29,1.99-.71,3.96-.97,5.96-.08.58.04,1.37.39,1.77.62.69,1.49,1.15,2.31,1.74.98-1.45,1.9-2.83,2.81-4.18,1.2.44,2.3.84,3.49,1.28Z"/>
    </g>
    <path class="cls-6" d="M51.52,104.01c-.5-.92-.92-1.55-1.22-2.24-1.02-2.3-2.86-4.4-1.82-7.25.07-.2-.46-.81-.82-.96-1.51-.63-3.04-1.19-4.59-1.7-4.33-1.43-8.67-2.83-13.01-4.25-1.96-.64-2.21-.56-3.12,1.25-.11.22-.14.64,0,.79,1.05,1.13,2.01,2.42,3.27,3.27,2.06,1.4,4.34,2.49,6.5,3.75,2.63,1.54,5.74,2.55,6.67,6.02.1.37.71.8,1.12.84,2.26.22,4.53.32,7.03.48Z"/>
  </g>
  <g id="RISPOSTE">
    <g>
      <path class="cls-8" d="M125.27,85.66h-2.25v-.67h3.08v4.86h-.83v-4.19ZM124.94,83.33c0-.38.28-.64.66-.64s.66.26.66.64-.28.64-.66.64-.66-.25-.66-.64Z"/>
      <path class="cls-8" d="M129.05,84.99h.68l.07.82h.04c.51-.53,1.07-.94,1.83-.94,1.15,0,1.68.68,1.68,1.96v3.02h-.83v-2.91c0-.92-.32-1.35-1.11-1.35-.58,0-.97.29-1.53.87v3.39h-.83v-4.86Z"/>
      <path class="cls-8" d="M134.92,87.43c0-1.63,1.24-2.56,2.71-2.56.79,0,1.37.32,1.77.71l-.41.53c-.4-.34-.82-.55-1.33-.55-1.12,0-1.89.75-1.89,1.87s.76,1.85,1.87,1.85c.6,0,1.1-.27,1.5-.61l.37.54c-.54.48-1.21.76-1.93.76-1.52,0-2.66-.93-2.66-2.54Z"/>
      <path class="cls-8" d="M143.27,85.66h-2.25v-.67h3.08v4.86h-.83v-4.19ZM142.94,83.33c0-.38.28-.64.66-.64s.66.26.66.64-.28.64-.66.64-.66-.25-.66-.64Z"/>
      <path class="cls-8" d="M146.92,88.59c0-1.09,1.02-1.62,3.53-1.82-.03-.66-.35-1.22-1.29-1.22-.63,0-1.25.3-1.7.58l-.33-.56c.5-.32,1.32-.7,2.17-.7,1.33,0,1.98.79,1.98,2v2.98h-.69l-.07-.66h-.03c-.53.42-1.23.78-1.91.78-.91,0-1.66-.51-1.66-1.38ZM150.45,88.58v-1.26c-2.08.16-2.71.57-2.71,1.21,0,.55.5.77,1.06.77s1.09-.26,1.65-.72Z"/>
      <path class="cls-8" d="M152.7,84.99h.66l.07.64h.02c.25-.45.55-.76,1.11-.76.48,0,.78.28.92.84.28-.52.58-.84,1.14-.84.68,0,1.08.53,1.08,1.5v3.48h-.82v-3.42c0-.56-.16-.85-.52-.85-.34,0-.52.25-.78.75v3.52h-.76v-3.42c0-.56-.14-.85-.5-.85-.34,0-.56.25-.8.75v3.52h-.82v-4.86Z"/>
      <path class="cls-8" d="M159.05,84.99h.68l.07.62h.03c.45-.43,1.09-.74,1.68-.74,1.31,0,2.01.97,2.01,2.48,0,1.65-1.04,2.62-2.21,2.62-.45,0-1.01-.23-1.45-.63h-.02l.04.92v1.64h-.83v-6.91ZM162.66,87.35c0-1.07-.4-1.78-1.37-1.78-.43,0-.93.22-1.42.72v2.42c.45.41.96.56,1.29.56.86,0,1.5-.72,1.5-1.92Z"/>
      <path class="cls-8" d="M164.92,88.59c0-1.09,1.02-1.62,3.53-1.82-.03-.66-.35-1.22-1.29-1.22-.63,0-1.25.3-1.7.58l-.33-.56c.5-.32,1.32-.7,2.17-.7,1.33,0,1.98.79,1.98,2v2.98h-.69l-.07-.66h-.03c-.53.42-1.23.78-1.91.78-.91,0-1.66-.51-1.66-1.38ZM168.45,88.58v-1.26c-2.08.16-2.71.57-2.71,1.21,0,.55.5.77,1.06.77s1.09-.26,1.65-.72Z"/>
      <path class="cls-8" d="M171.57,84.99h.69l.08,1.15h.02c.51-.79,1.27-1.27,2.17-1.27.36,0,.66.05.96.2l-.19.71c-.34-.11-.52-.16-.9-.16-.73,0-1.42.37-2,1.39v2.84h-.83v-4.86Z"/>
      <path class="cls-8" d="M176.8,87.41c0-1.58,1.18-2.54,2.48-2.54,1.4,0,2.22.91,2.22,2.28,0,.19-.02.37-.04.5h-4.11v-.64h3.62l-.21.23c0-1.15-.57-1.72-1.46-1.72s-1.68.68-1.68,1.89.82,1.9,1.9,1.9c.58,0,1.04-.18,1.48-.46l.3.54c-.48.32-1.1.58-1.88.58-1.46,0-2.62-.94-2.62-2.56Z"/>
    </g>
    <g>
      <path class="cls-8" d="M159.42,121.84l.38-.55c.56.4,1.22.66,2.11.66.82,0,1.22-.34,1.22-.75,0-.37-.19-.63-1.51-.9-1.27-.26-1.9-.69-1.9-1.42,0-.78.69-1.38,2.02-1.38.74,0,1.48.29,1.96.62l-.4.53c-.45-.31-1.01-.51-1.63-.51-.82,0-1.12.33-1.12.7,0,.42.42.6,1.42.81,1.61.35,2,.75,2,1.5,0,.79-.77,1.45-2.16,1.45-.95,0-1.8-.35-2.39-.76Z"/>
      <path class="cls-8" d="M165.51,120.06c0-1.63,1.24-2.56,2.71-2.56.79,0,1.37.32,1.77.71l-.41.53c-.4-.34-.82-.55-1.33-.55-1.12,0-1.89.75-1.89,1.87s.76,1.85,1.87,1.85c.6,0,1.1-.27,1.5-.61l.37.54c-.54.48-1.21.76-1.93.76-1.52,0-2.66-.93-2.66-2.54Z"/>
      <path class="cls-8" d="M171.64,115.36h.83v1.94l-.05,1.15h.03c.49-.54,1.06-.95,1.81-.95,1.15,0,1.68.68,1.68,1.96v3.02h-.83v-2.91c0-.92-.32-1.35-1.11-1.35-.58,0-.97.29-1.53.87v3.39h-.83v-7.12Z"/>
      <path class="cls-8" d="M179.86,118.29h-2.25v-.67h3.08v4.86h-.83v-4.19ZM179.53,115.96c0-.38.28-.64.66-.64s.66.26.66.64-.28.64-.66.64-.66-.25-.66-.64Z"/>
      <path class="cls-8" d="M183.42,122.04l3.32-3.75h-2.95v-.67h4.14v.44l-3.32,3.74h3.41v.68h-4.6v-.44Z"/>
      <path class="cls-8" d="M189.42,122.04l3.32-3.75h-2.95v-.67h4.14v.44l-3.32,3.74h3.41v.68h-4.6v-.44Z"/>
      <path class="cls-8" d="M195.31,120.06c0-1.63,1.12-2.56,2.4-2.56s2.4.93,2.4,2.56-1.12,2.54-2.4,2.54-2.4-.93-2.4-2.54ZM199.26,120.06c0-1.12-.62-1.87-1.55-1.87s-1.55.75-1.55,1.87.62,1.85,1.55,1.85,1.55-.74,1.55-1.85Z"/>
    </g>
    <g>
      <path class="cls-8" d="M189.15,152.66h.68l.07.62h.03c.45-.43,1.09-.74,1.68-.74,1.31,0,2.01.97,2.01,2.48,0,1.65-1.04,2.62-2.21,2.62-.45,0-1.01-.23-1.45-.63h-.02l.04.92v1.64h-.83v-6.91ZM192.77,155.02c0-1.07-.4-1.78-1.37-1.78-.43,0-.93.22-1.42.72v2.42c.45.41.96.56,1.29.56.86,0,1.5-.72,1.5-1.92Z"/>
      <path class="cls-8" d="M195.02,156.26c0-1.09,1.02-1.62,3.53-1.82-.03-.66-.35-1.22-1.29-1.22-.63,0-1.25.3-1.7.58l-.33-.56c.5-.32,1.32-.7,2.17-.7,1.33,0,1.98.79,1.98,2v2.98h-.69l-.07-.66h-.03c-.53.42-1.23.78-1.91.78-.91,0-1.66-.51-1.66-1.38ZM198.55,156.25v-1.26c-2.08.16-2.71.57-2.71,1.21,0,.55.5.77,1.06.77s1.09-.26,1.65-.72Z"/>
      <path class="cls-8" d="M200.93,156.88l.38-.55c.56.4,1.22.66,2.11.66.82,0,1.22-.34,1.22-.75,0-.37-.19-.63-1.51-.9-1.27-.26-1.9-.69-1.9-1.42,0-.78.69-1.38,2.02-1.38.74,0,1.48.29,1.96.62l-.4.53c-.45-.31-1.01-.51-1.63-.51-.82,0-1.12.33-1.12.7,0,.42.42.6,1.42.81,1.61.35,2,.75,2,1.5,0,.79-.77,1.45-2.16,1.45-.95,0-1.8-.35-2.39-.76Z"/>
      <path class="cls-8" d="M208.28,155.63v-2.3h-1.38v-.62l1.41-.05.11-1.56h.69v1.56h2.38v.67h-2.38v2.31c0,.87.29,1.32,1.23,1.32.45,0,.81-.09,1.16-.22l.18.61c-.44.16-.91.29-1.52.29-1.42,0-1.88-.81-1.88-2.01Z"/>
      <path class="cls-8" d="M215.37,153.33h-2.25v-.67h3.08v4.86h-.83v-4.19ZM215.04,151c0-.38.28-.64.66-.64s.66.26.66.64-.28.64-.66.64-.66-.25-.66-.64Z"/>
      <path class="cls-8" d="M219.02,155.1c0-1.63,1.24-2.56,2.71-2.56.79,0,1.37.32,1.77.71l-.41.53c-.4-.34-.82-.55-1.33-.55-1.12,0-1.89.75-1.89,1.87s.76,1.85,1.87,1.85c.6,0,1.1-.27,1.5-.61l.37.54c-.54.48-1.21.76-1.93.76-1.52,0-2.66-.93-2.66-2.54Z"/>
      <path class="cls-8" d="M225.02,155.1c0-1.63,1.24-2.56,2.71-2.56.79,0,1.37.32,1.77.71l-.41.53c-.4-.34-.82-.55-1.33-.55-1.12,0-1.89.75-1.89,1.87s.76,1.85,1.87,1.85c.6,0,1.1-.27,1.5-.61l.37.54c-.54.48-1.21.76-1.93.76-1.52,0-2.66-.93-2.66-2.54Z"/>
      <path class="cls-8" d="M233.37,153.33h-2.25v-.67h3.08v4.86h-.83v-4.19ZM233.04,151c0-.38.28-.64.66-.64s.66.26.66.64-.28.64-.66.64-.66-.25-.66-.64Z"/>
      <path class="cls-8" d="M236.82,155.1c0-1.63,1.12-2.56,2.4-2.56s2.4.93,2.4,2.56-1.12,2.54-2.4,2.54-2.4-.93-2.4-2.54ZM240.77,155.1c0-1.12-.62-1.87-1.55-1.87s-1.55.75-1.55,1.87.62,1.85,1.55,1.85,1.55-.74,1.55-1.85Z"/>
    </g>
  </g>
  <g id="rettangoli_rossi_sulle_carte" data-name="rettangoli rossi sulle carte">
    <rect class="cls-10" x="205.16" y="19.64" width="64.64" height="12.96" rx="1.86" ry="1.86"/>
  </g>
  <g id="DOMANDE">
    <g>
      <path class="cls-8" d="M189.83,15.21v-2.53h-1.52v-.68l1.55-.05.12-1.72h.76v1.72h2.62v.74h-2.62v2.54c0,.96.32,1.45,1.35,1.45.5,0,.89-.1,1.28-.24l.2.67c-.48.18-1,.32-1.67.32-1.56,0-2.07-.89-2.07-2.21Z"/>
      <path class="cls-8" d="M195.01,15.27v-3.32h.91v3.2c0,1,.35,1.49,1.23,1.49.62,0,1.07-.29,1.66-.98v-3.71h.91v5.35h-.76l-.08-.94h-.04c-.54.63-1.17,1.07-1.99,1.07-1.26,0-1.85-.75-1.85-2.16Z"/>
      <path class="cls-8" d="M203.03,15.21v-2.53h-1.52v-.68l1.55-.05.12-1.72h.76v1.72h2.62v.74h-2.62v2.54c0,.96.32,1.45,1.35,1.45.5,0,.89-.1,1.28-.24l.2.67c-.48.18-1,.32-1.67.32-1.56,0-2.07-.89-2.07-2.21Z"/>
      <path class="cls-8" d="M209.63,15.21v-2.53h-1.52v-.68l1.55-.05.12-1.72h.76v1.72h2.62v.74h-2.62v2.54c0,.96.32,1.45,1.35,1.45.5,0,.89-.1,1.28-.24l.2.67c-.48.18-1,.32-1.67.32-1.56,0-2.07-.89-2.07-2.21Z"/>
      <path class="cls-8" d="M217.43,12.68h-2.48v-.74h3.39v5.35h-.91v-4.61ZM217.07,10.12c0-.42.31-.7.73-.7s.73.29.73.7-.31.7-.73.7-.73-.28-.73-.7Z"/>
      <path class="cls-8" d="M230.63,12.68h-2.48v-.74h3.39v5.35h-.91v-4.61ZM230.27,10.12c0-.42.31-.7.73-.7s.73.29.73.7-.31.7-.73.7-.73-.28-.73-.7Z"/>
      <path class="cls-8" d="M240.91,11.95h.94l1.23,3.03c.21.54.41,1.07.59,1.58h.04c.19-.52.36-1.04.58-1.58l1.23-3.03h.88l-2.22,5.35h-1.02l-2.26-5.35Z"/>
      <path class="cls-8" d="M247.84,15.91c0-1.2,1.12-1.78,3.88-2-.03-.73-.38-1.34-1.42-1.34-.69,0-1.38.33-1.87.64l-.36-.62c.55-.35,1.45-.77,2.39-.77,1.46,0,2.18.87,2.18,2.2v3.28h-.76l-.08-.73h-.03c-.58.46-1.35.86-2.1.86-1,0-1.83-.56-1.83-1.52ZM251.73,15.9v-1.39c-2.29.18-2.98.63-2.98,1.33,0,.6.55.85,1.17.85s1.2-.29,1.82-.79Z"/>
      <path class="cls-8" d="M255.16,11.95h.76l.09,1.27h.02c.56-.87,1.4-1.4,2.39-1.4.4,0,.73.06,1.06.22l-.21.78c-.37-.12-.57-.18-.99-.18-.8,0-1.56.41-2.2,1.53v3.12h-.91v-5.35Z"/>
      <path class="cls-8" d="M263.63,12.68h-2.48v-.74h3.39v5.35h-.91v-4.61ZM263.27,10.12c0-.42.31-.7.73-.7s.73.29.73.7-.31.7-.73.7-.73-.28-.73-.7Z"/>
      <path class="cls-2" d="M208.15,29.79l.42-.61c.62.44,1.34.73,2.32.73.9,0,1.34-.37,1.34-.83,0-.41-.21-.69-1.66-.99-1.4-.29-2.09-.76-2.09-1.56,0-.86.76-1.52,2.22-1.52.81,0,1.63.32,2.16.68l-.44.58c-.5-.34-1.11-.56-1.79-.56-.9,0-1.23.36-1.23.77,0,.46.46.66,1.56.89,1.77.38,2.2.83,2.2,1.65,0,.87-.85,1.6-2.38,1.6-1.04,0-1.98-.38-2.63-.84Z"/>
      <path class="cls-2" d="M214.85,27.83c0-1.79,1.36-2.82,2.98-2.82.87,0,1.51.35,1.95.78l-.45.58c-.44-.37-.9-.6-1.46-.6-1.23,0-2.08.83-2.08,2.06s.84,2.04,2.06,2.04c.66,0,1.21-.3,1.65-.67l.41.59c-.59.53-1.33.84-2.12.84-1.67,0-2.93-1.02-2.93-2.79Z"/>
      <path class="cls-2" d="M222.16,25.15h.76l.09,1.27h.02c.56-.87,1.4-1.4,2.39-1.4.4,0,.73.06,1.06.22l-.21.78c-.37-.12-.57-.18-.99-.18-.8,0-1.56.41-2.2,1.53v3.12h-.91v-5.35Z"/>
      <path class="cls-2" d="M228.01,28.47v-3.32h.91v3.2c0,1,.35,1.49,1.23,1.49.62,0,1.07-.29,1.66-.98v-3.71h.91v5.35h-.76l-.08-.94h-.04c-.54.63-1.17,1.07-1.99,1.07-1.26,0-1.85-.75-1.85-2.16Z"/>
      <path class="cls-2" d="M234.4,25.15h.73l.08.7h.02c.28-.5.61-.84,1.22-.84.53,0,.86.31,1.01.92.31-.57.64-.92,1.25-.92.75,0,1.19.58,1.19,1.65v3.83h-.9v-3.76c0-.62-.18-.94-.57-.94-.37,0-.57.27-.86.83v3.87h-.84v-3.76c0-.62-.15-.94-.55-.94-.37,0-.62.27-.88.83v3.87h-.9v-5.35Z"/>
      <path class="cls-2" d="M241.25,29.11c0-1.2,1.12-1.78,3.88-2-.03-.73-.38-1.34-1.42-1.34-.69,0-1.38.33-1.87.64l-.36-.62c.55-.35,1.45-.77,2.39-.77,1.46,0,2.18.87,2.18,2.2v3.28h-.76l-.08-.73h-.03c-.58.46-1.35.86-2.1.86-1,0-1.83-.56-1.83-1.52ZM245.13,29.1v-1.39c-2.29.18-2.98.63-2.98,1.33,0,.6.55.85,1.17.85s1.2-.29,1.82-.79Z"/>
      <path class="cls-2" d="M247.75,30.01l3.65-4.13h-3.25v-.74h4.55v.48l-3.65,4.12h3.75v.75h-5.06v-.48Z"/>
      <path class="cls-2" d="M254.35,30.01l3.65-4.13h-3.25v-.74h4.55v.48l-3.65,4.12h3.75v.75h-5.06v-.48Z"/>
      <path class="cls-2" d="M263.63,25.88h-2.48v-.74h3.39v5.35h-.91v-4.61ZM263.27,23.32c0-.42.31-.7.73-.7s.73.29.73.7-.31.7-.73.7-.73-.28-.73-.7Z"/>
      <path class="cls-8" d="M96.3,38.4l1.55-.05h3.11v.74h-4.66v-.68ZM97.83,37.89c0-1.3.68-2.17,2.16-2.17.53,0,1.03.1,1.54.31l-.21.68c-.44-.19-.78-.25-1.24-.25-.96,0-1.34.54-1.34,1.4v5.83h-.9v-5.8Z"/>
      <path class="cls-8" d="M102.65,42.31c0-1.2,1.12-1.78,3.88-2-.03-.73-.39-1.34-1.42-1.34-.69,0-1.38.33-1.87.64l-.36-.62c.55-.35,1.45-.77,2.39-.77,1.46,0,2.18.87,2.18,2.2v3.28h-.76l-.08-.73h-.03c-.58.46-1.35.86-2.1.86-1,0-1.83-.56-1.83-1.52ZM106.53,42.3v-1.39c-2.29.18-2.98.63-2.98,1.33,0,.61.55.85,1.17.85s1.2-.29,1.82-.79Z"/>
      <path class="cls-8" d="M110.64,41.61v-2.53h-1.52v-.68l1.55-.05.12-1.72h.76v1.72h2.62v.74h-2.62v2.54c0,.96.32,1.45,1.35,1.45.5,0,.89-.1,1.28-.24l.2.67c-.48.18-1,.32-1.67.32-1.56,0-2.07-.89-2.07-2.21Z"/>
      <path class="cls-8" d="M117.24,41.61v-2.53h-1.52v-.68l1.55-.05.12-1.72h.76v1.72h2.62v.74h-2.62v2.54c0,.96.32,1.45,1.35,1.45.5,0,.89-.1,1.28-.24l.2.67c-.48.18-1,.32-1.67.32-1.56,0-2.07-.89-2.07-2.21Z"/>
      <path class="cls-8" d="M125.04,39.08h-2.48v-.74h3.39v5.35h-.91v-4.61ZM124.67,36.52c0-.42.31-.7.73-.7s.73.29.73.7-.31.7-.73.7-.73-.28-.73-.7Z"/>
      <path class="cls-8" d="M135.79,38.35h.75l.08.68h.03c.5-.47,1.2-.81,1.85-.81,1.44,0,2.21,1.07,2.21,2.73,0,1.82-1.14,2.88-2.43,2.88-.5,0-1.11-.25-1.6-.69h-.02l.04,1.01v1.8h-.91v-7.6ZM139.78,40.94c0-1.18-.44-1.96-1.51-1.96-.47,0-1.02.24-1.56.79v2.66c.5.45,1.06.62,1.42.62.95,0,1.65-.79,1.65-2.11Z"/>
      <path class="cls-8" d="M142.12,41.01c0-1.74,1.3-2.79,2.73-2.79,1.54,0,2.44,1,2.44,2.51,0,.21-.02.41-.04.55h-4.52v-.7h3.98l-.23.25c0-1.27-.63-1.89-1.61-1.89s-1.85.75-1.85,2.08.9,2.09,2.09,2.09c.64,0,1.14-.2,1.63-.51l.33.59c-.53.35-1.21.64-2.07.64-1.61,0-2.88-1.03-2.88-2.82Z"/>
      <path class="cls-8" d="M149.57,38.35h.76l.09,1.27h.02c.56-.87,1.4-1.4,2.39-1.4.4,0,.73.05,1.06.22l-.21.78c-.37-.12-.57-.18-.99-.18-.8,0-1.56.41-2.2,1.53v3.12h-.91v-5.35Z"/>
      <path class="cls-8" d="M155.45,41.03c0-1.79,1.36-2.82,2.98-2.82.87,0,1.51.35,1.95.78l-.45.58c-.44-.37-.9-.61-1.46-.61-1.23,0-2.08.83-2.08,2.06s.84,2.04,2.06,2.04c.66,0,1.21-.3,1.65-.67l.41.59c-.59.53-1.33.84-2.12.84-1.67,0-2.93-1.02-2.93-2.79Z"/>
      <path class="cls-8" d="M162.19,35.86h.91v2.13l-.05,1.26h.03c.54-.59,1.17-1.04,1.99-1.04,1.26,0,1.85.75,1.85,2.16v3.32h-.91v-3.2c0-1.01-.35-1.49-1.22-1.49-.64,0-1.07.32-1.68.96v3.73h-.91v-7.83Z"/>
      <path class="cls-8" d="M168.52,41.01c0-1.74,1.3-2.79,2.73-2.79,1.54,0,2.44,1,2.44,2.51,0,.21-.02.41-.04.55h-4.52v-.7h3.98l-.23.25c0-1.27-.63-1.89-1.61-1.89s-1.85.75-1.85,2.08.9,2.09,2.09,2.09c.64,0,1.14-.2,1.63-.51l.33.59c-.53.35-1.21.64-2.07.64-1.61,0-2.88-1.03-2.88-2.82ZM169.75,35.76l.64-.62,1.56,1.85-.47.45-1.73-1.68Z"/>
      <path class="cls-8" d="M181.99,35.86h.91v2.13l-.06,1.26h.03c.54-.59,1.17-1.04,1.99-1.04,1.27,0,1.85.75,1.85,2.16v3.32h-.91v-3.2c0-1.01-.35-1.49-1.22-1.49-.64,0-1.07.32-1.68.96v3.73h-.91v-7.83Z"/>
      <path class="cls-8" d="M188.45,42.31c0-1.2,1.12-1.78,3.88-2-.03-.73-.38-1.34-1.42-1.34-.69,0-1.38.33-1.87.64l-.36-.62c.55-.35,1.45-.77,2.39-.77,1.46,0,2.18.87,2.18,2.2v3.28h-.76l-.08-.73h-.03c-.58.46-1.35.86-2.1.86-1,0-1.83-.56-1.83-1.52ZM192.33,42.3v-1.39c-2.29.18-2.98.63-2.98,1.33,0,.61.55.85,1.17.85s1.2-.29,1.82-.79Z"/>
      <path class="cls-8" d="M197.64,39.08h-2.48v-.74h3.39v5.35h-.91v-4.61ZM197.27,36.52c0-.42.31-.7.73-.7s.73.29.73.7-.31.7-.73.7-.73-.28-.73-.7Z"/>
      <path class="cls-8" d="M210.08,41.9v-5.3h-1.89v-.74h2.8v6.11c0,.77.42,1.1,1.06,1.1.31,0,.64-.08,1-.24l.23.68c-.5.21-.85.32-1.43.32-1.14,0-1.77-.66-1.77-1.92Z"/>
      <path class="cls-8" d="M214.85,42.31c0-1.2,1.12-1.78,3.88-2-.03-.73-.38-1.34-1.42-1.34-.69,0-1.38.33-1.87.64l-.36-.62c.55-.35,1.45-.77,2.39-.77,1.46,0,2.18.87,2.18,2.2v3.28h-.76l-.08-.73h-.03c-.58.46-1.35.86-2.1.86-1,0-1.83-.56-1.83-1.52ZM218.73,42.3v-1.39c-2.29.18-2.98.63-2.98,1.33,0,.61.55.85,1.17.85s1.2-.29,1.82-.79Z"/>
      <path class="cls-8" d="M227.95,42.99l.42-.6c.62.44,1.34.73,2.32.73.9,0,1.34-.37,1.34-.83,0-.41-.21-.69-1.66-.99-1.4-.29-2.09-.76-2.09-1.56,0-.86.76-1.52,2.22-1.52.81,0,1.63.32,2.16.68l-.44.58c-.5-.34-1.11-.56-1.79-.56-.9,0-1.23.36-1.23.77,0,.46.46.66,1.56.89,1.77.38,2.2.83,2.2,1.65,0,.87-.85,1.59-2.38,1.59-1.04,0-1.98-.38-2.63-.84Z"/>
      <path class="cls-8" d="M234.65,41.03c0-1.79,1.36-2.82,2.98-2.82.87,0,1.51.35,1.95.78l-.45.58c-.44-.37-.9-.61-1.46-.61-1.23,0-2.08.83-2.08,2.06s.84,2.04,2.06,2.04c.66,0,1.21-.3,1.65-.67l.41.59c-.59.53-1.33.84-2.12.84-1.67,0-2.93-1.02-2.93-2.79Z"/>
      <path class="cls-8" d="M241.25,42.31c0-1.2,1.12-1.78,3.88-2-.03-.73-.38-1.34-1.42-1.34-.69,0-1.38.33-1.87.64l-.36-.62c.55-.35,1.45-.77,2.39-.77,1.46,0,2.18.87,2.18,2.2v3.28h-.76l-.08-.73h-.03c-.58.46-1.35.86-2.1.86-1,0-1.83-.56-1.83-1.52ZM245.13,42.3v-1.39c-2.29.18-2.98.63-2.98,1.33,0,.61.55.85,1.17.85s1.2-.29,1.82-.79Z"/>
      <path class="cls-8" d="M248.56,38.35h.76l.09,1.27h.02c.56-.87,1.4-1.4,2.39-1.4.4,0,.73.05,1.06.22l-.21.78c-.37-.12-.57-.18-.99-.18-.8,0-1.56.41-2.2,1.53v3.12h-.91v-5.35Z"/>
      <path class="cls-8" d="M254.59,38.35h.75l.08.68h.03c.5-.47,1.2-.81,1.85-.81,1.44,0,2.21,1.07,2.21,2.73,0,1.82-1.14,2.88-2.43,2.88-.5,0-1.11-.25-1.6-.69h-.02l.04,1.01v1.8h-.91v-7.6ZM258.57,40.94c0-1.18-.44-1.96-1.51-1.96-.47,0-1.02.24-1.56.79v2.66c.5.45,1.06.62,1.42.62.95,0,1.65-.79,1.65-2.11Z"/>
      <path class="cls-8" d="M261.05,42.31c0-1.2,1.12-1.78,3.88-2-.03-.73-.38-1.34-1.42-1.34-.69,0-1.38.33-1.87.64l-.36-.62c.55-.35,1.45-.77,2.39-.77,1.46,0,2.18.87,2.18,2.2v3.28h-.76l-.08-.73h-.03c-.58.46-1.35.86-2.1.86-1,0-1.83-.56-1.83-1.52ZM264.93,42.3v-1.39c-2.29.18-2.98.63-2.98,1.33,0,.61.55.85,1.17.85s1.2-.29,1.82-.79Z"/>
      <path class="cls-8" d="M208.15,56.19l.42-.6c.62.44,1.34.73,2.32.73.9,0,1.34-.37,1.34-.83,0-.41-.21-.69-1.66-.99-1.4-.29-2.09-.76-2.09-1.56,0-.86.76-1.52,2.22-1.52.81,0,1.63.32,2.16.68l-.44.58c-.5-.34-1.11-.56-1.79-.56-.9,0-1.23.36-1.23.77,0,.46.46.66,1.56.89,1.77.38,2.2.83,2.2,1.65,0,.87-.85,1.59-2.38,1.59-1.04,0-1.98-.38-2.63-.84Z"/>
      <path class="cls-8" d="M216.67,55.1v-5.3h-1.89v-.74h2.8v6.11c0,.77.42,1.1,1.06,1.1.31,0,.64-.08,1-.24l.23.68c-.5.21-.85.32-1.43.32-1.14,0-1.77-.66-1.77-1.92Z"/>
      <path class="cls-8" d="M221.45,55.51c0-1.2,1.12-1.78,3.88-2-.03-.73-.38-1.34-1.42-1.34-.69,0-1.38.33-1.87.64l-.36-.62c.55-.35,1.45-.77,2.39-.77,1.46,0,2.18.87,2.18,2.2v3.28h-.76l-.08-.73h-.03c-.58.46-1.35.86-2.1.86-1,0-1.83-.56-1.83-1.52ZM225.33,55.5v-1.39c-2.29.18-2.98.63-2.98,1.33,0,.61.55.85,1.17.85s1.2-.29,1.82-.79Z"/>
      <path class="cls-8" d="M228.05,54.23c0-1.79,1.36-2.82,2.98-2.82.87,0,1.51.35,1.95.78l-.45.58c-.44-.37-.9-.61-1.46-.61-1.23,0-2.08.83-2.08,2.06s.84,2.04,2.06,2.04c.66,0,1.21-.3,1.65-.67l.41.59c-.59.53-1.33.84-2.12.84-1.67,0-2.93-1.02-2.93-2.79Z"/>
      <path class="cls-8" d="M234.65,54.23c0-1.79,1.36-2.82,2.98-2.82.87,0,1.51.35,1.95.78l-.45.58c-.44-.37-.9-.61-1.46-.61-1.23,0-2.08.83-2.08,2.06s.84,2.04,2.06,2.04c.66,0,1.21-.3,1.65-.67l.41.59c-.59.53-1.33.84-2.12.84-1.67,0-2.93-1.02-2.93-2.79Z"/>
      <path class="cls-8" d="M243.83,52.28h-2.48v-.74h3.39v5.35h-.91v-4.61ZM243.47,49.72c0-.42.31-.7.73-.7s.73.29.73.7-.31.7-.73.7-.73-.28-.73-.7Z"/>
      <path class="cls-8" d="M247.85,55.51c0-1.2,1.12-1.78,3.88-2-.03-.73-.38-1.34-1.42-1.34-.69,0-1.38.33-1.87.64l-.36-.62c.55-.35,1.45-.77,2.39-.77,1.46,0,2.18.87,2.18,2.2v3.28h-.76l-.08-.73h-.03c-.58.46-1.35.86-2.1.86-1,0-1.83-.56-1.83-1.52ZM251.73,55.5v-1.39c-2.29.18-2.98.63-2.98,1.33,0,.61.55.85,1.17.85s1.2-.29,1.82-.79Z"/>
      <path class="cls-8" d="M255.83,54.81v-2.53h-1.52v-.68l1.55-.05.12-1.72h.76v1.72h2.62v.74h-2.62v2.54c0,.96.32,1.45,1.35,1.45.5,0,.89-.1,1.28-.24l.2.67c-.48.18-1,.32-1.67.32-1.56,0-2.07-.89-2.07-2.21Z"/>
      <path class="cls-8" d="M261.04,55.51c0-1.2,1.12-1.78,3.88-2-.03-.73-.38-1.34-1.42-1.34-.69,0-1.38.33-1.87.64l-.36-.62c.55-.35,1.45-.77,2.39-.77,1.46,0,2.18.87,2.18,2.2v3.28h-.76l-.08-.73h-.03c-.58.46-1.35.86-2.1.86-1,0-1.83-.56-1.83-1.52ZM264.93,55.5v-1.39c-2.29.18-2.98.63-2.98,1.33,0,.61.55.85,1.17.85s1.2-.29,1.82-.79Z"/>
    </g>
  </g>
  <g id="numeri_carte" data-name="numeri carte">
    <g>
      <path class="cls-8" d="M261.74,180.54h1.84v-4.68h-1.43v-.54c.75-.1,1.23-.25,1.64-.47h.62v5.69h1.66v.69h-4.33v-.69Z"/>
      <path class="cls-8" d="M267.74,180.54h1.84v-4.68h-1.43v-.54c.75-.1,1.23-.25,1.64-.47h.62v5.69h1.66v.69h-4.33v-.69Z"/>
    </g>
  </g>
</svg>