<svg xmlns="http://www.w3.org/2000/svg" id="Livello_2" data-name="Livello 2" viewBox="0 0 282.96 195.6"><defs><pattern id="pattern_journal" width="20.78" height="13.52" x="0" y="0" data-name="pattern journal" patternTransform="translate(-1459.31 -728.05)" patternUnits="userSpaceOnUse" viewBox="0 0 20.78 13.52"><path d="M0 0h20.78v13.52H0z" style="fill:none"/><path d="M.14 6.76 10.39.09l10.25 6.67-10.25 6.67zM10.39.09v13.34" style="fill:none;stroke-miterlimit:10;stroke:#cbcacc;stroke-width:.15px"/></pattern><style>.cls-1{stroke-width:.75px}.cls-1,.cls-10,.cls-3,.cls-7,.cls-8{fill:none}.cls-1,.cls-10,.cls-3{stroke-miterlimit:10}.cls-1,.cls-10{stroke:#1d1d1b}.cls-12{fill:#e52421}.cls-14{fill:#1d1d1b}.cls-15{fill:#fff}.cls-3,.cls-7,.cls-8{stroke-linecap:round;stroke-width:.5px}.cls-3,.cls-7{stroke:#fff}.cls-7,.cls-8{stroke-linejoin:round}.cls-8{stroke:#000}</style></defs><rect id="Livello_5" width="282.96" height="195.23" data-name="Livello 5" rx="7.66" ry="7.66" style="fill:url(#pattern_journal)"/><g id="KIPARLA"><rect width="52.23" height="195.23" y=".37" rx="7.66" ry="7.66" style="fill:#e52424"/><circle cx="81.14" cy="143.66" r=".74" class="cls-3"/><circle cx="125.29" cy="142.36" r=".74" class="cls-3"/><path d="M218.87 80.09c-.11-.22-.45-.22-.64-.06s-.26.41-.32.65c-2.54 10.13-.31 20.81 2.52 30.87-.38-.44-.6-1.02-.62-1.6m2.74-29.85c.09-.23.43-.26.63-.12s.3.39.38.62c3.5 9.84 2.3 20.69.43 30.97.33-.48.5-1.07.47-1.65" class="cls-1"/><path d="M220.58 71.73c.06-.35-.49-.52-.75-.29-.27.23-.3.63-.31.98-.05 1.4-.1 2.83.34 4.16.1.31.26.63.56.74.44.16.88-.23 1.13-.63.59-.95.76-2.11.82-3.23.03-.58.03-1.18-.2-1.7-.24-.52-.78-.95-1.35-.88-.72.09-1.13.9-1.19 1.63s.11 1.47-.04 2.18M94.28 84.46c.06-.35-.49-.52-.75-.29-.27.23-.3.63-.31.98-.05 1.4-.1 2.83.34 4.16.1.31.26.63.56.74.44.16.88-.23 1.13-.63.59-.95.76-2.11.82-3.23.03-.58.03-1.18-.2-1.7-.24-.52-.78-.95-1.35-.88-.72.09-1.13.9-1.19 1.63s.11 1.47-.04 2.18" class="cls-14"/><path d="M93.18 92.99c-1.81-.06-3.63.05-5.42.33.82.02 1.1 1.1 1.13 1.92.41 10.23.41 20.48 0 30.71-.18 4.42-.43 8.89.29 13.25-.13-.4-.13-.84 0-1.24l3.77.59m2.38-45.5c1.81-.11 3.63-.05 5.42.18-.82.04-1.07 1.13-1.08 1.95-.13 10.24.15 20.48.84 30.7.3 4.42.67 8.87.07 13.26.11-.41.1-.84-.03-1.24l-3.75.7" class="cls-1"/><path d="M222.35 113.57c.56 1.11-3 2.07-3.7 2.17.61-.08 2.99-3.56 3.7-2.17" class="cls-14"/><path d="M218.65 115.74c.71-.1 4.27-1.05 3.7-2.17-.71-1.39-3.09 2.08-3.7 2.17Z" class="cls-10"/><path d="M222.58 113.72c-.47 1.16 3.16 1.82 3.87 1.86-.62-.03-3.28-3.3-3.87-1.86" class="cls-14"/><path d="M226.45 115.58c-.71-.04-4.34-.7-3.87-1.86.59-1.44 3.25 1.82 3.87 1.86Z" class="cls-10"/><path d="M94.44 140.43c.56 1.11-3 2.07-3.7 2.17.61-.08 2.99-3.56 3.7-2.17" class="cls-14"/><path d="M90.73 142.59c.71-.1 4.27-1.05 3.7-2.17-.71-1.39-3.09 2.08-3.7 2.17Z" class="cls-10"/><path d="M94.66 140.57c-.47 1.16 3.16 1.82 3.87 1.86-.62-.03-3.28-3.3-3.87-1.86" class="cls-14"/><path d="M98.53 142.43c-.71-.04-4.34-.7-3.87-1.86.59-1.44 3.25 1.82 3.87 1.86Z" class="cls-10"/><text style="fill:#fff;font-family:StylusBT,&quot;Stylus BT&quot;;font-size:9px" transform="matrix(1.5 0 0 .81 6.73 42.48)"><tspan x="0" y="0">k parla</tspan></text><path d="M7.48 45.16h36.55v6.3H7.48z" class="cls-15"/><path d="M22.82 18.17c-.05-.19-.14-.46-.36-.71-.14-.17-.33-.39-.65-.44-.28-.05-.8.07-.89.11-.4.2-.54.57-.57.65-.15.4-.02.75.03.88.03.09.17.44.52.67.54.35.94-.02 1.5.32.37.23.53.6.58.72.18.43.13.81.1.96m.05 1.14v.34m10.91 3.86c.61-.14 1.8-.52 2.92-1.54 1.48-1.34 1.9-2.97 2.02-3.56m-4.97 5.89a7.3 7.3 0 0 1 5.18 5.23m-2.38-5.74h.38" class="cls-7"/><path d="M17.21 36.12c.71-1.64 1.34-3.65.66-6.79-.62-2.86-2.81-4.39-3.74-8.79-.28-1.33-.48-2.26-.36-3.56.44-4.62 4.42-7.15 4.76-7.38.69-.46 3.38-1.96 7.28-1.43 2.66.36 4.53 2.01 5.01 2.53.42.46.97 1.07 1.37 2.03.47 1.12.51 2.2.55 3.07.02.38 0 .22 0 1.93 0 1.16.02 1.57.19 2.12.18.59.45 1.02.58 1.23.15.23.42.64.91 1.02.6.48 1.05.54 1.18.99.02.06.07.25 0 .46-.16.48-.77.46-1.21 1.08-.09.13-.14.23-.2.38-.4.88-.31 1.79-.36 3.74 0 .2-.02.62-.17 1.14-.11.37-.22.75-.55.99-.2.15-.42.19-.92.22-1.33.08-2.06-.08-3.42 0-.06 0-.04 0-.16.01-.98.06-1.54.1-2.15.09-.48-.01-.84-.02-1.33-.12-.51-.1-.79-.16-1.09-.38-.04-.03-.74-.54-.82-1.3v-1.36c0-.49-.03-1.96-.09-3.95m-6.66 13.54c.17-.33.05-.09.17-.33m-2.3 4.9c0-.24.85-1.97 1.58-3.42" class="cls-7"/><text style="fill:#e52421;font-family:Century,Century;font-size:5.47px" transform="matrix(1.18 0 0 1 13.03 50.34)"><tspan x="0" y="0">KPN005</tspan></text><path d="M224.17 71.73h1.1m18.85-3.39c2.75.73 8.37.51 11.06-2.15 1.32-1.31 3.21-2.9 3.57-5.59.32-2.36-.75-6.73-1.15-7.48-1.77-3.29-4.93-4.42-5.62-4.64-3.41-1.12-6.31 0-7.38.43-.75.3-3.66 1.52-5.48 4.5-2.83 4.63.39 7.93-2.32 12.66-1.81 3.16-4.81 4.78-5.88 5.02-3.34.74-2.68.55-4.04.64" class="cls-8"/><path d="M118 71.35h1.1m4.01 0h1.1m4 0h1.1" style="fill:none;stroke-linecap:round;stroke-linejoin:round;stroke-width:2px;stroke:#000"/><path d="M98.79 84.89h1.1m18.84-3.39c2.75.73 8.37.51 11.06-2.15 1.32-1.31 3.21-2.9 3.57-5.59.32-2.36-.75-6.73-1.15-7.48-1.77-3.29-4.93-4.42-5.62-4.64-3.41-1.12-6.31 0-7.38.43-.75.3-3.66 1.52-5.48 4.5-2.83 4.63.39 7.93-2.32 12.66-1.81 3.16-4.81 4.78-5.88 5.02-3.34.74-2.68.55-4.04.64" class="cls-8"/><path d="M246.16 55.24c.01-.42.09-1.03.44-1.67.23-.42.53-.98 1.18-1.23.57-.22 1.73-.22 1.94-.16.93.24 1.4.97 1.5 1.12.49.79.38 1.58.34 1.87-.03.21-.16 1.01-.79 1.64-.99.99-2 .38-3.02 1.35-.68.64-.84 1.5-.9 1.77-.19.98.08 1.76.21 2.08m.36 2.46c.04.24.09.48.13.73M103.6 127.62l6.47-4.26 20.77 13.96 20.76-13.96V95.73l10.09-6.26 10.47 7.25 10.44-7.13 10.7 7.05v26.72l20.26-13.28" style="fill:none;stroke-linecap:round;stroke:#e5232b;stroke-linejoin:round"/><path d="M24.94 173.53h-6.3v-6.3h6.3zm-10.6 4.13h14.38v-10.38h5.62v10.38h4.6v-10.38l-12.3-9.53-12.3 9.96v9.96Z" class="cls-15"/><path d="m13.4 166.59 13.24-10.89 14.08 10.89 1.36-1.87-5.34-4.25v-5.45l-3.1-.04.03 3.25-7.03-5.42-14.68 12z" class="cls-15"/><path d="M63.84 126.86c1.74-.04.72.17 4 0s4.72-.07 6 .03 2.89.44 4.68.35 3.45-.12 4.68-.23 2.51-.21 3.57-.24 5.32-1.1 6.38-1.1 1.83-.09 2.21 0" style="fill:none;stroke-linecap:round;stroke:#fff;stroke-linejoin:round"/><path d="M17.91 115.66s-.8-11.81-.9-12.86-1.1-9.61-1.1-9.61h17.07s1.7 9.96 2 12.16l1.35 9.91z" class="cls-12"/><path d="M17.72 115.86v-.19c-.02-.12-.81-11.82-.91-12.86s-1.09-9.52-1.1-9.61l-.03-.22h17.45l.03.16c.02.1 1.71 9.99 2 12.17l1.38 10.13-18.83.41Zm-1.6-22.48c.16 1.35.99 8.45 1.08 9.4.09.97.79 11.17.89 12.68l18.01-.39-1.32-9.69c-.28-2.02-1.75-10.69-1.97-11.99H16.13Z" class="cls-15"/><path d="M18.74 98.68c-.1 0-.18-.07-.19-.17-.01-.11.06-.21.17-.22.05 0 1.28-.17 2.28-.14s2.73.06 3.37.06c.66 0 1.65-.14 2.36-.28.24-.05.45-.09.65-.13.45-.09.81-.17 1.13-.19.11 0 1.12-.04 1.38.11.1.03.51.03.6 0 .1-.03.21.02.25.12.03.1-.02.21-.12.25-.13.04-.73.09-.93-.04-.12-.04-.74-.08-1.15-.05-.29.02-.64.09-1.08.18-.2.04-.41.08-.65.13-.94.18-1.86.27-2.43.28-.64 0-2.38-.03-3.38-.06-.97-.03-2.21.13-2.22.13h-.03Zm.62 1.91c-.09 0-.18-.07-.19-.16-.02-.11.05-.21.16-.23 2.09-.35 3.23-.37 3.28-.37h1.54c.37 0 .73-.04 1.12-.07.21-.02.42-.04.66-.06.21-.02.36-.08.51-.15.3-.13.61-.26 1.12.1.32.23.44.2.79.1.24-.06.56-.15 1.06-.17.53-.02 1.03-.02 1.42-.02.41 0 .84 0 .93-.03.1-.04.21.01.25.11s-.01.21-.11.25c-.15.06-.45.06-1.07.06-.4 0-.89 0-1.41.02-.45.02-.74.1-.97.16-.38.1-.65.17-1.12-.16-.33-.23-.46-.18-.73-.06-.16.07-.37.16-.64.18-.23.02-.44.04-.65.06-.39.04-.76.08-1.15.08h-1.53s-1.16.02-3.22.36h-.03Zm0 1.95c-.1 0-.18-.07-.19-.17-.01-.11.06-.21.17-.22 1.11-.15 2.51-.32 2.83-.32.06 0 .1.01.14.03.1.03.3.09 1 .13.68.04 1.27.02 1.65 0h.38c.13.02.49-.16.68-.27.09-.05.21-.02.27.07.05.09.02.21-.07.27-.1.05-.6.32-.89.32h-.35c-.39.01-.99.03-1.69 0-.75-.04-.98-.11-1.09-.15-.17-.01-.7.03-2.81.31z" class="cls-15"/><path d="m26.22 101.89-.47 5.79 3.67 12.68s1.97.3 2.37 0 1.6-1.5 1.6-1.5l-4-12.51-3.17-4.45Z" class="cls-15"/><path d="M30.96 120.69c-.6 0-1.28-.09-1.57-.14a.19.19 0 0 1-.16-.14l-3.67-12.68v-.07l.47-5.79c0-.08.06-.15.14-.17s.16 0 .21.08l3.17 4.45s.02.03.03.05l4 12.51c.02.07 0 .15-.05.2s-1.22 1.21-1.62 1.52c-.17.13-.54.17-.95.17Zm-1.38-.51c.88.13 1.9.17 2.1.02.32-.24 1.22-1.12 1.5-1.4l-3.96-12.37-2.84-3.99-.42 5.22 3.63 12.52Z" class="cls-15"/><path d="m25.91 105.8.66-.35h.68l.45-.47h.52l-1.05-1.53-1.06.4z" class="cls-12"/></g></svg>