<?xml version="1.0" encoding="UTF-8"?>
<svg id="Livello_2" data-name="Livello 2" xmlns="http://www.w3.org/2000/svg" viewBox="0 0 20.87 27.71">
  <defs>
    <style>
      .cls-1 {
        fill: #e52421;
      }

      .cls-2 {
        fill: #fff;
      }
    </style>
  </defs>
  <g id="KIPARLA">
    <g>
      <path class="cls-1" d="M2.04,22.87v-.19c-.02-.12-.81-11.82-.91-12.86C1.03,8.79.04.3.03.22l-.03-.22h17.45l.03.16c.02.1,1.71,9.99,2,12.17l1.38,10.13-18.83.41ZM.44.39c.16,1.35.99,8.45,1.08,9.4.09.97.79,11.17.89,12.68l18.01-.39-1.32-9.69c-.28-2.02-1.75-10.69-1.97-11.99H.44Z"/>
      <path class="cls-1" d="M3.06,5.7c-.1,0-.18-.07-.19-.17-.01-.11.06-.21.17-.22.05,0,1.28-.17,2.28-.14,1,.03,2.73.06,3.37.06.66,0,1.65-.14,2.36-.28.24-.05.45-.09.65-.13.45-.09.81-.17,1.13-.19.11,0,1.12-.04,1.38.11.1.03.51.03.6,0,.1-.03.21.02.25.12.03.1-.02.21-.12.25-.13.04-.73.09-.93-.04-.12-.04-.74-.08-1.15-.05-.29.02-.64.09-1.08.18-.2.04-.41.08-.65.13-.94.18-1.86.27-2.43.28-.64,0-2.38-.03-3.38-.06-.97-.03-2.21.13-2.22.13,0,0-.02,0-.03,0Z"/>
      <path class="cls-1" d="M3.67,7.6c-.09,0-.18-.07-.19-.16-.02-.11.05-.21.16-.23,2.09-.35,3.23-.37,3.28-.37h1.54c.37,0,.73-.04,1.12-.07.21-.02.42-.04.66-.06.21-.02.36-.08.51-.15.3-.13.61-.26,1.12.1.32.23.44.2.79.1.24-.06.56-.15,1.06-.17.53-.02,1.03-.02,1.42-.02.41,0,.84,0,.93-.03.1-.04.21.01.25.11.04.1-.01.21-.11.25-.15.06-.45.06-1.07.06-.4,0-.89,0-1.41.02-.45.02-.74.1-.97.16-.38.1-.65.17-1.12-.16-.33-.23-.46-.18-.73-.06-.16.07-.37.16-.64.18-.23.02-.44.04-.65.06-.39.04-.76.08-1.15.08h-1.53s-1.16.02-3.22.36c-.01,0-.02,0-.03,0Z"/>
      <path class="cls-1" d="M3.67,9.55c-.1,0-.18-.07-.19-.17-.01-.11.06-.21.17-.22,1.11-.15,2.51-.32,2.83-.32.06,0,.1.01.14.03.1.03.3.09,1,.13.68.04,1.27.02,1.65,0,.17,0,.3,0,.38,0,.13.02.49-.16.68-.27.09-.05.21-.02.27.07.05.09.02.21-.07.27-.1.05-.6.32-.89.32-.07,0-.19,0-.35,0-.39.01-.99.03-1.69,0-.75-.04-.98-.11-1.09-.15-.17-.01-.7.03-2.81.31,0,0-.02,0-.03,0Z"/>
      <g>
        <path class="cls-1" d="M10.54,8.91l-.47,5.79,3.67,12.68s1.97.3,2.37,0,1.6-1.5,1.6-1.5l-4-12.51-3.17-4.45Z"/>
        <path class="cls-2" d="M15.28,27.71c-.6,0-1.28-.09-1.57-.14-.08-.01-.14-.07-.16-.14l-3.67-12.68s0-.05,0-.07l.47-5.79c0-.08.06-.15.14-.17.08-.02.16,0,.21.08l3.17,4.45s.02.03.03.05l4,12.51c.02.07,0,.15-.05.2-.05.05-1.22,1.21-1.62,1.52-.17.13-.54.17-.95.17ZM13.89,27.2c.88.13,1.9.17,2.1.02.32-.24,1.22-1.12,1.5-1.4l-3.96-12.37-2.84-3.99-.42,5.22,3.63,12.52Z"/>
      </g>
      <polygon class="cls-2" points="10.22 12.82 10.89 12.47 11.57 12.47 12.02 11.99 12.54 11.99 11.49 10.47 10.43 10.87 10.22 12.82"/>
    </g>
  </g>
</svg>