<svg xmlns="http://www.w3.org/2000/svg" id="Livello_2" data-name="Livello 2" viewBox="0 0 116.85 25.16"><defs><style>.cls-1{fill:#1d1d1b}.cls-2{fill:#fff;stroke:#e52424;stroke-miterlimit:10}</style></defs><g id="bordi"><rect width="104.07" height="18.64" x="12.28" y="6.02" class="cls-2" rx="3.32" ry="3.32"/><rect width="17.77" height="18.64" x=".5" y=".5" class="cls-2" rx="3.32" ry="3.32"/><path d="M8.76 6.37h1.25l2.87 8.53h-1.17l-1.47-4.76c-.3-.95-.58-1.88-.84-2.87h-.05c-.27.99-.55 1.92-.85 2.87L7 14.9H5.88l2.87-8.53Zm-1.35 5.06h3.91v.88H7.41z" class="cls-1"/></g><path id="RISPOSTE" d="m55.21 13.68 1.41-.05h2.83v.67h-4.24zm1.39-.46c0-1.18.62-1.97 1.96-1.97.48 0 .94.09 1.4.28l-.19.62c-.4-.17-.71-.23-1.13-.23-.87 0-1.22.49-1.22 1.27v5.3h-.82zm6.73 1.08h-2.25v-.67h3.08v4.86h-.83zM63 11.97c0-.38.28-.64.66-.64s.66.26.66.64-.28.64-.66.64-.66-.25-.66-.64m5.64 4.89v-4.82h-1.72v-.67h2.55v5.55c0 .7.38 1 .96 1 .28 0 .58-.07.91-.22l.21.62c-.45.19-.77.29-1.3.29-1.04 0-1.61-.6-1.61-1.75m4.14-.79c0-1.63 1.12-2.56 2.4-2.56s2.4.93 2.4 2.56-1.12 2.54-2.4 2.54-2.4-.93-2.4-2.54m3.95 0c0-1.12-.62-1.87-1.55-1.87s-1.55.75-1.55 1.87.62 1.85 1.55 1.85 1.55-.74 1.55-1.85" class="cls-1"/></svg>