<?xml version="1.0" encoding="UTF-8"?>
<svg id="Livello_2" data-name="Livello 2" xmlns="http://www.w3.org/2000/svg" viewBox="0 0 38.26 36.66">
  <defs>
    <style>
      @import url('https://fonts.googleapis.com/css2?family=Caveat&amp;display=swap');

      .cls-1 {
        fill: #e52424;
        font-family: 'Caveat', cursive;
        font-size: 9px;
      }

      .cls-2 {
        fill: none;
        stroke: #e52424;
        stroke-linecap: round;
        stroke-linejoin: round;
        stroke-width: .5px;
      }
    </style>
  </defs>
  <g id="KIPARLA">
    <text class="cls-1" transform="translate(0 34.67) scale(1.5 .81)"><tspan x="0" y="0">k parla</tspan></text>
    <path class="cls-2" d="M16.09,10.37c-.05-.19-.14-.46-.36-.71-.14-.17-.33-.39-.65-.44-.28-.05-.8.07-.89.11-.4.2-.54.57-.57.65-.15.4-.02.75.03.88.03.09.17.44.52.67.54.35.94-.02,1.5.32.37.23.53.6.58.72.18.43.13.81.1.96"/>
    <path class="cls-2" d="M16.4,14.67c0,.11,0,.23,0,.34"/>
    <path class="cls-2" d="M27.31,18.86c.61-.14,1.8-.52,2.92-1.54,1.48-1.34,1.9-2.97,2.02-3.56"/>
    <path class="cls-2" d="M27.29,19.66c.63.17,2.02.63,3.28,1.9,1.28,1.28,1.73,2.7,1.9,3.33"/>
    <path class="cls-2" d="M30.08,19.15h.38"/>
    <path class="cls-2" d="M9.74,29.83c.17-.33.05-.09.17-.33"/>
    <path class="cls-2" d="M7.61,34.4c0-.24.85-1.97,1.58-3.42"/>
    <path class="cls-2" d="M10.49,28.31c.71-1.64,1.34-3.65.66-6.79-.62-2.86-2.81-4.39-3.74-8.79-.28-1.33-.48-2.26-.36-3.56.44-4.62,4.42-7.15,4.76-7.38.69-.46,3.38-1.96,7.28-1.43,2.66.36,4.53,2.01,5.01,2.53.42.46.97,1.07,1.37,2.03.47,1.12.51,2.2.55,3.07.02.38,0,.22,0,1.93,0,1.16.02,1.57.19,2.12.18.59.45,1.02.58,1.23.15.23.42.64.91,1.02.6.48,1.05.54,1.18.99.02.06.07.25,0,.46-.16.48-.77.46-1.21,1.08-.09.13-.14.23-.2.38-.4.88-.31,1.79-.36,3.74,0,.2-.02.62-.17,1.14-.11.37-.22.75-.55.99-.2.15-.42.19-.92.22-1.33.08-2.06-.08-3.42,0-.06,0-.04,0-.16.01-.98.06-1.54.1-2.15.09-.48-.01-.84-.02-1.33-.12-.51-.1-.79-.16-1.09-.38-.04-.03-.74-.54-.82-1.3,0-.03,0-.02,0-.51,0,0,0-.24,0-.85,0-.49-.03-1.96-.09-3.95"/>
  </g>
</svg>