<?xml version="1.0" encoding="UTF-8"?>
<svg id="Livello_2" data-name="Livello 2" xmlns="http://www.w3.org/2000/svg" viewBox="0 0 50.68 15.29">
  <defs>
    <style>
      .cls-1 {
        fill: #fff;
      }

      .cls-2 {
        fill: #e52424;
      }
    </style>
  </defs>
  <g id="rettangoli_rossi_sulle_carte" data-name="rettangoli rossi sulle carte">
    <rect class="cls-2" x=".37" width="50.32" height="12.96" rx="1.86" ry="1.86"/>
  </g>
  <g id="DOMANDE">
    <g>
      <path class="cls-1" d="M3.15,8.27v-3.32h.91v3.2c0,1,.35,1.49,1.23,1.49.62,0,1.07-.29,1.66-.98v-3.71h.91v5.35h-.76l-.08-.94h-.04c-.54.63-1.17,1.07-1.99,1.07-1.27,0-1.85-.75-1.85-2.16Z"/>
      <path class="cls-1" d="M9.93,4.95h.75l.08.9h.04c.56-.58,1.18-1.03,2.01-1.03,1.27,0,1.85.75,1.85,2.16v3.32h-.91v-3.2c0-1.01-.35-1.48-1.22-1.48-.64,0-1.07.32-1.68.96v3.73h-.91v-5.35Z"/>
      <path class="cls-1" d="M23.24,5l1.55-.05h3.11v.74h-4.66v-.68ZM24.77,4.5c0-1.3.68-2.17,2.16-2.17.53,0,1.03.1,1.54.31l-.21.68c-.44-.19-.78-.25-1.24-.25-.96,0-1.34.54-1.34,1.4v5.83h-.9v-5.8Z"/>
      <path class="cls-1" d="M32.17,5.69h-2.47v-.74h3.39v5.35h-.91v-4.61ZM31.81,3.12c0-.42.31-.7.73-.7s.73.29.73.7-.31.7-.73.7-.73-.28-.73-.7Z"/>
      <path class="cls-1" d="M38.01,8.5V3.2h-1.89v-.74h2.8v6.11c0,.77.42,1.1,1.06,1.1.31,0,.64-.08,1-.24l.23.68c-.5.21-.85.32-1.43.32-1.14,0-1.77-.66-1.77-1.93Z"/>
      <path class="cls-1" d="M42.56,7.63c0-1.79,1.23-2.82,2.64-2.82s2.64,1.02,2.64,2.82-1.23,2.79-2.64,2.79-2.64-1.02-2.64-2.79ZM46.91,7.63c0-1.23-.68-2.06-1.71-2.06s-1.71.83-1.71,2.06.68,2.04,1.71,2.04,1.71-.81,1.71-2.04Z"/>
    </g>
  </g>
</svg>