<svg xmlns="http://www.w3.org/2000/svg" id="Livello_2" data-name="Livello 2" viewBox="0 0 282.96 195.56"><defs><pattern id="pattern_journal" width="20.78" height="13.52" x="0" y="0" data-name="pattern journal" patternTransform="translate(-1459.31 -498.59)" patternUnits="userSpaceOnUse" viewBox="0 0 20.78 13.52"><path d="M0 0h20.78v13.52H0z" style="fill:none"/><path d="M.14 6.76 10.39.09l10.25 6.67-10.25 6.67zM10.39.09v13.34" style="fill:none;stroke-miterlimit:10;stroke:#cbcacc;stroke-width:.15px"/></pattern><style>@import url(https://fonts.googleapis.com/css2?family=Caveat&display=swap);.cls-1{stroke-width:.75px}.cls-1,.cls-3,.cls-5,.cls-6,.cls-7,.cls-8{fill:none}.cls-1,.cls-3,.cls-8{stroke-miterlimit:10}.cls-1,.cls-8{stroke:#1d1d1b}.cls-11{fill:url(#pattern_journal)}.cls-13{fill:#1d1d1b}.cls-15{fill:#fff}.cls-11,.cls-3,.cls-5,.cls-6,.cls-7{stroke-linecap:round}.cls-3,.cls-6{stroke:#fff}.cls-3,.cls-6,.cls-7{stroke-width:.5px}.cls-11{stroke:#e52424}.cls-11,.cls-5,.cls-6,.cls-7{stroke-linejoin:round}.cls-5{stroke-width:2px}.cls-5,.cls-7{stroke:#000}</style></defs><g id="Livello_5" data-name="Livello 5"><rect width="282.96" height="195.23" y=".33" rx="7.66" ry="7.66" style="fill:url(#pattern_journal)"/><rect width="52.23" height="195.23" rx="7.66" ry="7.66" style="fill:#e52424"/><path d="M12.33 182.15v-10.47h28v10.47H20.46v-8.38h-5.11v8.38zm24.85-7.62h-13.7v4.13h13.7zm-23.85-17h26v2.17h-26zm-3.89 11.33 3.44-7.62H39.8l3 7.62v.09c0 .83-.76 1.51-1.69 1.51s-1.69-.68-1.69-1.51h-1.6c0 .83-.76 1.51-1.69 1.51s-1.69-.68-1.69-1.51h-1.6c0 .83-.76 1.51-1.69 1.51s-1.69-.68-1.69-1.51h-1.6c0 .83-.76 1.51-1.69 1.51s-1.69-.68-1.69-1.51h-1.6c0 .83-.76 1.51-1.69 1.51s-1.69-.68-1.69-1.51h-1.6c0 .83-.76 1.51-1.69 1.51s-1.69-.68-1.69-1.51h-1.6c0 .83-.76 1.51-1.69 1.51s-1.69-.68-1.69-1.51l-.13-.09Z" class="cls-15"/><path d="m89.16 109.68 31.33-20.38 10.29 6.99 16.95-11.33" class="cls-11"/><path d="m165.38 78 17.61 11.55 10.34-6.77 20.43 13.51v13.39l12.25 8.21" class="cls-11"/><path d="m226.01 128.97-23.06 14.52 21.51 13.57-21.51 13.66-9.77-7.02-21.13 13.23-10.53-6.59-10.46 6.59" class="cls-11"/><path d="m141.17 170.8-21.09-13.78 10.54-6.94-21.12-13.62v-13.53l-20.68 13.79.34-13.79-3.92 2.81" class="cls-11"/><circle cx="102" cy="101.34" r=".74" class="cls-3"/><circle cx="125.96" cy="93" r=".74" class="cls-3"/><circle cx="142.74" cy="88.28" r=".74" class="cls-3"/><circle cx="186.89" cy="86.98" r=".74" class="cls-3"/><circle cx="207.73" cy="146.52" r=".74" class="cls-3"/><circle cx="124.66" cy="146.25" r=".74" class="cls-3"/></g><g id="luoghi"><path d="M78.32 93.32c-.11-.22-.45-.22-.64-.06s-.26.41-.32.65c-2.54 10.13-.31 20.81 2.52 30.87-.38-.44-.6-1.02-.62-1.6m2.73-29.85c.09-.23.43-.26.63-.12s.3.39.38.62c3.5 9.84 2.3 20.69.43 30.97.33-.48.5-1.07.47-1.65" class="cls-1"/><path d="M80.02 84.97c.06-.35-.49-.52-.75-.29-.27.23-.3.63-.31.98-.05 1.4-.1 2.83.34 4.16.1.31.26.63.56.74.44.16.88-.23 1.13-.63.59-.95.76-2.11.82-3.23.03-.58.03-1.18-.2-1.7-.24-.52-.78-.95-1.35-.88-.72.09-1.13.9-1.19 1.63s.11 1.47-.04 2.18m76.86-58.84c.06-.35-.49-.52-.75-.29-.27.23-.3.63-.31.98-.05 1.4-.1 2.83.34 4.16.1.31.26.63.56.74.44.16.88-.23 1.13-.63.59-.95.76-2.11.82-3.23.03-.58.03-1.18-.2-1.7-.24-.52-.78-.95-1.35-.88-.72.09-1.13.9-1.19 1.63s.11 1.47-.04 2.18m77.06 40.32c.06-.35-.49-.52-.75-.29-.27.23-.3.63-.31.98-.05 1.4-.1 2.83.34 4.16.1.31.26.63.56.74.44.16.88-.23 1.13-.63.59-.95.76-2.11.82-3.23.03-.58.03-1.18-.2-1.7-.24-.52-.78-.95-1.35-.88-.72.09-1.13.9-1.19 1.63s.11 1.47-.04 2.18" class="cls-13"/><path d="M154.78 37.61c-1.81-.06-3.63.05-5.42.33.82.02 1.1 1.1 1.13 1.92.41 10.23.41 20.48 0 30.71-.18 4.42-.43 8.89.29 13.25-.13-.4-.13-.84 0-1.24l3.77.59m2.38-45.49c1.81-.11 3.63-.05 5.42.18-.82.04-1.07 1.13-1.08 1.95-.13 10.24.15 20.48.84 30.7.3 4.42.67 8.87.07 13.26.11-.41.1-.84-.03-1.24l-3.75.7m72.6 38.38c-.07.61-.15 1.26-.43 1.75s-.85.79-1.25.46c-.21-.17-.34-.46-.45-.75-.97-2.56-1-5.55-.74-8.39s.8-5.62.92-8.47-.23-5.86-1.56-8.13c-.19-.33-.45-.67-.77-.65.21.66.66 1.46 1.17 1.19.37-.2.45-.83.45-1.36-.01-1.54-.25-3.07-.42-4.6-.25-2.33-.34-4.7-.25-7.05.07-1.76.24-3.57.96-5.07.31-.66.74-1.25 1.29-1.55s1.23-.26 1.69.23m1.12 42.39c.06.62.13 1.26.4 1.77s.83.81 1.25.49c.21-.16.35-.45.46-.74 1.01-2.54 1.09-5.52.88-8.36-.22-2.84-.71-5.64-.79-8.5s.32-5.85 1.68-8.09c.2-.33.46-.66.78-.63-.22.66-.68 1.44-1.19 1.16-.37-.21-.44-.84-.43-1.37.04-1.54.3-3.06.49-4.58.29-2.33.41-4.69.36-7.04-.04-1.76-.19-3.58-.88-5.09-.3-.67-.72-1.27-1.26-1.58s-1.22-.29-1.69.19" class="cls-1"/><path d="M81.8 126.81c.56 1.11-3 2.07-3.7 2.17.61-.08 2.99-3.56 3.7-2.17" class="cls-13"/><path d="M78.09 128.97c.71-.1 4.27-1.05 3.7-2.17-.71-1.39-3.09 2.08-3.7 2.17Z" class="cls-8"/><path d="M82.02 126.95c-.47 1.15 3.16 1.82 3.87 1.86-.61-.03-3.28-3.3-3.87-1.86" class="cls-13"/><path d="M85.89 128.81c-.71-.04-4.34-.7-3.87-1.86.59-1.44 3.25 1.82 3.87 1.86Z" class="cls-8"/><path d="M141.81 143.67c-.11-.22-.45-.22-.64-.06s-.26.41-.32.65c-2.54 10.13-.31 20.81 2.52 30.87-.38-.44-.6-1.02-.62-1.6m2.74-29.85c.09-.23.43-.26.63-.12s.3.39.38.62c3.5 9.84 2.3 20.69.43 30.97.33-.48.5-1.07.47-1.65" class="cls-1"/><path d="M143.52 135.31c.06-.35-.49-.52-.75-.29-.27.23-.3.63-.31.98-.05 1.4-.1 2.83.34 4.16.1.31.26.63.56.74.44.16.88-.23 1.13-.63.59-.95.76-2.11.82-3.23.03-.58.03-1.18-.2-1.7-.24-.52-.78-.95-1.35-.88-.72.09-1.13.9-1.19 1.63s.11 1.47-.04 2.18m2.76 38.88c.56 1.11-3 2.07-3.7 2.17.61-.08 2.99-3.56 3.7-2.17" class="cls-13"/><path d="M141.59 179.32c.71-.1 4.27-1.05 3.7-2.17-.71-1.39-3.09 2.08-3.7 2.17Z" class="cls-8"/><path d="M145.52 177.3c-.47 1.15 3.16 1.82 3.87 1.86-.61-.03-3.28-3.3-3.87-1.86" class="cls-13"/><path d="M149.38 179.16c-.71-.04-4.34-.7-3.87-1.86.59-1.44 3.25 1.82 3.87 1.86Z" class="cls-8"/><path d="M156.04 85.05c.56 1.11-3 2.07-3.7 2.17.61-.08 2.99-3.56 3.7-2.17" class="cls-13"/><path d="M152.34 87.22c.71-.1 4.27-1.05 3.7-2.17-.71-1.39-3.09 2.08-3.7 2.17Z" class="cls-8"/><path d="M156.27 85.2c-.47 1.15 3.16 1.82 3.87 1.86-.61-.03-3.28-3.3-3.87-1.86" class="cls-13"/><path d="M160.13 87.06c-.71-.04-4.34-.7-3.87-1.86.59-1.44 3.25 1.82 3.87 1.86Z" class="cls-8"/><path d="M231.88 125.57c.56 1.11-3 2.07-3.7 2.17.61-.08 2.99-3.56 3.7-2.17" class="cls-13"/><path d="M228.18 127.73c.71-.1 4.27-1.05 3.7-2.17-.71-1.39-3.09 2.08-3.7 2.17Z" class="cls-8"/><path d="M232.11 125.72c-.47 1.15 3.16 1.82 3.87 1.86-.61-.03-3.28-3.3-3.87-1.86" class="cls-13"/><path d="M235.98 127.57c-.71-.04-4.34-.7-3.87-1.86.59-1.44 3.25 1.82 3.87 1.86Z" class="cls-8"/><path d="M238.89 96.94c.21-.89 1.52-.83 1.99-.07s.37 1.77.27 2.69c-1 8.94-.32 18.11 1.99 26.75" class="cls-1"/><circle cx="266.35" cy="179.32" r="10.99" style="stroke-miterlimit:10;fill:#fff;stroke:#e52424"/><text style="fill:#1d1d1b;font-family:Lato,sans-serif;font-size:12px" transform="translate(263.24 183.26)"><tspan x="0" y="0">1</tspan></text></g><g id="KIPARLA"><text style="fill:#fff;font-family:Caveat,cursive;font-size:9px" transform="matrix(1.5 0 0 .81 4.07 41.79)"><tspan x="0" y="0">k parla</tspan></text><path d="M4.82 44.47h36.55v6.3H4.82z" class="cls-15"/><path d="M20.16 17.48c-.05-.19-.14-.46-.36-.71-.14-.17-.33-.39-.65-.44-.28-.05-.8.07-.89.11-.4.2-.54.57-.57.65-.15.4-.02.75.03.88.03.09.17.44.52.67.54.35.94-.02 1.5.32.37.23.53.6.58.72.18.43.13.81.1.96m.05 1.15v.34m10.91 3.85c.61-.14 1.8-.52 2.92-1.54 1.48-1.34 1.9-2.97 2.02-3.56m-4.97 5.89A7.3 7.3 0 0 1 36.53 32m-2.38-5.74h.38" class="cls-6"/><path d="M14.55 35.43c.71-1.64 1.34-3.65.66-6.79-.62-2.86-2.81-4.39-3.74-8.79-.28-1.33-.48-2.26-.36-3.56.44-4.62 4.42-7.15 4.76-7.38.69-.46 3.38-1.96 7.28-1.43 2.66.36 4.53 2.01 5.01 2.53.42.46.97 1.07 1.37 2.03.47 1.12.51 2.2.55 3.07.02.38 0 .22 0 1.93 0 1.16.02 1.57.19 2.12.18.59.45 1.02.58 1.23.15.23.42.64.91 1.02.6.48 1.05.54 1.18.99.02.06.07.25 0 .46-.16.48-.77.46-1.21 1.08-.09.13-.14.23-.2.38-.4.88-.31 1.79-.36 3.74 0 .2-.02.62-.17 1.14-.11.37-.22.75-.55.99-.2.15-.42.19-.92.22-1.33.08-2.06-.08-3.42 0-.06 0-.04 0-.16.01-.98.06-1.54.1-2.15.09-.48-.01-.84-.02-1.33-.12-.51-.1-.79-.16-1.09-.38-.04-.03-.74-.54-.82-1.3v-1.36c0-.49-.03-1.96-.09-3.95m-6.66 13.55c.17-.33.05-.09.17-.33m-2.3 4.89c0-.24.85-1.97 1.58-3.42" class="cls-6"/><text style="fill:#e52424;font-family:Lato,sans-serif;font-size:5.47px" transform="matrix(1.18 0 0 1 10.37 49.65)"><tspan x="0" y="0">KPN005</tspan></text><path d="M166.95 122.06h1.1m4 0h1.1m4 0h1.1" class="cls-5"/><path d="M147.73 135.6h1.1m18.85-3.38c2.75.73 8.37.51 11.06-2.15 1.32-1.31 3.21-2.9 3.57-5.59.32-2.36-.75-6.73-1.15-7.48-1.77-3.29-4.93-4.42-5.62-4.64-3.41-1.12-6.31 0-7.38.43-.75.3-3.66 1.52-5.48 4.5-2.83 4.63.39 7.93-2.32 12.66-1.81 3.16-4.81 4.78-5.88 5.02-3.34.74-2.68.55-4.04.64" class="cls-7"/><path d="M102.83 71.42h1.1m4.01 0h1.1m4 0h1.1" class="cls-5"/><path d="M83.61 84.96h1.1m18.85-3.38c2.75.73 8.37.51 11.06-2.15 1.32-1.31 3.21-2.9 3.57-5.59.32-2.36-.75-6.73-1.15-7.48-1.77-3.29-4.93-4.42-5.62-4.64-3.41-1.12-6.31 0-7.38.43-.75.3-3.66 1.52-5.48 4.5-2.83 4.63.39 7.93-2.32 12.66-1.81 3.16-4.81 4.78-5.88 5.02-3.34.74-2.68.55-4.04.64" class="cls-7"/><path d="M179.61 15.98h1.1m4 0h1.1m4 0h1.1" class="cls-5"/><path d="M160.39 29.51h1.1m18.85-3.38c2.75.73 8.37.51 11.06-2.15 1.32-1.31 3.21-2.9 3.57-5.59.32-2.36-.75-6.73-1.15-7.48-1.77-3.29-4.93-4.42-5.62-4.64-3.41-1.12-6.31 0-7.38.43-.75.3-3.66 1.52-5.48 4.5-2.83 4.63.39 7.93-2.32 12.66-1.81 3.16-4.81 4.78-5.88 5.02-3.34.74-2.68.55-4.04.64" class="cls-7"/><path d="M254.85 59.55h1.1m4.01 0h1.1m4 0h1.1" class="cls-5"/><path d="M235.64 73.09h1.1m18.84-3.38c2.75.73 8.37.51 11.06-2.15 1.32-1.31 3.21-2.9 3.57-5.59.32-2.36-.75-6.73-1.15-7.48-1.77-3.29-4.93-4.42-5.62-4.64-3.41-1.12-6.31 0-7.38.43-.75.3-3.66 1.52-5.48 4.5-2.83 4.63.39 7.93-2.32 12.66-1.81 3.16-4.81 4.78-5.88 5.02-3.34.74-2.68.55-4.04.64" class="cls-7"/><path d="M19.72 131.15a7.86 7.86 0 0 1-3.7-6.15h15.96a7.84 7.84 0 0 1-3.68 6.13zm-2.59 3.18c-2.51-.4-2.48-1.1-2.68-1.9h19.09c-.2.8-.16 1.49-2.65 1.89H17.13Zm-1.11-13.07h15.96v2.46H16.02z" class="cls-15"/><path d="M30 129.99c-.46 0-.87-.32-.98-.79-.12-.54.23-1.07.76-1.19 1.98-.43 4.09-2.53 4.3-4.75h-2.45c-.55 0-1-.45-1-1s.45-1 1-1h3.42c.5 0 .92.37.99.86.52 3.65-2.66 7.15-5.84 7.84-.07.02-.14.02-.21.02Zm-9.58-10.74c-.16 0-.32-.08-.42-.23-.42-.64-.61-2.02-.15-3.3.14-.38.34-.66.52-.91.22-.3.41-.56.52-1 .13-.54-.34-1.23-.53-1.45a.514.514 0 0 1 .04-.71c.21-.18.52-.17.7.04.11.12 1.02 1.2.76 2.34-.15.64-.43 1.03-.69 1.37-.16.22-.3.41-.39.65-.35.99-.2 2.04.05 2.42a.5.5 0 0 1-.42.77Zm3.66 0c-.16 0-.32-.08-.42-.23-.42-.64-.61-2.02-.15-3.3.14-.38.34-.66.52-.91.22-.3.41-.56.52-1 .13-.54-.34-1.23-.53-1.45a.514.514 0 0 1 .04-.71c.21-.18.52-.16.7.04.11.12 1.02 1.2.76 2.33-.15.64-.43 1.03-.69 1.37-.16.22-.3.41-.39.65-.35.99-.2 2.04.05 2.42a.5.5 0 0 1-.42.77Zm3.65 0c-.16 0-.32-.08-.42-.23-.42-.64-.61-2.02-.15-3.3.14-.38.34-.66.52-.91.22-.3.41-.56.52-1 .13-.54-.34-1.23-.53-1.45a.514.514 0 0 1 .04-.71c.21-.18.52-.16.7.04.11.12 1.02 1.2.76 2.34-.15.64-.43 1.03-.69 1.37-.16.22-.3.41-.39.65-.35.99-.2 2.04.05 2.42a.5.5 0 0 1-.42.77Z" class="cls-15"/></g></svg>