<svg xmlns="http://www.w3.org/2000/svg" data-name="Livello 2" viewBox="0 0 50.68 15.29"><rect width="50.32" height="12.96" x=".37" data-name="rettangoli rossi sulle carte" rx="1.86" ry="1.86" style="fill:#e52424"/><path d="M3.15 8.27V4.95h.91v3.2c0 1 .35 1.49 1.23 1.49.62 0 1.07-.29 1.66-.98V4.95h.91v5.35H7.1l-.08-.94h-.04c-.54.63-1.17 1.07-1.99 1.07-1.27 0-1.85-.75-1.85-2.16Zm6.78-3.32h.75l.08.9h.04c.56-.58 1.18-1.03 2.01-1.03 1.27 0 1.85.75 1.85 2.16v3.32h-.91V7.1c0-1.01-.35-1.48-1.22-1.48-.64 0-1.07.32-1.68.96v3.73h-.91V4.96ZM23.24 5l1.55-.05h3.11v.74h-4.66v-.68Zm1.53-.5c0-1.3.68-2.17 2.16-2.17.53 0 1.03.1 1.54.31l-.21.68a2.84 2.84 0 0 0-1.24-.25c-.96 0-1.34.54-1.34 1.4v5.83h-.9V4.5Zm7.4 1.19H29.7v-.74h3.39v5.35h-.91V5.69Zm-.36-2.57c0-.42.31-.7.73-.7s.73.29.73.7-.31.7-.73.7-.73-.28-.73-.7m6.2 5.38V3.2h-1.89v-.74h2.8v6.11c0 .77.42 1.1 1.06 1.1.31 0 .64-.08 1-.24l.23.68c-.5.21-.85.32-1.43.32-1.14 0-1.77-.66-1.77-1.93m4.55-.87c0-1.79 1.23-2.82 2.64-2.82s2.64 1.02 2.64 2.82-1.23 2.79-2.64 2.79-2.64-1.02-2.64-2.79m4.35 0c0-1.23-.68-2.06-1.71-2.06s-1.71.83-1.71 2.06.68 2.04 1.71 2.04 1.71-.81 1.71-2.04" style="fill:#fff"/></svg>