<?xml version="1.0" encoding="UTF-8"?>
<svg id="Livello_2" data-name="Livello 2" xmlns="http://www.w3.org/2000/svg" viewBox="0 0 32.38 28.58">
  <defs>
    <style>
      .cls-1 {
        fill: #e30613;
      }
    </style>
  </defs>
  <g id="luoghi">
    <g>
      <path class="cls-1" d="M20.22,23.54h-3.18v5.04h-1.4v-5.04h-3.15v5.04h-2.04V10.69l6-6,5.98,5.98v17.91h-2.23l.03-5.04ZM15.63,14.39h-3.15v3.15h3.15v-3.15ZM15.63,18.65h-3.15v3.15h3.15v-3.15ZM20.23,14.39h-3.15v3.15h3.15v-3.15ZM20.23,18.65h-3.15v3.15h3.15v-3.15Z"/>
      <polygon class="cls-1" points="16.37 5.11 16.37 0 20.79 0 20.79 3.19 16.6 3.19 16.6 5.11 16.37 5.11"/>
      <path class="cls-1" d="M27.48,5.39l4.89,4.89h-1.53s0,18.3,0,18.3h-6.96V10.35s-4.96-4.96-4.96-4.96h8.55ZM25.61,26.62h3.23s0-3.23,0-3.23h-3.23s0,3.23,0,3.23ZM25.61,22.41h3.23s0-3.23,0-3.23h-3.23s0,3.23,0,3.23ZM25.61,18.2h3.23s0-3.23,0-3.23h-3.23s0,3.23,0,3.23ZM25.61,13.98h3.23s0-3.23,0-3.23h-3.23s0,3.23,0,3.23Z"/>
      <path class="cls-1" d="M13.45,5.39l-4.96,4.96v18.23H1.53V10.28H0l4.89-4.89h8.55ZM6.77,23.39h-3.23v3.23h3.23v-3.23ZM6.77,19.18h-3.23v3.23h3.23v-3.23ZM6.77,14.96h-3.23v3.23h3.23v-3.23ZM6.77,10.75h-3.23v3.23h3.23v-3.23Z"/>
    </g>
  </g>
</svg>