<?xml version="1.0" encoding="UTF-8"?>
<svg id="Livello_2" data-name="Livello 2" xmlns="http://www.w3.org/2000/svg" viewBox="0 0 35.13 24.24">
  <defs>
    <style>
      .cls-1 {
        stroke-width: 2px;
      }

      .cls-1, .cls-2 {
        fill: none;
        stroke: #000;
        stroke-linecap: round;
        stroke-linejoin: round;
      }

      .cls-2 {
        stroke-width: .5px;
      }
    </style>
  </defs>
  <g id="KIPARLA">
    <g>
      <line class="cls-1" x1="19.47" y1="10.45" x2="20.57" y2="10.45"/>
      <line class="cls-1" x1="24.57" y1="10.45" x2="25.67" y2="10.45"/>
      <line class="cls-1" x1="29.67" y1="10.45" x2="30.77" y2="10.45"/>
      <line class="cls-2" x1=".25" y1="23.99" x2="1.35" y2="23.99"/>
      <path class="cls-2" d="M20.2,20.6c2.75.73,8.37.51,11.06-2.15,1.32-1.31,3.21-2.9,3.57-5.59.32-2.36-.75-6.73-1.15-7.48-1.77-3.29-4.93-4.42-5.62-4.64-3.41-1.12-6.31,0-7.38.43-.75.3-3.66,1.52-5.48,4.5-2.83,4.63.39,7.93-2.32,12.66-1.81,3.16-4.81,4.78-5.88,5.02-3.34.74-2.68.55-4.04.64"/>
    </g>
  </g>
</svg>