<?xml version="1.0" encoding="UTF-8"?>
<svg id="Livello_2" data-name="Livello 2" xmlns="http://www.w3.org/2000/svg" xmlns:xlink="http://www.w3.org/1999/xlink" viewBox="0 0 282.96 195.56">
  <defs>
    <style>
      .cls-1 {
        stroke-width: .75px;
      }

      .cls-1, .cls-2, .cls-3, .cls-4, .cls-5, .cls-6, .cls-7, .cls-8 {
        fill: none;
      }

      .cls-1, .cls-2, .cls-3, .cls-9, .cls-8 {
        stroke-miterlimit: 10;
      }

      .cls-1, .cls-8 {
        stroke: #1d1d1b;
      }

      .cls-2 {
        stroke: #cbcacc;
        stroke-width: .15px;
      }

      .cls-10, .cls-11 {
        fill: url(#pattern_journal);
      }

      .cls-12 {
        fill: #e52421;
        font-family: Century, Century;
        font-size: 5.47px;
      }

      .cls-13, .cls-14 {
        fill: #1d1d1b;
      }

      .cls-15, .cls-16, .cls-9 {
        fill: #fff;
      }

      .cls-3, .cls-11, .cls-5, .cls-6, .cls-7 {
        stroke-linecap: round;
      }

      .cls-3, .cls-6 {
        stroke: #fff;
      }

      .cls-3, .cls-6, .cls-7 {
        stroke-width: .5px;
      }

      .cls-11 {
        stroke: #e52421;
      }

      .cls-11, .cls-5, .cls-6, .cls-7 {
        stroke-linejoin: round;
      }

      .cls-16 {
        font-family: StylusBT, 'Stylus BT';
        font-size: 9px;
      }

      .cls-5 {
        stroke-width: 2px;
      }

      .cls-5, .cls-7 {
        stroke: #000;
      }

      .cls-9 {
        stroke: #e52424;
      }

      .cls-14 {
        font-family: MyriadPro-Regular, 'Myriad Pro';
        font-size: 12px;
      }

      .cls-17 {
        fill: #e52424;
      }
    </style>
    <pattern id="pattern_journal" data-name="pattern journal" x="0" y="0" width="20.78" height="13.52" patternTransform="translate(-1459.31 -498.59)" patternUnits="userSpaceOnUse" viewBox="0 0 20.78 13.52">
      <g>
        <rect class="cls-4" width="20.78" height="13.52"/>
        <polygon class="cls-2" points=".14 6.76 10.39 .09 20.64 6.76 10.39 13.43 .14 6.76"/>
        <line class="cls-2" x1="10.39" y1=".09" x2="10.39" y2="13.43"/>
      </g>
    </pattern>
  </defs>
  <g id="Livello_5" data-name="Livello 5">
    <rect class="cls-10" y=".33" width="282.96" height="195.23" rx="7.66" ry="7.66"/>
    <rect class="cls-17" width="52.23" height="195.23" rx="7.66" ry="7.66"/>
    <g>
      <path class="cls-15" d="M12.33,182.15v-10.47h28v10.47h-19.87v-8.38h-5.11v8.38h-3.02ZM37.18,174.53h-13.7v4.13h13.7v-4.13Z"/>
      <rect class="cls-15" x="13.33" y="157.53" width="26" height="2.17"/>
      <path class="cls-15" d="M9.44,168.86l3.44-7.62h26.92l3,7.62v.09c0,.83-.76,1.51-1.69,1.51s-1.69-.68-1.69-1.51h-1.6c0,.83-.76,1.51-1.69,1.51s-1.69-.68-1.69-1.51h-1.6c0,.83-.76,1.51-1.69,1.51s-1.69-.68-1.69-1.51h-1.6c0,.83-.76,1.51-1.69,1.51s-1.69-.68-1.69-1.51h-1.6c0,.83-.76,1.51-1.69,1.51s-1.69-.68-1.69-1.51h-1.6c0,.83-.76,1.51-1.69,1.51s-1.69-.68-1.69-1.51h-1.6c0,.83-.76,1.51-1.69,1.51s-1.69-.68-1.69-1.51l-.13-.09Z"/>
    </g>
    <polyline class="cls-11" points="89.16 109.68 120.49 89.3 130.78 96.29 147.73 84.96"/>
    <polyline class="cls-11" points="165.38 78 182.99 89.55 193.33 82.78 213.76 96.29 213.76 109.68 226.01 117.89"/>
    <polyline class="cls-11" points="226.01 128.97 202.95 143.49 224.46 157.06 202.95 170.72 193.18 163.7 172.05 176.93 161.52 170.34 151.06 176.93"/>
    <polyline class="cls-11" points="141.17 170.8 120.08 157.02 130.62 150.08 109.5 136.46 109.5 122.93 88.82 136.72 89.16 122.93 85.24 125.74"/>
    <circle class="cls-3" cx="102" cy="101.34" r=".74"/>
    <circle class="cls-3" cx="125.96" cy="93" r=".74"/>
    <circle class="cls-3" cx="142.74" cy="88.28" r=".74"/>
    <circle class="cls-3" cx="186.89" cy="86.98" r=".74"/>
    <circle class="cls-3" cx="207.73" cy="146.52" r=".74"/>
    <circle class="cls-3" cx="124.66" cy="146.25" r=".74"/>
  </g>
  <g id="luoghi">
    <path class="cls-1" d="M78.32,93.32c-.11-.22-.45-.22-.64-.06s-.26.41-.32.65c-2.54,10.13-.31,20.81,2.52,30.87-.38-.44-.6-1.02-.62-1.6"/>
    <path class="cls-1" d="M81.99,93.33c.09-.23.43-.26.63-.12s.3.39.38.62c3.5,9.84,2.3,20.69.43,30.97.33-.48.5-1.07.47-1.65"/>
    <path class="cls-13" d="M80.02,84.97c.06-.35-.49-.52-.75-.29-.27.23-.3.63-.31.98-.05,1.4-.1,2.83.34,4.16.1.31.26.63.56.74.44.16.88-.23,1.13-.63.59-.95.76-2.11.82-3.23.03-.58.03-1.18-.2-1.7-.24-.52-.78-.95-1.35-.88-.72.09-1.13.9-1.19,1.63-.06.73.11,1.47-.04,2.18"/>
    <path class="cls-13" d="M155.89,29.09c.06-.35-.49-.52-.75-.29-.27.23-.3.63-.31.98-.05,1.4-.1,2.83.34,4.16.1.31.26.63.56.74.44.16.88-.23,1.13-.63.59-.95.76-2.11.82-3.23.03-.58.03-1.18-.2-1.7-.24-.52-.78-.95-1.35-.88-.72.09-1.13.9-1.19,1.63-.06.73.11,1.47-.04,2.18"/>
    <path class="cls-13" d="M231.96,72.37c.06-.35-.49-.52-.75-.29-.27.23-.3.63-.31.98-.05,1.4-.1,2.83.34,4.16.1.31.26.63.56.74.44.16.88-.23,1.13-.63.59-.95.76-2.11.82-3.23.03-.58.03-1.18-.2-1.7-.24-.52-.78-.95-1.35-.88-.72.09-1.13.9-1.19,1.63-.06.73.11,1.47-.04,2.18"/>
    <path class="cls-1" d="M154.78,37.61c-1.81-.06-3.63.05-5.42.33.82.02,1.1,1.1,1.13,1.92.41,10.23.41,20.48,0,30.71-.18,4.42-.43,8.89.29,13.25-.13-.4-.13-.84,0-1.24l3.77.59"/>
    <path class="cls-1" d="M156.93,37.68c1.81-.11,3.63-.05,5.42.18-.82.04-1.07,1.13-1.08,1.95-.13,10.24.15,20.48.84,30.7.3,4.42.67,8.87.07,13.26.11-.41.1-.84-.03-1.24l-3.75.7"/>
    <path class="cls-1" d="M231,121.61c-.07.61-.15,1.26-.43,1.75s-.85.79-1.25.46c-.21-.17-.34-.46-.45-.75-.97-2.56-1-5.55-.74-8.39s.8-5.62.92-8.47-.23-5.86-1.56-8.13c-.19-.33-.45-.67-.77-.65.21.66.66,1.46,1.17,1.19.37-.2.45-.83.45-1.36-.01-1.54-.25-3.07-.42-4.6-.25-2.33-.34-4.7-.25-7.05.07-1.76.24-3.57.96-5.07.31-.66.74-1.25,1.29-1.55s1.23-.26,1.69.23"/>
    <path class="cls-1" d="M232.73,121.61c.06.62.13,1.26.4,1.77s.83.81,1.25.49c.21-.16.35-.45.46-.74,1.01-2.54,1.09-5.52.88-8.36-.22-2.84-.71-5.64-.79-8.5s.32-5.85,1.68-8.09c.2-.33.46-.66.78-.63-.22.66-.68,1.44-1.19,1.16-.37-.21-.44-.84-.43-1.37.04-1.54.3-3.06.49-4.58.29-2.33.41-4.69.36-7.04-.04-1.76-.19-3.58-.88-5.09-.3-.67-.72-1.27-1.26-1.58s-1.22-.29-1.69.19"/>
    <g>
      <path class="cls-13" d="M81.8,126.81c.56,1.11-3,2.07-3.7,2.17.61-.08,2.99-3.56,3.7-2.17Z"/>
      <path class="cls-8" d="M78.09,128.97c.71-.1,4.27-1.05,3.7-2.17-.71-1.39-3.09,2.08-3.7,2.17Z"/>
    </g>
    <g>
      <path class="cls-13" d="M82.02,126.95c-.47,1.15,3.16,1.82,3.87,1.86-.61-.03-3.28-3.3-3.87-1.86Z"/>
      <path class="cls-8" d="M85.89,128.81c-.71-.04-4.34-.7-3.87-1.86.59-1.44,3.25,1.82,3.87,1.86Z"/>
    </g>
    <path class="cls-1" d="M141.81,143.67c-.11-.22-.45-.22-.64-.06s-.26.41-.32.65c-2.54,10.13-.31,20.81,2.52,30.87-.38-.44-.6-1.02-.62-1.6"/>
    <path class="cls-1" d="M145.49,143.68c.09-.23.43-.26.63-.12s.3.39.38.62c3.5,9.84,2.3,20.69.43,30.97.33-.48.5-1.07.47-1.65"/>
    <path class="cls-13" d="M143.52,135.31c.06-.35-.49-.52-.75-.29-.27.23-.3.63-.31.98-.05,1.4-.1,2.83.34,4.16.1.31.26.63.56.74.44.16.88-.23,1.13-.63.59-.95.76-2.11.82-3.23.03-.58.03-1.18-.2-1.7-.24-.52-.78-.95-1.35-.88-.72.09-1.13.9-1.19,1.63-.06.73.11,1.47-.04,2.18"/>
    <g>
      <path class="cls-13" d="M145.29,177.15c.56,1.11-3,2.07-3.7,2.17.61-.08,2.99-3.56,3.7-2.17Z"/>
      <path class="cls-8" d="M141.59,179.32c.71-.1,4.27-1.05,3.7-2.17-.71-1.39-3.09,2.08-3.7,2.17Z"/>
    </g>
    <g>
      <path class="cls-13" d="M145.52,177.3c-.47,1.15,3.16,1.82,3.87,1.86-.61-.03-3.28-3.3-3.87-1.86Z"/>
      <path class="cls-8" d="M149.38,179.16c-.71-.04-4.34-.7-3.87-1.86.59-1.44,3.25,1.82,3.87,1.86Z"/>
    </g>
    <g>
      <path class="cls-13" d="M156.04,85.05c.56,1.11-3,2.07-3.7,2.17.61-.08,2.99-3.56,3.7-2.17Z"/>
      <path class="cls-8" d="M152.34,87.22c.71-.1,4.27-1.05,3.7-2.17-.71-1.39-3.09,2.08-3.7,2.17Z"/>
    </g>
    <g>
      <path class="cls-13" d="M156.27,85.2c-.47,1.15,3.16,1.82,3.87,1.86-.61-.03-3.28-3.3-3.87-1.86Z"/>
      <path class="cls-8" d="M160.13,87.06c-.71-.04-4.34-.7-3.87-1.86.59-1.44,3.25,1.82,3.87,1.86Z"/>
    </g>
    <g>
      <path class="cls-13" d="M231.88,125.57c.56,1.11-3,2.07-3.7,2.17.61-.08,2.99-3.56,3.7-2.17Z"/>
      <path class="cls-8" d="M228.18,127.73c.71-.1,4.27-1.05,3.7-2.17-.71-1.39-3.09,2.08-3.7,2.17Z"/>
    </g>
    <g>
      <path class="cls-13" d="M232.11,125.72c-.47,1.15,3.16,1.82,3.87,1.86-.61-.03-3.28-3.3-3.87-1.86Z"/>
      <path class="cls-8" d="M235.98,127.57c-.71-.04-4.34-.7-3.87-1.86.59-1.44,3.25,1.82,3.87,1.86Z"/>
    </g>
    <path class="cls-1" d="M238.89,96.94c.21-.89,1.52-.83,1.99-.07s.37,1.77.27,2.69c-1,8.94-.32,18.11,1.99,26.75"/>
    <g>
      <circle class="cls-9" cx="266.35" cy="179.32" r="10.99"/>
      <text class="cls-14" transform="translate(263.24 183.26)"><tspan x="0" y="0">1</tspan></text>
    </g>
  </g>
  <g id="KIPARLA">
    <text class="cls-16" transform="translate(4.07 41.79) scale(1.5 .81)"><tspan x="0" y="0">k parla</tspan></text>
    <rect class="cls-15" x="4.82" y="44.47" width="36.55" height="6.3"/>
    <path class="cls-6" d="M20.16,17.48c-.05-.19-.14-.46-.36-.71-.14-.17-.33-.39-.65-.44-.28-.05-.8.07-.89.11-.4.2-.54.57-.57.65-.15.4-.02.75.03.88.03.09.17.44.52.67.54.35.94-.02,1.5.32.37.23.53.6.58.72.18.43.13.81.1.96"/>
    <path class="cls-6" d="M20.47,21.79c0,.11,0,.23,0,.34"/>
    <path class="cls-6" d="M31.38,25.98c.61-.14,1.8-.52,2.92-1.54,1.48-1.34,1.9-2.97,2.02-3.56"/>
    <path class="cls-6" d="M31.35,26.77c.63.17,2.02.63,3.28,1.9,1.28,1.28,1.73,2.7,1.9,3.33"/>
    <path class="cls-6" d="M34.15,26.26h.38"/>
    <path class="cls-6" d="M14.55,35.43c.71-1.64,1.34-3.65.66-6.79-.62-2.86-2.81-4.39-3.74-8.79-.28-1.33-.48-2.26-.36-3.56.44-4.62,4.42-7.15,4.76-7.38.69-.46,3.38-1.96,7.28-1.43,2.66.36,4.53,2.01,5.01,2.53.42.46.97,1.07,1.37,2.03.47,1.12.51,2.2.55,3.07.02.38,0,.22,0,1.93,0,1.16.02,1.57.19,2.12.18.59.45,1.02.58,1.23.15.23.42.64.91,1.02.6.48,1.05.54,1.18.99.02.06.07.25,0,.46-.16.48-.77.46-1.21,1.08-.09.13-.14.23-.2.38-.4.88-.31,1.79-.36,3.74,0,.2-.02.62-.17,1.14-.11.37-.22.75-.55.99-.2.15-.42.19-.92.22-1.33.08-2.06-.08-3.42,0-.06,0-.04,0-.16.01-.98.06-1.54.1-2.15.09-.48-.01-.84-.02-1.33-.12-.51-.1-.79-.16-1.09-.38-.04-.03-.74-.54-.82-1.3,0-.03,0-.02,0-.51,0,0,0-.24,0-.85,0-.49-.03-1.96-.09-3.95"/>
    <path class="cls-6" d="M13.81,36.95c.17-.33.05-.09.17-.33"/>
    <path class="cls-6" d="M11.68,41.51c0-.24.85-1.97,1.58-3.42"/>
    <text class="cls-12" transform="translate(10.37 49.65) scale(1.18 1)"><tspan x="0" y="0">KPN005</tspan></text>
    <g>
      <line class="cls-5" x1="166.95" y1="122.06" x2="168.05" y2="122.06"/>
      <line class="cls-5" x1="172.05" y1="122.06" x2="173.15" y2="122.06"/>
      <line class="cls-5" x1="177.15" y1="122.06" x2="178.25" y2="122.06"/>
      <line class="cls-7" x1="147.73" y1="135.6" x2="148.83" y2="135.6"/>
      <path class="cls-7" d="M167.68,132.22c2.75.73,8.37.51,11.06-2.15,1.32-1.31,3.21-2.9,3.57-5.59.32-2.36-.75-6.73-1.15-7.48-1.77-3.29-4.93-4.42-5.62-4.64-3.41-1.12-6.31,0-7.38.43-.75.3-3.66,1.52-5.48,4.5-2.83,4.63.39,7.93-2.32,12.66-1.81,3.16-4.81,4.78-5.88,5.02-3.34.74-2.68.55-4.04.64"/>
    </g>
    <g>
      <line class="cls-5" x1="102.83" y1="71.42" x2="103.93" y2="71.42"/>
      <line class="cls-5" x1="107.94" y1="71.42" x2="109.04" y2="71.42"/>
      <line class="cls-5" x1="113.04" y1="71.42" x2="114.14" y2="71.42"/>
      <line class="cls-7" x1="83.61" y1="84.96" x2="84.71" y2="84.96"/>
      <path class="cls-7" d="M103.56,81.58c2.75.73,8.37.51,11.06-2.15,1.32-1.31,3.21-2.9,3.57-5.59.32-2.36-.75-6.73-1.15-7.48-1.77-3.29-4.93-4.42-5.62-4.64-3.41-1.12-6.31,0-7.38.43-.75.3-3.66,1.52-5.48,4.5-2.83,4.63.39,7.93-2.32,12.66-1.81,3.16-4.81,4.78-5.88,5.02-3.34.74-2.68.55-4.04.64"/>
    </g>
    <g>
      <line class="cls-5" x1="179.61" y1="15.98" x2="180.71" y2="15.98"/>
      <line class="cls-5" x1="184.71" y1="15.98" x2="185.81" y2="15.98"/>
      <line class="cls-5" x1="189.81" y1="15.98" x2="190.91" y2="15.98"/>
      <line class="cls-7" x1="160.39" y1="29.51" x2="161.49" y2="29.51"/>
      <path class="cls-7" d="M180.34,26.13c2.75.73,8.37.51,11.06-2.15,1.32-1.31,3.21-2.9,3.57-5.59.32-2.36-.75-6.73-1.15-7.48-1.77-3.29-4.93-4.42-5.62-4.64-3.41-1.12-6.31,0-7.38.43-.75.3-3.66,1.52-5.48,4.5-2.83,4.63.39,7.93-2.32,12.66-1.81,3.16-4.81,4.78-5.88,5.02-3.34.74-2.68.55-4.04.64"/>
    </g>
    <g>
      <line class="cls-5" x1="254.85" y1="59.55" x2="255.95" y2="59.55"/>
      <line class="cls-5" x1="259.96" y1="59.55" x2="261.06" y2="59.55"/>
      <line class="cls-5" x1="265.06" y1="59.55" x2="266.16" y2="59.55"/>
      <line class="cls-7" x1="235.64" y1="73.09" x2="236.74" y2="73.09"/>
      <path class="cls-7" d="M255.58,69.71c2.75.73,8.37.51,11.06-2.15,1.32-1.31,3.21-2.9,3.57-5.59.32-2.36-.75-6.73-1.15-7.48-1.77-3.29-4.93-4.42-5.62-4.64-3.41-1.12-6.31,0-7.38.43-.75.3-3.66,1.52-5.48,4.5-2.83,4.63.39,7.93-2.32,12.66-1.81,3.16-4.81,4.78-5.88,5.02-3.34.74-2.68.55-4.04.64"/>
    </g>
    <g>
      <path class="cls-15" d="M19.72,131.15c-2.1-1.31-3.53-3.56-3.7-6.15h15.96c-.17,2.58-1.59,4.82-3.68,6.13l-8.58.02Z"/>
      <path class="cls-15" d="M17.13,134.33c-2.51-.4-2.48-1.1-2.68-1.9h19.09c-.2.8-.16,1.49-2.65,1.89h-13.76Z"/>
      <rect class="cls-15" x="16.02" y="121.26" width="15.96" height="2.46"/>
      <path class="cls-15" d="M30,129.99c-.46,0-.87-.32-.98-.79-.12-.54.23-1.07.76-1.19,1.98-.43,4.09-2.53,4.3-4.75h-2.45c-.55,0-1-.45-1-1s.45-1,1-1h3.42c.5,0,.92.37.99.86.52,3.65-2.66,7.15-5.84,7.84-.07.02-.14.02-.21.02Z"/>
      <path class="cls-15" d="M20.42,119.25c-.16,0-.32-.08-.42-.23-.42-.64-.61-2.02-.15-3.3.14-.38.34-.66.52-.91.22-.3.41-.56.52-1,.13-.54-.34-1.23-.53-1.45-.18-.21-.16-.52.04-.71.21-.18.52-.17.7.04.11.12,1.02,1.2.76,2.34-.15.64-.43,1.03-.69,1.37-.16.22-.3.41-.39.65-.35.99-.2,2.04.05,2.42.15.23.08.54-.15.69-.08.05-.18.08-.27.08Z"/>
      <path class="cls-15" d="M24.08,119.25c-.16,0-.32-.08-.42-.23-.42-.64-.61-2.02-.15-3.3.14-.38.34-.66.52-.91.22-.3.41-.56.52-1,.13-.54-.34-1.23-.53-1.45-.18-.21-.16-.52.04-.71.21-.18.52-.16.7.04.11.12,1.02,1.2.76,2.33-.15.64-.43,1.03-.69,1.37-.16.22-.3.41-.39.65-.35.99-.2,2.04.05,2.42.15.23.08.54-.15.69-.08.05-.18.08-.27.08Z"/>
      <path class="cls-15" d="M27.73,119.25c-.16,0-.32-.08-.42-.23-.42-.64-.61-2.02-.15-3.3.14-.38.34-.66.52-.91.22-.3.41-.56.52-1,.13-.54-.34-1.23-.53-1.45-.18-.21-.16-.52.04-.71.21-.18.52-.16.7.04.11.12,1.02,1.2.76,2.34-.15.64-.43,1.03-.69,1.37-.16.22-.3.41-.39.65-.35.99-.2,2.04.05,2.42.15.23.08.54-.15.69-.08.05-.18.08-.27.08Z"/>
    </g>
  </g>
</svg>