<svg xmlns="http://www.w3.org/2000/svg" id="Livello_2" data-name="Livello 2" viewBox="0 0 276.15 188.11"><defs><style>@import url(https://fonts.googleapis.com/css2?family=Caveat&display=swap);.cls-2,.cls-3,.cls-4{stroke-miterlimit:10}.cls-3{fill:#fff}.cls-2{stroke:#000;stroke-width:.75px}.cls-2,.cls-4,.cls-7{fill:none}.cls-9{fill:#1d1d1b}.cls-7{stroke:#fff;stroke-linecap:round;stroke-linejoin:round;stroke-width:.5px}.cls-3,.cls-4{stroke:#e52424}</style></defs><g id="bordi"><rect width="275.15" height="187.11" x=".5" y=".5" rx="3.94" ry="3.94" style="stroke:#e52424;stroke-miterlimit:10;fill:#fff"/><rect width="17.77" height="18.64" x="257.88" y="168.97" class="cls-4" rx="3.32" ry="3.32"/><rect width="104.07" height="18.64" x="99.22" y="77.38" class="cls-4" rx="3.32" ry="3.32"/><rect width="104.07" height="18.64" x="127.04" y="110.89" class="cls-4" rx="3.32" ry="3.32"/><rect width="104.07" height="18.64" x="160.23" y="144.4" class="cls-4" rx="3.32" ry="3.32"/><rect width="17.77" height="18.64" x="87.43" y="71.86" class="cls-3" rx="3.32" ry="3.32"/><rect width="17.77" height="18.64" x="114.94" y="105.37" class="cls-3" rx="3.32" ry="3.32"/><rect width="17.77" height="18.64" x="148.45" y="138.88" class="cls-3" rx="3.32" ry="3.32"/><rect width="86.86" height="56.69" x=".5" y=".07" rx="3.32" ry="3.32" style="fill:#e52424"/><text style="fill:#fff;font-family:Caveat,cursive;font-size:9px" transform="matrix(1.5 0 0 .81 25.12 41.14)"><tspan x="0" y="0">k parla</tspan></text><path d="M25.87 43.82h36.55v6.3H25.87z" style="fill:#fff"/><path d="M41.21 16.83c-.05-.19-.14-.46-.36-.71-.14-.17-.33-.39-.65-.44-.28-.05-.8.07-.89.11-.4.2-.54.57-.57.65-.15.4-.02.75.03.88.03.09.17.44.52.67.54.35.94-.02 1.5.32.37.23.53.6.58.72.18.43.13.81.1.96m.05 1.15v.34m10.91 3.85c.61-.14 1.8-.52 2.92-1.54 1.48-1.34 1.9-2.97 2.02-3.56m-4.96 5.89a7.3 7.3 0 0 1 5.18 5.23m-2.39-5.74h.38" class="cls-7"/><path d="M35.61 34.78c.71-1.64 1.34-3.65.66-6.79-.62-2.86-2.81-4.39-3.74-8.79-.28-1.33-.48-2.26-.36-3.56.44-4.62 4.42-7.15 4.76-7.38.69-.46 3.38-1.96 7.28-1.43 2.66.36 4.53 2.01 5.01 2.53.42.46.97 1.07 1.37 2.03.47 1.12.51 2.2.55 3.07.02.38 0 .22 0 1.93 0 1.16.02 1.57.19 2.12.18.59.45 1.02.58 1.23.15.23.42.64.91 1.02.6.48 1.05.54 1.18.99.02.06.07.25 0 .46-.16.48-.77.46-1.21 1.08-.09.13-.14.23-.2.38-.4.88-.31 1.79-.36 3.74 0 .2-.02.62-.17 1.14-.11.37-.22.75-.55.99-.2.15-.42.19-.92.22-1.33.08-2.06-.08-3.42 0-.06 0-.04 0-.16.01-.98.06-1.54.1-2.15.09-.48-.01-.84-.02-1.33-.12-.51-.1-.79-.16-1.09-.38-.04-.03-.74-.54-.82-1.3V26.7c0-.49-.03-1.96-.09-3.95M34.86 36.3c.17-.33.05-.09.17-.33m-2.3 4.89c0-.24.85-1.97 1.58-3.42" class="cls-7"/><text style="fill:#e52424;font-family:Lato,sans-serif;font-size:5.47px" transform="matrix(1.18 0 0 1 32.02 49.01)"><tspan x="0" y="0">KPS017</tspan></text><path d="M95.7 77.74h1.25l2.87 8.53h-1.17l-1.47-4.76c-.3-.95-.58-1.88-.84-2.87h-.05c-.27.99-.55 1.92-.85 2.87l-1.49 4.76h-1.12zm-1.36 5.05h3.91v.88h-3.91zm26.88 27.84h2.42c1.74 0 2.92.58 2.92 2.08 0 .84-.48 1.6-1.49 1.86v.05c1.25.19 1.98.87 1.98 2.04 0 1.68-1.3 2.5-3.21 2.5h-2.61v-8.53Zm2.23 3.59c1.46 0 2.04-.47 2.04-1.42s-.68-1.26-1.99-1.26h-1.21v2.68zm.22 4.03c1.46 0 2.3-.48 2.3-1.64 0-1.05-.81-1.48-2.3-1.48h-1.38v3.12zm30.61 29.96c0-2.74 1.6-4.42 3.82-4.42 1.03 0 1.83.49 2.34 1.04l-.62.69c-.44-.47-1-.77-1.72-.77-1.62 0-2.69 1.31-2.69 3.43s1.07 3.48 2.69 3.48c.78 0 1.38-.34 1.91-.94l.62.66c-.66.78-1.51 1.23-2.64 1.23-2.11 0-3.72-1.64-3.72-4.42Z" class="cls-9"/></g><g id="italie"><path d="M72.1 151.67c1.1 1.25 2.15 2.41 3.14 3.6.24.29.48.73.44 1.07-.17 1.55-.46 3.08-.67 4.63-.1.77-.52.95-1.19.76-1.98-.79-3.96-.95-4.01 1.72 0 .83-.17 1.5-.94 2.05-1.36.97-2.58 2.14-3.92 3.14-.71.38-1.92 1.46-2.67 1.11 0-.56-.18-1.2.02-1.67 1.31-2.99 2.72-5.93 4.07-8.91.14-.31.13-.74.05-1.09-.62-2.98-1.21-5.96-1.95-8.91-.16-.64-.83-1.24-1.4-1.68-2.16-1.69-3.94-3.68-5.25-6.1-.2-.38-.58-.82-.96-.92-1.25-.33-1.52-1.08-1.19-2.22.04-.14.02-.29.03-.59-.69-.03-1.35-.06-1.99-.08-.36-3.14-2.42-5.08-4.86-6.5-3.5-2.05-6.12-4.81-8.11-8.3-.59-1.08-2.29-1.78-2.65-3-.3-4.2-3.85-6.81-6.26-9.86-.23-.29-.21-.95-.07-1.36 1.1-3.28.12-6.33-.99-9.35-.62-1.68-2.34-2.21-3.65-3.14a43 43 0 0 0-4.97-3.03c-.54-.29-1.41-.26-2.02-.06-2.54.81-5.03 1.75-7.55 2.62-.71.25-1.38.56-1.89-.49-.5-1.04.07-1.46.73-1.94.33-.24.7-.42 1.16-.7-1.49-1.97-2.86-3.73-4.27-5.63q-.95-1.38.37-2.41c.54-.42 1.09-.83 1.78-1.35-.67-.79-1.32-1.55-1.76-2.07 1.05-.83 2.06-1.69 3.13-2.46.62-.44.93-.91.83-1.7-.28-4.34-1.1-3.55 3.38-3.15q3.5.37 5.76-2.28c1.52-1.78 1.48-1.75 2.77.07.97 1.39 2.06 2.69 3.23 4.22.99-1.36 1.8-2.44 2.58-3.55.52-.73.98-1.05 1.8-.27.95.91 2.05 1.68 3.28 2.66.55-1.21 1.06-2.32 1.61-3.53.82.36 1.6.7 2.46 1.08.12-.28.24-.5.32-.74.27-.85.69-1.25 1.58-.66 2.93 1.87 6.16.13 9.24-.25.57-.14.87-.03.98.56.48 2.6 1.93 4.01 4.64 4.48 1.71.3 3.31 1.28 4.95 1.99 1.05.45 1.07.71.13 1.44-.69.53-1.38 1.05-2.14 1.63.97 2.32 1.94 4.62 2.94 7-4.28-.63-7.67.43-11.79.89-.52 2.61-1.31 5.3-1.49 8.03-.09 1.32.91 2.76 1.54 4.08 1.26 2.64 3.14 4.83 5.13 6.95.36.38.58.97.68 1.49.35 3.65 1.16 7.3 2.71 10.63.59 1.25 1.71 2.33 2.8 3.25 2.53 2.16 5.34 3.91 8.61 4.78 2.01.77 2.12 1.03 1.3 2.98-1.14 2.71-1.16 2.73 1 4.58 3.62 3.09 7.3 6.1 10.88 9.24 1.22 1.07 2.22 2.39 3.25 3.66.77.96.67 1.62-.19 2.49-.59.59-1.2 1.17-1.77 1.78-.53.56-.94.6-1.25-.2-.51-1.33-.94-2.91-2.14-3.78-1.38-.94-2.82-1.8-4.27-2.62-.25-.14-.86-.07-1 .13-1.4 1.88-2.74 3.82-4.11 5.75Z" class="cls-2"/><path d="M54.28 180.62c-6.66-4.45-13.1-8.85-19.7-13.32-.74-.5-.85-.99-.2-1.64 1.07-1.08 2.1-2.2 3.19-3.25.21-.2.64-.29.96-.25q2.67.285 5.31.66c.25.04.62.24.68.44.76 2.32 2.64 2.28 4.53 2.19 3.76-.13 7.51-.57 11.27-.55 1.08.05 1.32.53.76 1.45-1.18 1.95-2.29 3.94-3.51 5.86-.84 1.33-.72 2.72-.63 4.17.03.52-.04 1.17-.33 1.56-.76 1.02-1.67 1.94-2.34 2.69Zm-37.19-33.37c-1.61-1.38-4.21-2.12-3.59-4.6.33-1.68.69-3.35.9-5.05.1-1.41-.56-2.86-.74-4.25-.18-2.12-.77-4.07-1.86-5.92-.37-.62-.31-1.5-.48-2.43.78.13 1.25.1 1.59.29 1.19.67 2.02.15 2.94-.61 1.23-1.01 2.6-1.84 3.87-2.81.72-.55 1.2-.29 1.58.35 1.6 2.63 2.93 5.18 4.16 8.05-2.23 1.48-1.28 3.94-1.46 6.05-.21 2.45-.06 4.94-.07 7.41 0 .18-.06.36-.12.73-1.09-.39-2.11-.72-3.11-1.12-.6-.24-.95-.14-1.3.43-.71 1.16-1.5 2.28-2.29 3.47Z" class="cls-2"/><path d="M41.23 107.98c-.5.16-1.06 0-1.42-.42-.96-1.16-2.17-3.1-2.47-5.77-.1-.85-.4-3.44 1.03-5.98 1.09-1.95 2.55-2.71 3.83-3.39 1.15-.6 2.06-1.08 2.73-2.37.59-1.14.8-2.54.57-3.96-.09-.58-.37-2.35-1.89-3.66-.39-.34-1.81-1.43-3.75-1.34-.45.05-3 .86-4.01 1.66-1.06.85-1.32 2.13-1.54 3.26-.26 1.3-.19 2.62.18 3.95.2.71-.24 1.41-.91 1.63-.7.2-1.43-.21-1.63-.91-.48-1.71-.56-3.5-.23-5.18.27-1.34.67-3.37 2.49-4.82 1.49-1.19 4.69-2.19 5.53-2.24 2.84-.14 4.87 1.34 5.61 1.98 1.5 1.29 2.43 3.06 2.77 5.25.31 1.97.01 3.96-.84 5.6-1.06 2.02-2.54 2.8-3.84 3.48-1.14.6-2.05 1.08-2.76 2.34-1 1.8-.78 3.75-.71 4.39a8.3 8.3 0 0 0 1.88 4.38c.47.56.39 1.4-.18 1.86q-.21.165-.45.24Zm3.77 7.65c-.6.19-1.26-.07-1.56-.64l-.91-1.73c-.34-.65-.1-1.45.55-1.79.64-.34 1.45-.09 1.79.55l.91 1.73c.34.65.09 1.45-.55 1.79-.07.04-.15.07-.23.09" style="fill:#e5232b"/></g><path id="RISPOSTE" d="M129.14 83.29h1.98c1.45 0 2.43.49 2.43 1.93s-.99 2.03-2.43 2.03h-1.14v2.6h-.84zm1.88 3.28c1.14 0 1.69-.42 1.69-1.35s-.56-1.25-1.69-1.25h-1.04v2.6zm6.25-.91h-2.25v-.67h3.08v4.86h-.83zm-.33-2.33c0-.38.28-.64.66-.64s.66.26.66.64-.28.64-.66.64-.66-.25-.66-.64m3.86 4.08c0-1.58 1.18-2.54 2.48-2.54 1.4 0 2.22.91 2.22 2.28 0 .19-.02.37-.04.5h-4.11v-.64h3.62l-.21.23c0-1.15-.57-1.72-1.46-1.72s-1.68.68-1.68 1.89.82 1.9 1.9 1.9c.58 0 1.04-.18 1.48-.46l.3.54c-.48.32-1.1.58-1.88.58-1.46 0-2.62-.94-2.62-2.56m5.9-2.42h.66l.07.64h.02c.25-.45.55-.76 1.11-.76.48 0 .78.28.92.84.28-.52.58-.84 1.14-.84.68 0 1.08.53 1.08 1.5v3.48h-.82v-3.42c0-.56-.16-.85-.52-.85-.34 0-.52.25-.78.75v3.52h-.76v-3.42c0-.56-.14-.85-.5-.85-.34 0-.56.25-.8.75v3.52h-.82zm6.02 2.44c0-1.63 1.12-2.56 2.4-2.56s2.4.93 2.4 2.56-1.12 2.54-2.4 2.54-2.4-.93-2.4-2.54m3.94 0c0-1.12-.62-1.87-1.55-1.87s-1.55.75-1.55 1.87.62 1.85 1.55 1.85 1.55-.74 1.55-1.85m2.39-2.44h.68l.07.82h.04c.51-.53 1.07-.94 1.83-.94 1.15 0 1.68.68 1.68 1.96v3.02h-.83v-2.91c0-.92-.32-1.35-1.11-1.35-.58 0-.97.29-1.53.87v3.39h-.83zm7.13 2.97v-2.3h-1.38v-.62l1.41-.05.11-1.56h.69v1.56h2.38v.67h-2.38v2.31c0 .87.29 1.32 1.23 1.32.45 0 .81-.09 1.16-.22l.18.61c-.44.16-.91.29-1.52.29-1.42 0-1.88-.81-1.88-2.01m4.62-.55c0-1.58 1.18-2.54 2.48-2.54 1.4 0 2.22.91 2.22 2.28 0 .19-.02.37-.04.5h-4.11v-.64h3.62l-.21.23c0-1.15-.57-1.72-1.46-1.72s-1.68.68-1.68 1.89.82 1.9 1.9 1.9c.58 0 1.04-.18 1.48-.46l.3.54c-.48.32-1.1.58-1.88.58-1.46 0-2.62-.94-2.62-2.56m-14.42 34.22.5-.58c.5.49 1.18.81 1.92.81.9 0 1.42-.43 1.42-1.03 0-.7-.51-.9-1.17-1.18l-.95-.42c-.65-.26-1.41-.72-1.41-1.69s.9-1.74 2.15-1.74c.82 0 1.54.33 2.02.81l-.44.54c-.43-.38-.93-.61-1.61-.61-.76 0-1.27.36-1.27.95 0 .63.61.86 1.17 1.08l.92.41c.81.32 1.45.78 1.45 1.75 0 1.04-.88 1.87-2.32 1.87-.96 0-1.79-.38-2.38-.97m6.13-.41c0-1.09 1.02-1.62 3.53-1.82-.03-.66-.35-1.22-1.29-1.22-.63 0-1.25.3-1.7.58l-.33-.56c.5-.32 1.32-.7 2.17-.7 1.33 0 1.98.79 1.98 2v2.98h-.69l-.07-.66h-.03c-.53.42-1.23.78-1.91.78-.91 0-1.66-.51-1.66-1.38m3.53-.01v-1.26c-2.08.16-2.71.57-2.71 1.21 0 .55.5.77 1.06.77s1.09-.26 1.65-.72m3.12-3.59h.69l.08 1.15h.02c.51-.79 1.27-1.27 2.17-1.27.36 0 .66.05.96.2l-.19.71c-.34-.11-.52-.16-.9-.16-.73 0-1.42.37-2 1.39v2.84h-.83zm5.15 2.44c0-1.58 1.05-2.56 2.2-2.56.58 0 1.03.23 1.46.62h.02l-.04-.89v-1.87h.83v7.12h-.68l-.07-.64H178c-.4.41-.98.76-1.59.76-1.26 0-2.1-.92-2.1-2.54m3.64 1.12v-2.42c-.44-.41-.85-.56-1.27-.56-.84 0-1.52.74-1.52 1.85s.54 1.85 1.43 1.85c.48 0 .93-.24 1.36-.72m2.44-1.14c0-1.58 1.18-2.54 2.48-2.54 1.4 0 2.22.91 2.22 2.28 0 .19-.02.37-.04.5h-4.11v-.64h3.62l-.21.23c0-1.15-.57-1.72-1.46-1.72s-1.68.68-1.68 1.89.82 1.9 1.9 1.9c.58 0 1.04-.18 1.48-.46l.3.54c-.48.32-1.1.58-1.88.58-1.46 0-2.62-.94-2.62-2.56m6.04 3.33c0-.39.28-.78.8-1.08v-.04c-.26-.14-.5-.39-.5-.8 0-.31.21-.66.58-.91v-.04c-.33-.25-.6-.68-.6-1.26 0-1.06.88-1.74 1.91-1.74.28 0 .51.04.72.12h2.01v.67h-1.26c.22.23.41.59.41.98 0 1.04-.83 1.67-1.88 1.67-.25 0-.55-.06-.82-.18-.24.15-.38.33-.38.56 0 .38.37.56 1.01.56h1.09c1.25 0 1.85.32 1.85 1.14 0 .91-1.05 1.7-2.7 1.7-1.42 0-2.24-.49-2.24-1.35m4.13-.22c0-.46-.37-.59-1.11-.59h-.95c-.28 0-.53-.02-.74-.08-.46.25-.62.53-.62.81 0 .51.55.83 1.59.83 1.13 0 1.83-.47 1.83-.97m-.82-3.91c0-.68-.5-1.14-1.12-1.14s-1.12.46-1.12 1.14.51 1.15 1.12 1.15 1.12-.45 1.12-1.15m2.9-1.62h.68l.07.82h.04c.51-.53 1.07-.94 1.83-.94 1.15 0 1.68.68 1.68 1.96v3.02h-.83v-2.91c0-.92-.32-1.35-1.11-1.35-.58 0-.97.29-1.53.87v3.39h-.83zm5.87 3.6c0-1.09 1.02-1.62 3.53-1.82-.03-.66-.35-1.22-1.29-1.22-.63 0-1.25.3-1.7.58l-.33-.56c.5-.32 1.32-.7 2.17-.7 1.33 0 1.98.79 1.98 2v2.98h-.69l-.07-.66h-.03c-.53.42-1.23.78-1.91.78-.91 0-1.66-.51-1.66-1.38m3.53-.01v-1.26c-2.08.16-2.71.57-2.71 1.21 0 .55.5.77 1.06.77s1.09-.26 1.65-.72m-27.68 29.75h4.06v.71h-3.22v2.05h2.72v.71h-2.72v2.38h3.32v.71h-4.16zm5.44 1.7h.66l.07.64h.02c.25-.45.55-.76 1.11-.76.48 0 .78.28.92.84.28-.52.58-.84 1.14-.84.68 0 1.08.53 1.08 1.5v3.48h-.82v-3.42c0-.56-.16-.85-.52-.85-.34 0-.52.25-.78.75v3.52h-.76v-3.42c0-.56-.14-.85-.5-.85-.34 0-.56.25-.8.75v3.52h-.82zm8.57.67h-2.25v-.67h3.08v4.86h-.83zm-.33-2.33c0-.38.28-.64.66-.64s.66.26.66.64-.28.64-.66.64-.66-.25-.66-.64m5.64 4.89v-4.82h-1.72v-.67h2.55v5.55c0 .7.38 1 .96 1 .28 0 .58-.07.91-.22l.21.62c-.45.19-.77.29-1.3.29-1.04 0-1.61-.6-1.61-1.75m6.69-2.56h-2.25v-.67h3.08v4.86h-.83zm-.33-2.33c0-.38.28-.64.66-.64s.66.26.66.64-.28.64-.66.64-.66-.25-.66-.64m3.98 5.26c0-1.09 1.02-1.62 3.53-1.82-.03-.66-.35-1.22-1.29-1.22-.63 0-1.25.3-1.7.58l-.33-.56c.5-.32 1.32-.7 2.17-.7 1.33 0 1.98.79 1.98 2v2.98h-.69l-.07-.66h-.03c-.53.42-1.23.78-1.91.78-.91 0-1.66-.51-1.66-1.38m3.53-.01v-1.26c-2.08.16-2.71.57-2.71 1.21 0 .55.5.77 1.06.77s1.09-.26 1.65-.72m2.52-2.34h4.3v.62h-4.3zm6.14-2.95h2.05c1.33 0 2.3.48 2.3 1.85s-.97 1.94-2.3 1.94h-1.2v2.77h-.85zm1.93 3.11c1.02 0 1.58-.42 1.58-1.26s-.56-1.17-1.58-1.17h-1.08v2.43zm.61.01 2 3.44h-.95l-1.71-3zm3.07 1.02c0-1.63 1.12-2.56 2.4-2.56s2.4.93 2.4 2.56-1.12 2.54-2.4 2.54-2.4-.93-2.4-2.54m3.95 0c0-1.12-.62-1.87-1.55-1.87s-1.55.75-1.55 1.87.62 1.85 1.55 1.85 1.55-.74 1.55-1.85m2.03-2.44h.66l.07.64h.02c.25-.45.55-.76 1.11-.76.48 0 .78.28.92.84.28-.52.58-.84 1.14-.84.68 0 1.08.53 1.08 1.5v3.48h-.82v-3.42c0-.56-.16-.85-.52-.85-.34 0-.52.25-.78.75v3.52h-.76v-3.42c0-.56-.14-.85-.5-.85-.34 0-.56.25-.8.75v3.52h-.82zm6.22 3.6c0-1.09 1.02-1.62 3.53-1.82-.03-.66-.35-1.22-1.29-1.22-.63 0-1.25.3-1.7.58l-.33-.56c.5-.32 1.32-.7 2.17-.7 1.33 0 1.98.79 1.98 2v2.98h-.69l-.07-.66h-.03c-.53.42-1.23.78-1.91.78-.91 0-1.66-.51-1.66-1.38m3.53-.01v-1.26c-2.08.16-2.71.57-2.71 1.21 0 .55.5.77 1.06.77s1.09-.26 1.65-.72m2.39 2.16c0-.39.28-.78.8-1.08v-.04c-.26-.14-.5-.39-.5-.8 0-.31.21-.66.58-.91v-.04c-.33-.25-.6-.68-.6-1.26 0-1.06.88-1.74 1.91-1.74.28 0 .51.04.72.12h2.01v.67h-1.26c.22.23.41.59.41.98 0 1.04-.83 1.67-1.88 1.67-.25 0-.55-.06-.82-.18-.24.15-.38.33-.38.56 0 .38.37.56 1.01.56h1.09c1.25 0 1.85.32 1.85 1.14 0 .91-1.05 1.7-2.7 1.7-1.42 0-2.24-.49-2.24-1.35m4.13-.22c0-.46-.37-.59-1.11-.59h-.95c-.28 0-.53-.02-.74-.08-.46.25-.62.53-.62.81 0 .51.55.83 1.59.83 1.13 0 1.83-.47 1.83-.97m-.82-3.91c0-.68-.5-1.14-1.12-1.14s-1.12.46-1.12 1.14.51 1.15 1.12 1.15 1.12-.45 1.12-1.15m2.9-1.62h.68l.07.82h.04c.51-.53 1.07-.94 1.83-.94 1.15 0 1.68.68 1.68 1.96v3.02h-.83v-2.91c0-.92-.32-1.35-1.11-1.35-.58 0-.97.29-1.53.87v3.39h-.83zm5.87 3.6c0-1.09 1.02-1.62 3.53-1.82-.03-.66-.35-1.22-1.29-1.22-.63 0-1.25.3-1.7.58l-.33-.56c.5-.32 1.32-.7 2.17-.7 1.33 0 1.98.79 1.98 2v2.98h-.69l-.07-.66h-.03c-.53.42-1.23.78-1.91.78-.91 0-1.66-.51-1.66-1.38m3.53-.01v-1.26c-2.08.16-2.71.57-2.71 1.21 0 .55.5.77 1.06.77s1.09-.26 1.65-.72" class="cls-9"/><path id="DOMANDE" d="M148.99 11.95h.75l.08.68h.03c.5-.47 1.2-.81 1.85-.81 1.44 0 2.21 1.07 2.21 2.73 0 1.82-1.14 2.88-2.43 2.88-.49 0-1.11-.25-1.59-.69h-.02l.04 1.01v1.8H149v-7.6Zm3.98 2.59c0-1.18-.44-1.96-1.51-1.96-.47 0-1.02.24-1.56.79v2.66c.5.45 1.06.62 1.42.62.95 0 1.65-.79 1.65-2.11m2.35.07c0-1.74 1.3-2.79 2.73-2.79 1.54 0 2.44 1 2.44 2.51 0 .21-.02.41-.04.55h-4.52v-.7h3.98l-.23.25c0-1.27-.63-1.89-1.61-1.89s-1.85.75-1.85 2.08.9 2.09 2.09 2.09c.64 0 1.14-.2 1.63-.51l.33.59c-.53.35-1.21.64-2.07.64-1.61 0-2.88-1.03-2.88-2.82m7.44-2.66h.76l.09 1.27h.02c.56-.87 1.4-1.4 2.39-1.4.4 0 .73.06 1.06.22l-.21.78c-.37-.12-.57-.18-.99-.18-.8 0-1.56.41-2.2 1.53v3.12h-.91v-5.35Zm5.89 2.68c0-1.79 1.36-2.82 2.98-2.82.87 0 1.51.35 1.95.78l-.45.58c-.44-.37-.9-.6-1.46-.6-1.23 0-2.08.83-2.08 2.06s.84 2.04 2.06 2.04c.66 0 1.21-.3 1.65-.67l.41.59c-.59.53-1.33.84-2.12.84-1.67 0-2.93-1.02-2.93-2.79Zm9.19-1.95h-2.48v-.74h3.39v5.35h-.91zm-.37-2.56c0-.42.31-.7.73-.7s.73.29.73.7-.31.7-.73.7-.73-.28-.73-.7m4.16 4.51c0-1.79 1.23-2.82 2.64-2.82s2.64 1.02 2.64 2.82-1.23 2.79-2.64 2.79-2.64-1.02-2.64-2.79m4.34 0c0-1.23-.68-2.06-1.71-2.06s-1.71.83-1.71 2.06.68 2.04 1.71 2.04 1.71-.81 1.71-2.04m-3.2-5.27.64-.62 1.56 1.85-.47.45zm12.18 7.23.42-.6c.62.44 1.34.73 2.32.73.9 0 1.34-.37 1.34-.83 0-.41-.21-.69-1.66-.99-1.4-.29-2.09-.76-2.09-1.56 0-.86.76-1.52 2.22-1.52.81 0 1.63.32 2.16.68l-.44.58c-.5-.34-1.11-.56-1.79-.56-.9 0-1.23.36-1.23.77 0 .46.46.66 1.56.89 1.77.38 2.2.83 2.2 1.65 0 .87-.85 1.6-2.38 1.6a4.65 4.65 0 0 1-2.63-.84m6.57-1.98c0-1.74 1.3-2.79 2.73-2.79 1.54 0 2.44 1 2.44 2.51 0 .21-.02.41-.04.55h-4.52v-.7h3.98l-.23.25c0-1.27-.63-1.89-1.61-1.89s-1.85.75-1.85 2.08.9 2.09 2.09 2.09c.64 0 1.14-.2 1.63-.51l.33.59c-.53.35-1.21.64-2.07.64-1.61 0-2.88-1.03-2.88-2.82m13.47-2.66h.75l.08.68h.03c.5-.47 1.2-.81 1.85-.81 1.44 0 2.21 1.07 2.21 2.73 0 1.82-1.14 2.88-2.43 2.88-.5 0-1.11-.25-1.6-.69h-.02l.04 1.01v1.8h-.91zm3.99 2.59c0-1.18-.44-1.96-1.51-1.96-.47 0-1.02.24-1.56.79v2.66c.5.45 1.06.62 1.42.62.95 0 1.65-.79 1.65-2.11m2.34.07c0-1.74 1.3-2.79 2.73-2.79 1.54 0 2.44 1 2.44 2.51 0 .21-.02.41-.04.55h-4.52v-.7h3.98l-.23.25c0-1.27-.63-1.89-1.61-1.89s-1.85.75-1.85 2.08.9 2.09 2.09 2.09c.64 0 1.14-.2 1.63-.51l.33.59c-.53.35-1.21.64-2.07.64-1.61 0-2.88-1.03-2.88-2.82m7.44-2.66h.76l.09 1.27h.02c.56-.87 1.4-1.4 2.39-1.4.4 0 .73.06 1.06.22l-.21.78c-.37-.12-.57-.18-.99-.18-.8 0-1.56.41-2.2 1.53v3.12h-.91v-5.35Zm12.49 2.68c0-1.79 1.36-2.82 2.98-2.82.87 0 1.51.35 1.95.78l-.45.58c-.44-.37-.9-.6-1.46-.6-1.23 0-2.08.83-2.08 2.06s.84 2.04 2.06 2.04c.66 0 1.21-.3 1.65-.67l.41.59c-.59.53-1.33.84-2.12.84-1.67 0-2.93-1.02-2.93-2.79Zm6.6 1.28c0-1.2 1.12-1.78 3.88-2-.03-.73-.38-1.34-1.42-1.34-.69 0-1.38.33-1.87.64l-.36-.62c.55-.35 1.45-.77 2.39-.77 1.46 0 2.18.87 2.18 2.2v3.28h-.76l-.08-.73h-.03c-.58.46-1.35.86-2.1.86-1 0-1.83-.56-1.83-1.52m3.88-.01v-1.39c-2.29.18-2.98.63-2.98 1.33 0 .6.55.85 1.17.85s1.2-.29 1.82-.79Zm2.62.69.42-.6c.62.44 1.34.73 2.32.73.9 0 1.34-.37 1.34-.83 0-.41-.21-.69-1.66-.99-1.4-.29-2.09-.76-2.09-1.56 0-.86.76-1.52 2.22-1.52.81 0 1.63.32 2.16.68l-.44.58c-.5-.34-1.11-.56-1.79-.56-.9 0-1.23.36-1.23.77 0 .46.46.66 1.56.89 1.77.38 2.2.83 2.2 1.65 0 .87-.85 1.6-2.38 1.6a4.65 4.65 0 0 1-2.63-.84m6.48-1.96c0-1.79 1.23-2.82 2.64-2.82s2.64 1.02 2.64 2.82-1.23 2.79-2.64 2.79-2.64-1.02-2.64-2.79m4.34 0c0-1.23-.68-2.06-1.71-2.06s-1.71.83-1.71 2.06.68 2.04 1.71 2.04 1.71-.81 1.71-2.04M148.52 25.15h.94l1.23 3.03c.21.54.41 1.07.59 1.58h.04c.19-.52.36-1.04.58-1.58l1.23-3.03h.88l-2.22 5.35h-1.02zm6.8 2.66c0-1.74 1.3-2.79 2.73-2.79 1.54 0 2.44 1 2.44 2.51 0 .21-.02.41-.04.55h-4.52v-.7h3.98l-.23.25c0-1.27-.63-1.89-1.61-1.89s-1.85.75-1.85 2.08.9 2.09 2.09 2.09c.64 0 1.14-.2 1.63-.51l.33.59c-.53.35-1.21.64-2.07.64-1.61 0-2.88-1.03-2.88-2.82m6.87-2.66h.75l.08.9h.04c.56-.58 1.18-1.03 2.01-1.03 1.27 0 1.85.75 1.85 2.16v3.32h-.91v-3.2c0-1.01-.35-1.49-1.22-1.49-.64 0-1.07.32-1.68.96v3.73h-.91v-5.35Zm6.33 2.66c0-1.74 1.3-2.79 2.73-2.79 1.54 0 2.44 1 2.44 2.51 0 .21-.02.41-.04.55h-4.52v-.7h3.98l-.23.25c0-1.27-.63-1.89-1.61-1.89s-1.85.75-1.85 2.08.9 2.09 2.09 2.09c.64 0 1.14-.2 1.63-.51l.33.59c-.53.35-1.21.64-2.07.64-1.61 0-2.88-1.03-2.88-2.82m7.44-2.66h.76l.09 1.27h.02c.56-.87 1.4-1.4 2.39-1.4.4 0 .73.05 1.06.22l-.21.78c-.37-.12-.57-.18-.99-.18-.8 0-1.56.41-2.2 1.53v3.12h-.91v-5.35Zm5.67 2.68c0-1.74 1.16-2.82 2.42-2.82.64 0 1.13.25 1.61.68h.02l-.04-.98v-2.06h.91v7.83h-.75l-.08-.7h-.03c-.44.45-1.08.84-1.75.84-1.39 0-2.31-1.01-2.31-2.79m4 1.23V26.4c-.48-.45-.94-.62-1.4-.62-.92 0-1.67.81-1.67 2.04s.59 2.04 1.57 2.04c.53 0 1.02-.26 1.5-.79Zm5.4-3.18h-2.48v-.74h3.39v5.35h-.91zm-1.13-3.32.64-.62 1.56 1.85-.47.45zm11.89.1h.91v2.13l-.06 1.26h.03c.54-.59 1.17-1.04 1.99-1.04 1.27 0 1.85.75 1.85 2.16v3.32h-.91v-3.2c0-1.01-.35-1.49-1.22-1.49-.64 0-1.07.32-1.68.96v3.73h-.91zm6.46 6.45c0-1.2 1.12-1.78 3.88-2-.03-.73-.38-1.34-1.42-1.34-.69 0-1.38.33-1.87.64l-.36-.62c.55-.35 1.45-.77 2.39-.77 1.46 0 2.18.87 2.18 2.2v3.28h-.76l-.08-.73h-.03c-.58.46-1.35.86-2.1.86-1 0-1.83-.56-1.83-1.52m3.88-.01v-1.39c-2.29.18-2.98.63-2.98 1.33 0 .61.55.85 1.17.85s1.2-.29 1.82-.79Zm5.3-3.22h-2.48v-.74h3.39v5.35h-.91zm-.36-2.56c0-.42.31-.7.73-.7s.73.29.73.7-.31.7-.73.7-.73-.28-.73-.7m10.88 6.47.42-.6c.62.44 1.34.73 2.32.73.9 0 1.34-.37 1.34-.83 0-.41-.21-.69-1.66-.99-1.4-.29-2.09-.76-2.09-1.56 0-.86.76-1.52 2.22-1.52.81 0 1.63.32 2.16.68l-.44.58c-.5-.34-1.11-.56-1.79-.56-.9 0-1.23.36-1.23.77 0 .46.46.66 1.56.89 1.77.38 2.2.83 2.2 1.65 0 .87-.85 1.59-2.38 1.59a4.65 4.65 0 0 1-2.63-.84Zm6.84-4.64h.75l.08.68h.03c.5-.47 1.2-.81 1.85-.81 1.44 0 2.21 1.07 2.21 2.73 0 1.82-1.14 2.88-2.43 2.88-.5 0-1.11-.25-1.6-.69h-.02l.04 1.01v1.8h-.91zm3.98 2.59c0-1.18-.44-1.96-1.51-1.96-.47 0-1.02.24-1.56.79v2.66c.5.45 1.06.62 1.42.62.95 0 1.65-.79 1.65-2.11m2.47 1.37c0-1.2 1.12-1.78 3.88-2-.03-.73-.38-1.34-1.42-1.34-.69 0-1.38.33-1.87.64l-.36-.62c.55-.35 1.45-.77 2.39-.77 1.46 0 2.18.87 2.18 2.2v3.28h-.76l-.08-.73h-.03c-.58.46-1.35.86-2.1.86-1 0-1.83-.56-1.83-1.52m3.89-.01v-1.39c-2.29.18-2.98.63-2.98 1.33 0 .61.55.85 1.17.85s1.2-.29 1.82-.79Zm2.62.91 3.65-4.13h-3.25v-.74h4.55v.48l-3.65 4.11h3.75v.75h-5.06V30Zm9.28-4.13h-2.48v-.74h3.39v5.35h-.91zm-.36-2.56c0-.42.31-.7.73-.7s.73.29.73.7-.31.7-.73.7-.73-.28-.73-.7m4.15 4.51c0-1.79 1.23-2.82 2.64-2.82s2.64 1.02 2.64 2.82-1.23 2.79-2.64 2.79-2.64-1.02-2.64-2.79m4.35 0c0-1.23-.68-2.06-1.71-2.06s-1.71.83-1.71 2.06.68 2.04 1.71 2.04 1.71-.81 1.71-2.04M99.83 44l.04-.99h-.02c-.44.45-1.06.81-1.72.81-1.39 0-2.31-1.01-2.31-2.79s1.16-2.82 2.42-2.82c.65 0 1.16.25 1.65.73h.03l.09-.59h.73v7.6h-.91zm0-1.74V39.6c-.48-.45-.93-.62-1.4-.62-.92 0-1.67.81-1.67 2.04s.59 2.04 1.57 2.04c.53 0 1.02-.26 1.5-.79Zm2.79-.59v-3.32h.91v3.2c0 1 .35 1.49 1.23 1.49.62 0 1.07-.29 1.66-.98v-3.71h.91v5.35h-.76l-.08-.94h-.04c-.54.63-1.17 1.07-1.99 1.07-1.26 0-1.85-.75-1.85-2.16Zm6.63.64c0-1.2 1.12-1.78 3.88-2-.03-.73-.39-1.34-1.42-1.34-.69 0-1.38.33-1.87.64l-.36-.62c.55-.35 1.45-.77 2.39-.77 1.46 0 2.18.87 2.18 2.2v3.28h-.76l-.08-.73h-.03c-.58.46-1.35.86-2.1.86-1 0-1.83-.56-1.83-1.52m3.88-.02V40.9c-2.29.18-2.98.63-2.98 1.33 0 .6.55.85 1.17.85s1.2-.29 1.82-.79Zm2.86-3.94h.75l.08.9h.04c.56-.58 1.18-1.03 2.01-1.03 1.26 0 1.85.75 1.85 2.16v3.32h-.91v-3.2c0-1.01-.35-1.48-1.22-1.48-.64 0-1.07.32-1.68.96v3.73H116v-5.35Zm6.24 2.68c0-1.74 1.16-2.82 2.42-2.82.64 0 1.13.25 1.61.68h.02l-.04-.98v-2.06h.91v7.83h-.75l-.08-.7h-.03c-.44.45-1.08.84-1.75.84-1.39 0-2.31-1.01-2.31-2.79m4 1.23V39.6c-.48-.45-.93-.62-1.4-.62-.92 0-1.67.81-1.67 2.04s.59 2.04 1.57 2.04c.53 0 1.02-.26 1.5-.79Zm2.6-1.23c0-1.79 1.23-2.82 2.64-2.82s2.64 1.02 2.64 2.82-1.23 2.79-2.64 2.79-2.64-1.02-2.64-2.79m4.35 0c0-1.23-.68-2.06-1.71-2.06s-1.71.83-1.71 2.06.68 2.04 1.71 2.04 1.71-.81 1.71-2.04m8.74-2.68h.93l1.23 3.03c.21.54.41 1.07.59 1.58h.04c.19-.52.36-1.04.58-1.58l1.23-3.03h.88l-2.22 5.35h-1.02l-2.25-5.35Zm6.93 3.96c0-1.2 1.12-1.78 3.88-2-.03-.73-.39-1.34-1.42-1.34-.69 0-1.38.33-1.87.64l-.36-.62c.55-.35 1.45-.77 2.39-.77 1.46 0 2.18.87 2.18 2.2v3.28h-.76l-.08-.73h-.03c-.58.46-1.35.86-2.1.86-1 0-1.83-.56-1.83-1.52m3.88-.02V40.9c-2.29.18-2.98.63-2.98 1.33 0 .6.55.85 1.17.85s1.2-.29 1.82-.79Zm5.31-3.21h-2.48v-.74h3.39v5.35h-.91zm-.37-2.56c0-.42.31-.7.73-.7s.73.29.73.7-.31.7-.73.7-.73-.28-.73-.7m10.65 1.83h.93l1.23 3.03c.21.54.41 1.07.59 1.58h.04c.19-.52.36-1.04.58-1.58l1.23-3.03h.88l-2.22 5.35h-1.02l-2.25-5.35Zm9.52.73h-2.48v-.74h3.39v5.35h-.91zm-.37-2.56c0-.42.31-.7.73-.7s.73.29.73.7-.31.7-.73.7-.73-.28-.73-.7m4.38 5.79c0-1.2 1.12-1.78 3.88-2-.03-.73-.38-1.34-1.42-1.34-.69 0-1.38.33-1.87.64l-.36-.62c.55-.35 1.45-.77 2.39-.77 1.46 0 2.18.87 2.18 2.2v3.28h-.76l-.08-.73h-.03c-.58.46-1.35.86-2.1.86-1 0-1.83-.56-1.83-1.52m3.88-.02V40.9c-2.29.18-2.98.63-2.98 1.33 0 .6.55.85 1.17.85s1.2-.29 1.82-.79Zm9.32-1.26c0-1.79 1.36-2.82 2.98-2.82.87 0 1.51.35 1.95.78l-.45.58c-.44-.37-.9-.6-1.46-.6-1.23 0-2.08.83-2.08 2.06s.84 2.04 2.06 2.04c.66 0 1.21-.3 1.65-.67l.41.59c-.59.53-1.33.84-2.12.84-1.67 0-2.93-1.02-2.93-2.79Zm6.74-5.17h.91v2.13l-.06 1.27h.03c.54-.59 1.17-1.05 1.99-1.05 1.27 0 1.85.75 1.85 2.16v3.32h-.91v-3.2c0-1.01-.35-1.48-1.22-1.48-.64 0-1.07.32-1.68.96v3.73h-.91v-7.83Zm9.04 3.22h-2.48v-.74h3.39v5.35h-.91zm-.36-2.56c0-.42.31-.7.73-.7s.73.29.73.7-.31.7-.73.7-.73-.28-.73-.7m4.38 5.79c0-1.2 1.12-1.78 3.88-2-.03-.73-.38-1.34-1.42-1.34-.69 0-1.38.33-1.87.64l-.36-.62c.55-.35 1.45-.77 2.39-.77 1.46 0 2.18.87 2.18 2.2v3.28h-.76l-.08-.73h-.03c-.58.46-1.35.86-2.1.86-1 0-1.83-.56-1.83-1.52m3.88-.02V40.9c-2.29.18-2.98.63-2.98 1.33 0 .6.55.85 1.17.85s1.2-.29 1.82-.79Zm2.48-3.94h.73l.08.7h.02c.28-.5.61-.84 1.22-.84.53 0 .86.31 1.01.92.31-.57.64-.92 1.25-.92.75 0 1.19.58 1.19 1.65v3.83h-.9v-3.76c0-.62-.18-.94-.57-.94-.37 0-.57.28-.86.83v3.87h-.84v-3.76c0-.62-.15-.94-.55-.94-.37 0-.62.28-.88.83v3.87h-.9v-5.35Zm9.42.73h-2.48v-.74h3.39v5.35h-.91zm-.36-2.56c0-.42.31-.7.73-.7s.73.29.73.7-.31.7-.73.7-.73-.28-.73-.7m4.38 5.79c0-1.2 1.12-1.78 3.88-2-.03-.73-.38-1.34-1.42-1.34-.69 0-1.38.33-1.87.64l-.36-.62c.55-.35 1.45-.77 2.39-.77 1.46 0 2.18.87 2.18 2.2v3.28h-.76l-.08-.73h-.03c-.58.46-1.35.86-2.1.86-1 0-1.83-.56-1.83-1.52m3.88-.02V40.9c-2.29.18-2.98.63-2.98 1.33 0 .6.55.85 1.17.85s1.2-.29 1.82-.79Zm2.47-3.94h.73l.08.7h.02c.28-.5.61-.84 1.22-.84.53 0 .86.31 1.01.92.31-.57.64-.92 1.25-.92.75 0 1.19.58 1.19 1.65v3.83h-.9v-3.76c0-.62-.18-.94-.57-.94-.37 0-.57.28-.86.83v3.87h-.84v-3.76c0-.62-.15-.94-.55-.94-.37 0-.62.28-.88.83v3.87h-.9v-5.35Zm6.63 2.68c0-1.79 1.23-2.82 2.64-2.82s2.64 1.02 2.64 2.82-1.23 2.79-2.64 2.79-2.64-1.02-2.64-2.79m4.34 0c0-1.23-.68-2.06-1.71-2.06s-1.71.83-1.71 2.06.68 2.04 1.71 2.04 1.71-.81 1.71-2.04m9.08 1.28c0-1.2 1.12-1.78 3.88-2-.03-.73-.38-1.34-1.42-1.34-.69 0-1.38.33-1.87.64l-.36-.62c.55-.35 1.45-.77 2.39-.77 1.46 0 2.18.87 2.18 2.2v3.28h-.76l-.08-.73h-.03c-.58.46-1.35.86-2.1.86-1 0-1.83-.56-1.83-1.52m3.88-.02V40.9c-2.29.18-2.98.63-2.98 1.33 0 .6.55.85 1.17.85s1.2-.29 1.82-.79Zm-30.52 9.26h.73l.08.7h.02c.28-.5.61-.84 1.22-.84.53 0 .86.31 1.01.92.31-.57.64-.92 1.25-.92.75 0 1.19.58 1.19 1.65v3.83h-.9v-3.76c0-.62-.18-.94-.57-.94-.37 0-.57.28-.86.83v3.87h-.84v-3.76c0-.62-.15-.94-.55-.94-.37 0-.62.28-.88.83v3.87h-.9v-5.35Zm6.84 3.96c0-1.2 1.12-1.78 3.88-2-.03-.73-.38-1.34-1.42-1.34-.69 0-1.38.33-1.87.64l-.36-.62c.55-.35 1.45-.77 2.39-.77 1.46 0 2.18.87 2.18 2.2v3.28h-.76l-.08-.73h-.03c-.58.46-1.35.86-2.1.86-1 0-1.83-.56-1.83-1.52m3.88-.02V54.1c-2.29.18-2.98.63-2.98 1.33 0 .6.55.85 1.17.85s1.2-.29 1.82-.79Zm3.43-3.94h.76l.09 1.26h.02c.56-.87 1.4-1.4 2.39-1.4.4 0 .73.06 1.06.22l-.21.78c-.37-.12-.57-.18-.99-.18-.8 0-1.56.41-2.2 1.53v3.12h-.91v-5.35Zm5.89 2.68c0-1.79 1.36-2.82 2.98-2.82.87 0 1.51.35 1.95.78l-.45.58c-.44-.37-.9-.6-1.46-.6-1.23 0-2.08.83-2.08 2.06s.84 2.04 2.06 2.04c.66 0 1.21-.3 1.65-.67l.41.59c-.59.53-1.33.84-2.12.84-1.67 0-2.93-1.02-2.93-2.79Zm6.38 0c0-1.79 1.23-2.82 2.64-2.82s2.64 1.02 2.64 2.82-1.23 2.79-2.64 2.79-2.64-1.02-2.64-2.79m4.34 0c0-1.23-.68-2.06-1.71-2.06s-1.71.83-1.71 2.06.68 2.04 1.71 2.04 1.71-.81 1.71-2.04" class="cls-9"/><path id="numeri_carte" d="M264.74 180.54h1.84v-4.68h-1.43v-.54c.75-.1 1.23-.25 1.64-.47h.62v5.69h1.66v.69h-4.33z" class="cls-9" data-name="numeri carte"/></svg>