<?xml version="1.0" encoding="UTF-8"?>
<svg id="Livello_2" data-name="Livello 2" xmlns="http://www.w3.org/2000/svg" viewBox="0 0 23.01 101.84">
  <defs>
    <style>
      .cls-1 {
        stroke-width: .75px;
      }

      .cls-1, .cls-2 {
        fill: none;
        stroke: #1d1d1b;
        stroke-miterlimit: 10;
      }

      .cls-3 {
        fill: #1d1d1b;
      }
    </style>
  </defs>
  <g id="luoghi">
    <path class="cls-3" d="M11.26,1.47c.11-.6-.84-.9-1.3-.5-.46.4-.52,1.07-.54,1.68-.09,2.4-.18,4.87.58,7.15.18.52.45,1.09.97,1.28.76.27,1.52-.4,1.94-1.08,1.02-1.64,1.31-3.62,1.41-5.55.05-.99.06-2.02-.35-2.92C13.57.62,12.63-.11,11.65.01c-1.24.16-1.95,1.55-2.04,2.8-.09,1.25.2,2.52-.06,3.75"/>
    <path class="cls-1" d="M9.36,16.11c-3.11-.1-6.23.09-9.31.56,1.41.04,1.88,1.88,1.94,3.29.7,17.58.7,35.18,0,52.76-.3,7.6-.73,15.27.51,22.77-.22-.69-.22-1.45-.01-2.14,2.16.34,4.32.68,6.48,1.02"/>
    <path class="cls-1" d="M13.05,16.23c3.11-.19,6.23-.08,9.32.31-1.41.08-1.83,1.93-1.85,3.34-.22,17.59.26,35.19,1.44,52.74.51,7.59,1.15,15.24.12,22.78.2-.7.18-1.45-.05-2.14-2.15.4-4.3.8-6.45,1.2"/>
    <g>
      <path class="cls-3" d="M11.52,97.62c.97,1.91-5.15,3.56-6.36,3.72,1.05-.14,5.15-6.11,6.36-3.72Z"/>
      <path class="cls-2" d="M5.16,101.35c1.21-.17,7.33-1.81,6.36-3.72-1.22-2.39-5.31,3.58-6.36,3.72Z"/>
    </g>
    <g>
      <path class="cls-3" d="M11.91,97.88c-.81,1.98,5.42,3.12,6.65,3.19-1.06-.06-5.63-5.67-6.65-3.19Z"/>
      <path class="cls-2" d="M18.56,101.07c-1.22-.07-7.45-1.21-6.65-3.19,1.02-2.48,5.59,3.13,6.65,3.19Z"/>
    </g>
  </g>
</svg>