<svg xmlns="http://www.w3.org/2000/svg" id="Livello_2" data-name="Livello 2" viewBox="0 0 80.42 111.37"><defs><style>.cls-1{fill:none;stroke:#000;stroke-miterlimit:10;stroke-width:.75px}</style></defs><g id="italie"><path d="M64.78 81.93c1.1 1.25 2.15 2.41 3.14 3.6.24.29.48.73.44 1.07-.17 1.55-.46 3.08-.67 4.63-.1.77-.52.95-1.19.76-1.98-.79-3.96-.95-4.01 1.72 0 .83-.17 1.5-.94 2.05-1.36.97-2.58 2.14-3.92 3.14-.71.38-1.92 1.46-2.67 1.11 0-.56-.18-1.2.02-1.67 1.31-2.99 2.72-5.93 4.07-8.91.14-.31.13-.74.05-1.09-.62-2.98-1.21-5.96-1.95-8.91-.16-.64-.83-1.24-1.4-1.68-2.16-1.69-3.94-3.68-5.25-6.1-.2-.38-.58-.82-.96-.92-1.25-.33-1.52-1.08-1.19-2.22.04-.14.02-.29.03-.59-.69-.03-1.35-.06-1.99-.08-.36-3.14-2.42-5.08-4.86-6.5-3.5-2.05-6.12-4.81-8.11-8.3-.59-1.08-2.29-1.78-2.65-3-.31-4.2-3.85-6.81-6.26-9.86-.23-.29-.21-.95-.07-1.36 1.1-3.28.12-6.33-.99-9.35-.62-1.68-2.34-2.21-3.65-3.14a43 43 0 0 0-4.97-3.03c-.54-.29-1.41-.26-2.02-.06-2.54.81-5.03 1.75-7.55 2.62-.71.25-1.38.56-1.89-.49-.5-1.04.07-1.46.73-1.94.33-.24.7-.42 1.16-.7C3.77 20.76 2.4 19 .99 17.1q-.95-1.38.37-2.41c.54-.42 1.09-.83 1.78-1.35-.67-.79-1.32-1.55-1.76-2.07 1.05-.83 2.06-1.69 3.13-2.46.62-.44.93-.91.83-1.7-.28-4.34-1.1-3.55 3.38-3.15q3.5.37 5.76-2.28C16-.1 15.96-.07 17.25 1.75c.97 1.39 2.06 2.69 3.23 4.22.99-1.36 1.8-2.44 2.58-3.55.52-.73.98-1.05 1.8-.27.95.91 2.05 1.68 3.28 2.66.55-1.21 1.06-2.32 1.61-3.53.82.36 1.6.7 2.46 1.08.12-.28.24-.5.32-.74.27-.85.69-1.25 1.58-.66 2.93 1.87 6.16.13 9.24-.25.57-.14.87-.03.98.56.48 2.6 1.93 4.01 4.64 4.48 1.71.3 3.31 1.28 4.95 1.99 1.05.45 1.07.71.13 1.44-.69.53-1.38 1.05-2.14 1.63.97 2.32 1.94 4.62 2.94 7-4.28-.63-7.67.43-11.79.89-.52 2.61-1.31 5.3-1.49 8.03-.09 1.32.91 2.76 1.54 4.08 1.26 2.64 3.14 4.83 5.13 6.95.36.38.58.97.68 1.49.35 3.65 1.16 7.3 2.71 10.63.59 1.25 1.71 2.33 2.8 3.25 2.53 2.16 5.34 3.91 8.61 4.78 2.01.77 2.12 1.03 1.3 2.98-1.14 2.71-1.16 2.73 1 4.58 3.62 3.09 7.3 6.1 10.88 9.24 1.22 1.07 2.22 2.39 3.25 3.66.77.96.67 1.62-.19 2.49-.59.59-1.2 1.17-1.77 1.78-.53.56-.94.6-1.25-.2-.51-1.33-.94-2.91-2.14-3.78-1.38-.94-2.82-1.8-4.27-2.62-.25-.14-.86-.07-1 .13-1.4 1.88-2.74 3.82-4.11 5.75Z" class="cls-1"/><path d="M46.96 110.88c-6.66-4.45-13.1-8.85-19.7-13.32-.74-.5-.85-.99-.2-1.64 1.07-1.08 2.1-2.2 3.19-3.25.21-.2.64-.29.96-.25q2.67.285 5.31.66c.25.04.62.24.68.44.76 2.32 2.64 2.28 4.53 2.19 3.76-.13 7.51-.57 11.27-.55 1.08.05 1.32.53.76 1.45-1.18 1.95-2.29 3.94-3.51 5.86-.84 1.33-.72 2.72-.63 4.17.03.52-.04 1.17-.33 1.56-.76 1.02-1.67 1.94-2.34 2.69ZM9.77 77.51c-1.61-1.38-4.21-2.12-3.59-4.6.33-1.68.69-3.35.9-5.05.1-1.41-.56-2.86-.74-4.25-.18-2.12-.77-4.07-1.86-5.92-.37-.62-.31-1.5-.48-2.43.78.13 1.25.1 1.59.29 1.19.67 2.02.15 2.94-.61 1.23-1.01 2.6-1.84 3.87-2.81.72-.55 1.2-.29 1.58.35 1.6 2.63 2.93 5.18 4.16 8.05-2.23 1.48-1.28 3.94-1.46 6.05-.21 2.45-.06 4.94-.07 7.41 0 .18-.06.36-.12.73-1.09-.39-2.11-.72-3.11-1.12-.6-.24-.95-.14-1.3.43-.71 1.16-1.5 2.28-2.29 3.47Z" class="cls-1"/><path d="M33.92 38.23c-.5.16-1.06 0-1.42-.42-.96-1.16-2.17-3.1-2.47-5.77-.1-.85-.4-3.44 1.03-5.98 1.09-1.95 2.55-2.71 3.83-3.39 1.15-.6 2.06-1.08 2.73-2.37.59-1.14.8-2.54.57-3.96-.09-.58-.37-2.35-1.89-3.66-.39-.34-1.81-1.43-3.75-1.34-.45.05-3 .86-4.01 1.66-1.06.85-1.32 2.13-1.54 3.26-.26 1.3-.19 2.62.18 3.95.2.71-.24 1.41-.91 1.63-.7.2-1.43-.21-1.63-.91-.48-1.71-.56-3.5-.23-5.18.27-1.34.67-3.37 2.49-4.82 1.49-1.19 4.69-2.19 5.53-2.24 2.84-.14 4.87 1.34 5.61 1.98 1.5 1.29 2.43 3.06 2.77 5.25.31 1.97.01 3.96-.84 5.6-1.06 2.02-2.54 2.8-3.84 3.48-1.14.6-2.05 1.08-2.76 2.34-1 1.8-.78 3.75-.71 4.39a8.3 8.3 0 0 0 1.88 4.38c.47.56.39 1.4-.18 1.86q-.21.165-.45.24Zm3.76 7.66c-.6.19-1.26-.07-1.56-.64l-.91-1.73c-.34-.65-.1-1.45.55-1.79.64-.34 1.45-.09 1.79.55l.91 1.73c.34.65.09 1.45-.55 1.79-.07.04-.15.07-.23.09" style="fill:#e5232b"/></g></svg>