<svg xmlns="http://www.w3.org/2000/svg" id="Livello_2" data-name="Livello 2" viewBox="0 0 79.67 110.5"><defs><style>.cls-1{fill:#e52421}</style></defs><g id="italie"><path d="M64.41 81.56c1.1 1.25 2.15 2.41 3.14 3.6.24.29.48.73.44 1.07-.17 1.55-.46 3.08-.67 4.63-.1.77-.52.95-1.19.76-.37-.1-.73-.22-1.09-.35-1.73-.61-2.93.24-2.92 2.07 0 .83-.17 1.5-.94 2.05-1.36.97-2.58 2.14-3.92 3.14-.68.51-1.49.85-2.25 1.27-.14-.05-.28-.1-.42-.16 0-.56-.18-1.2.02-1.67 1.31-2.99 2.72-5.93 4.07-8.91.14-.31.13-.74.05-1.09-.62-2.98-1.21-5.96-1.95-8.91-.16-.64-.83-1.24-1.4-1.68-2.16-1.69-3.94-3.68-5.25-6.1-.2-.38-.58-.82-.96-.92-1.25-.33-1.52-1.08-1.19-2.22.04-.14.02-.29.03-.59-.69-.03-1.35-.06-1.99-.08-.36-3.14-2.42-5.08-4.86-6.5-3.5-2.05-6.12-4.81-8.11-8.3-.42-.74-1.25-1.23-1.86-1.88-.32-.33-.78-.74-.79-1.12-.06-2.34-1.41-4.07-2.71-5.78-1.09-1.43-2.42-2.68-3.55-4.08-.23-.29-.21-.95-.07-1.36 1.1-3.28.12-6.33-.99-9.35-.62-1.68-2.34-2.21-3.65-3.14a43 43 0 0 0-4.97-3.03c-.54-.29-1.41-.26-2.02-.06-2.54.81-5.03 1.75-7.55 2.62-.71.25-1.38.56-1.89-.49-.5-1.04.07-1.46.73-1.94.33-.24.7-.42 1.16-.7-1.22-1.61-2.37-3.12-3.51-4.63-.25-.33-.52-.66-.75-1q-.95-1.38.37-2.41c.54-.42 1.09-.83 1.78-1.35-.67-.79-1.32-1.55-1.76-2.07 1.05-.83 2.06-1.69 3.13-2.46.62-.44.93-.91.83-1.7-.14-1.12-.16-2.26-.24-3.52 1.25.13 2.44.24 3.62.37q3.5.37 5.76-2.28c1.52-1.78 1.48-1.75 2.77.07.97 1.39 2.06 2.69 3.23 4.22.99-1.36 1.8-2.44 2.58-3.55.52-.73.98-1.05 1.8-.27.95.91 2.05 1.68 3.28 2.66.55-1.21 1.06-2.32 1.61-3.53.82.36 1.6.7 2.46 1.08.12-.28.24-.5.32-.74.27-.85.69-1.25 1.58-.66 1.92 1.27 3.95.89 6 .39C40.82.72 41.92.6 42.99.34c.57-.14.87-.03.98.56.48 2.6 1.93 4.01 4.64 4.48 1.71.3 3.31 1.28 4.95 1.99 1.05.45 1.07.71.13 1.44-.69.53-1.38 1.05-2.14 1.63.97 2.32 1.94 4.62 2.94 7-2.87-.58-5.43.11-8 .35-1.2.11-2.4.34-3.78.54-.52 2.61-1.31 5.3-1.49 8.03-.09 1.32.91 2.76 1.54 4.08 1.26 2.64 3.14 4.83 5.13 6.95.36.38.58.97.68 1.49.25 1.46.26 2.97.63 4.4.55 2.12 1.15 4.27 2.08 6.23.59 1.25 1.71 2.33 2.8 3.25 2.45 2.07 5.13 3.81 8.28 4.68.11.03.22.06.33.1 2.01.77 2.12 1.03 1.3 2.98-1.14 2.71-1.16 2.73 1 4.58 3.62 3.09 7.3 6.1 10.88 9.24 1.22 1.07 2.22 2.39 3.25 3.66.77.96.67 1.62-.19 2.49-.59.59-1.2 1.17-1.77 1.78-.53.56-.94.6-1.25-.2-.3-.78-.55-1.59-.94-2.32-.29-.55-.69-1.12-1.2-1.46-1.38-.94-2.82-1.8-4.27-2.62-.25-.14-.86-.07-1 .13-1.4 1.88-2.74 3.82-4.11 5.75ZM.64 15.58c1.44 1.9 2.8 3.64 4.1 5.42.48.66.93.8 1.74.52 2.37-.82 4.76-1.6 7.18-2.24 1.37-.36 2.82-.43 4.48-.66-1.27-2.19-2.46-4.26-3.66-6.32-.51-.88-.36-1.31.65-1.29 1.16.02 1.3-.61 1.44-1.53.27-1.71.69-3.4 1.03-5.11.05-.27.12-.64-.01-.82-.66-.96-1.39-1.88-2.13-2.86-.58.69-1.22 1.6-2.02 2.34-.72.66-.9 1.19-.52 2.14.31.78.24 1.71.24 2.58 0 .18-.41.51-.64.52-1.56.07-3.15.27-4.67.05-2.59-.38-4.12 1.45-6.14 2.38.59.73 1.14 1.32 1.57 1.99.13.21.04.77-.15.94-.75.68-1.59 1.26-2.49 1.96Zm28.29-4.68c.11-.54.14-1.04.31-1.49.62-1.71 1.3-3.4 1.91-5.12.6-1.71.57-1.72-1.07-2.44-.13-.06-.28-.06-.39-.08-.59 1.22-1.16 2.39-1.75 3.62-1.52-1.22-2.91-2.34-4.39-3.53a980 980 0 0 0-3.2 4.62c-.65-.64-1.32-1.3-2.17-2.15-.5 2.53-.94 4.74-1.4 7.05-.53.08-1.19.18-1.92.28 1.28 2.23 2.53 4.39 3.83 6.65.34-.54.61-.98.89-1.42.44-.7 1.02-.94 1.85-.64 2.04.72 4.1 1.39 6.16 2.08 1.8.6 3.6 1.18 5.59 1.83-1.01-1.19-1.87-2.2-2.73-3.2-.5-.59-.54-1.12-.16-1.86.58-1.13.97-2.35 1.47-3.63l-2.83-.56Zm14.9 22.82c-.5-.92-.92-1.55-1.22-2.24-1.02-2.3-2.86-4.4-1.82-7.25.07-.2-.46-.81-.82-.96-1.51-.63-3.04-1.19-4.59-1.7-4.33-1.43-8.67-2.83-13.01-4.25-1.96-.64-2.21-.56-3.12 1.25-.11.22-.14.64 0 .79 1.05 1.13 2.01 2.42 3.27 3.27 2.06 1.4 4.34 2.49 6.5 3.75 2.63 1.54 5.74 2.55 6.67 6.02.1.37.71.8 1.12.84 2.26.22 4.53.32 7.03.48Zm-14.3 11.53c2.42-2.65 4.89-5.14 7.06-7.86.56-.71.2-2.16.25-3.27 0-.06-.17-.18-.25-.18-1.6 0-1.52-1.45-2.02-2.36-.46-.85-.73-1.76-1.72-2.29-3.34-1.8-6.63-3.69-9.95-5.54-.27-.15-.57-.24-.98-.41.3 1.13.55 2.09.81 3.03.16.56.29 1.14.53 1.66 1.27 2.84 2.32 5.71 1.83 8.91-.19 1.23-.77 2.29.64 3.48 1.52 1.28 2.53 3.17 3.81 4.84ZM76.6 81.8c.29-.25.49-.41.67-.58 2.13-2 2.29-2.16.25-4.21-2.87-2.87-5.98-5.51-9.04-8.19-1.71-1.51-3.54-2.88-5.25-4.4-.41-.36-.82-1.09-.74-1.56.16-.95.61-1.88 1.05-2.75.47-.95.22-1.49-.72-1.84-1.39-.51-2.8-.99-4.14-1.61-.6-.28-.89-.17-1.23.3-.73 1.02-1.55 1.98-2.21 3.05-1.4 2.26-1.49 1.68.49 3.43 2.88 2.54 5.91 4.92 8.86 7.38 2.62 2.19 5.08 4.58 8.23 6.05 1.45.68 2.6 1.67 2.99 3.36.12.53.5 1 .79 1.57M46.27 5.56c-.06-.08-.13-.16-.19-.25-.42.2-.87.35-1.24.61-2.49 1.75-4.92 3.57-7.44 5.26-1.98 1.32-4.09 2.45-6.08 3.76-.35.23-.69 1.16-.54 1.33 1.33 1.54 2.58 3.3 4.25 4.37 1.71 1.09 3.87 1.45 5.92 2.17.38-1.46.79-2.8 1.08-4.16.18-.86.63-1.04 1.43-1.09 1.29-.09 2.57-.35 4.08-.57-.67-.77-1.27-1.28-1.65-1.92-.67-1.13-2.38-1.64-2.26-3.14.11-1.33.68-2.63 1.1-3.93.14-.42.41-.81.65-1.2.27-.43.58-.84.88-1.25ZM56.7 77.39c.28-3.87.56-7.59.84-11.42-1.14-1.04-2.29-2.52-3.8-3.38-2.41-1.36-5.05-2.29-7.61-3.41-.31.83-.6 1.73-.99 2.6-.4.89-.26 1.62.32 2.4.55.74.94 1.59 1.48 2.55.4.1 1.4.07 1.64.48.32.55.05 1.44.03 2.21 1.3.28 1.92 1.18 2.53 2.27 1.31 2.35 3.23 4.15 5.55 5.71Zm4.77 2.21c-1.28 0-1.52.64-3.33-.58-.13-.09-.36-.04-.65-.07.07.56.09 1.05.2 1.52.59 2.52 1.22 5.03 1.79 7.55.08.36.04.82-.11 1.16-.95 2.03-1.97 4.02-2.91 6.05-.51 1.1-.91 2.25-1.36 3.38.68-.05 1.14-.22 1.52-.51 1.51-1.16 3.01-2.32 4.45-3.56.3-.26.51-.94.39-1.31-.37-1.13.29-1.68 1.02-2.25.41-.33.81-.67 1.15-.95 1.01.34 1.93.65 2.96 1 .34-2.61 1.65-5.14-1.01-7.17-.5-.39-.84-.98-1.31-1.41-.57-.52-.7-.94-.18-1.63.4-.52.87-.82.65-1.44-.36-1.02-1.83.22-3.27.22M31.94 43.71c-.48.53-1.04 1.1-1.55 1.71-.17.21-.39.67-.31.75 1.27 1.36.24 4.02 2.66 4.74.22.07.35.48.51.73.79 1.25 1.54 2.52 2.38 3.74 2.18 3.15 5.71 4.68 8.61 7.05.37-1 .7-1.97 1.08-2.92.4-1 .07-1.73-.72-2.39-1.48-1.25-2.94-2.54-4.37-3.85-.62-.57-1.14-1.23-1.89-2.04 1.28-.21 2.24-.36 3.26-.53-.12-.14-.21-.25-.31-.36-1-1.08-.98-1.19.24-1.88.93-.53 1.84-1.09 2.76-1.64-.04-.16-.07-.32-.11-.47-.9.05-1.85-.06-2.69.18-1.74.51-3.46 1.15-5.13 1.87-.77.33-1.13.07-1.51-.48-.97-1.4-1.95-2.8-2.93-4.21Zm-.42-29.74c.11.11.21.22.32.33 4.35-3.09 8.7-6.19 13.04-9.28-.52-1.42-1.01-2.73-1.54-4.17-2.08.44-4.1.91-6.15 1.27-.58.1-1.25 0-1.83-.17-.84-.26-1.63-.67-2.44-1.01-1.14 3.25-2.23 6.34-3.31 9.42.73.14 1.25.23 1.77.36.77.19 1.23.56.81 1.46-.27.58-.45 1.19-.67 1.79m6.23 20.19c-.12 3.41-.64 2.41 2.27 3.74.28.13.62.18.82.38.31.31.69.7.74 1.09.17 1.24.18 2.5.28 3.75.18 2.08.17 2.15 2.19 2.67 1.67.43 3.38.69 5.06 1.03-.23-1.71-.35-3.19-.64-4.63-.33-1.66-.01-3.5-1.47-4.87-1.02-.95-1.89-2.07-2.68-2.96-2.22-.07-4.35-.13-6.56-.2Zm15.85 19.5c-1.13-1.6-2.42-3.14-3.36-4.87-.53-.97-1.12-1.44-2.11-1.54-.97-.1-2.07-.49-2.88-.17-1.37.54-2.57 1.54-3.85 2.36.47.6.9 1.15 1.45 1.87-1.2.14-2.08.24-3.27.37 2.31 2.08 4.41 3.97 6.36 5.73 2.73-1.33 5.31-2.59 7.67-3.75Zm4.86 12.94-.39.21c-.18 3.37-.37 6.74-.54 10.11-.02.32.01.74.2.97.57.71 2.82 1.23 3.67.81 1.51-.12 2.8-.27 4.14-.59s1.75-2.25 2.81-3.22c-3.45-2.89-6.67-5.59-9.89-8.28Zm-5.15-50.16c-.72-1.77-1.41-3.5-2.12-5.21-.3-.74-.2-1.29.56-1.72.63-.35 1.18-.84 1.86-1.34-2.35-.93-4.45-1.77-6.53-2.6-1.49 1.86-2.32 3.85-2.68 6.02-.05.3.04.71.22.94 1.18 1.39 2.4 2.75 3.63 4.09.16.18.53.26.79.24 1.39-.11 2.78-.27 4.26-.42ZM41.4 45.56c-.18-2.13-.34-4.06-.51-5.99-1.12-.61-2.24-1.23-3.38-1.82-.05-.03-.23.17-.34.28-1.4 1.45-2.82 2.88-4.17 4.38-.21.23-.28.85-.12 1.13.74 1.28 1.55 2.53 2.42 3.73.19.26.79.47 1.09.37 1.55-.52 3.06-1.13 4.58-1.74.21-.08.36-.3.41-.34ZM22.01 26.77c-.05-.42-.05-.56-.08-.7-.48-2.18-1.12-4.28-2.87-5.82-.35-.31-.82-.72-1.21-.7-4.9.29-9.52 1.59-13.74 4.15-.26.16-.33.64-.48.97.36.05.76.24 1.07.13 2.63-.88 5.25-1.79 7.85-2.75.9-.33 1.61-.28 2.43.27 2.24 1.49 4.55 2.88 7.04 4.44ZM57.38 55.9c-1.45-1.12-2.89-2.3-4.88-.95-.24.17-.57.21-.84.35-1.74.88-3.48 1.78-5.21 2.67v.51c2.23 1.01 4.46 2.03 6.71 3.01.15.06.51-.11.62-.28 1.21-1.74 2.39-3.51 3.61-5.32ZM5.51 3.97c.01.48.02.9.04 1.31.11 2.31.11 2.35 2.43 2.4 1.49.03 2.99-.07 4.59-.11-.1-.84-.12-1.53-.3-2.17-.08-.31-.44-.73-.72-.77-1.99-.27-3.99-.45-6.04-.66" class="cls-1"/><path d="M46.59 110.5c-2.88-1.94-5.68-3.81-8.47-5.7-3.75-2.54-7.48-5.09-11.24-7.62-.74-.5-.85-.99-.2-1.64 1.07-1.08 2.1-2.2 3.19-3.25.21-.2.64-.29.96-.25q2.67.285 5.31.66c.25.04.62.24.68.44.76 2.32 2.64 2.28 4.53 2.19 3.19-.16 6.38-.37 9.57-.55q.855-.045 1.71 0c1.08.05 1.32.53.76 1.45-1.18 1.95-2.29 3.94-3.51 5.86-.84 1.33-.72 2.72-.63 4.17.03.52-.04 1.17-.33 1.56-.76 1.02-1.67 1.94-2.34 2.69ZM26.9 96.43c6.56 4.41 13.03 8.75 19.62 13.18.51-.6 1.1-1.23 1.63-1.91.23-.3.54-.75.47-1.06-.57-2.68.42-4.89 1.88-7.01.87-1.26 1.61-2.62 2.52-4.13-1.13 0-2-.01-2.86.01-3.68.12-7.36.23-11.03.38-1.08.04-1.85-.36-2.25-1.35-.33-.81-.89-1.13-1.74-1.21-1.36-.14-2.71-.4-4.07-.57-.31-.04-.75 0-.93.18-1.06 1.08-2.07 2.21-3.23 3.48ZM9.4 77.13c-.95-.68-1.73-1.28-2.54-1.83-1.01-.68-1.28-1.61-1.05-2.77.33-1.68.69-3.35.9-5.05.09-.73-.16-1.52-.3-2.27-.12-.67-.38-1.32-.44-1.98-.18-2.12-.77-4.07-1.86-5.92-.37-.62-.31-1.5-.48-2.43.78.13 1.25.1 1.59.29 1.19.67 2.02.15 2.94-.61 1.23-1.01 2.6-1.84 3.87-2.81.72-.55 1.2-.29 1.58.35.81 1.37 1.61 2.75 2.35 4.16.64 1.24 1.19 2.53 1.82 3.89-2.23 1.48-1.28 3.94-1.46 6.05-.21 2.45-.06 4.94-.07 7.41 0 .18-.06.36-.12.73-1.09-.39-2.11-.72-3.11-1.12-.6-.24-.95-.14-1.3.43-.71 1.16-1.5 2.28-2.29 3.47Zm6.09-3.79c.14-3.82.25-7.51.44-11.2.03-.57.46-1.12.69-1.68.1-.26.32-.6.23-.78-1.16-2.35-2.37-4.68-3.56-7.02-.32-.63-.72-.55-1.19-.19-1.46 1.1-2.95 2.15-4.36 3.31-.57.47-1.05.65-1.74.41-.54-.19-1.12-.28-1.96-.48.32.76.42 1.32.74 1.7 1.17 1.43 1.38 3.19 1.75 4.89.22.99.45 1.98.66 2.97.11.5.33 1.01.27 1.49-.29 1.99-.71 3.96-.97 5.96-.08.58.04 1.37.39 1.77.62.69 1.49 1.15 2.31 1.74.98-1.45 1.9-2.83 2.81-4.18 1.2.44 2.3.84 3.49 1.28Z" class="cls-1"/></g></svg>