<?xml version="1.0" encoding="UTF-8"?>
<svg id="Livello_2" data-name="Livello 2" xmlns="http://www.w3.org/2000/svg" viewBox="0 0 33.36 24.62">
  <defs>
    <style>
      .cls-1 {
        fill: #fff;
      }
    </style>
  </defs>
  <g id="Livello_5" data-name="Livello 5">
    <g>
      <path class="cls-1" d="M2.89,24.62v-10.47h28v10.47H11.02v-8.38h-5.11v8.38h-3.02ZM27.74,17h-13.7v4.13h13.7v-4.13Z"/>
      <rect class="cls-1" x="3.89" width="26" height="2.17"/>
      <path class="cls-1" d="M0,11.32L3.44,3.7h26.92l3,7.62v.09c0,.83-.76,1.51-1.69,1.51s-1.69-.68-1.69-1.51h-1.6c0,.83-.76,1.51-1.69,1.51s-1.69-.68-1.69-1.51h-1.6c0,.83-.76,1.51-1.69,1.51s-1.69-.68-1.69-1.51h-1.6c0,.83-.76,1.51-1.69,1.51s-1.69-.68-1.69-1.51h-1.6c0,.83-.76,1.51-1.69,1.51s-1.69-.68-1.69-1.51h-1.6c0,.83-.76,1.51-1.69,1.51s-1.69-.68-1.69-1.51h-1.6c0,.83-.76,1.51-1.69,1.51s-1.69-.68-1.69-1.51l-.13-.09Z"/>
    </g>
  </g>
</svg>