<svg xmlns="http://www.w3.org/2000/svg" data-name="Livello 2" viewBox="0 0 33.36 24.62"><path d="M2.89 24.62V14.15h28v10.47H11.02v-8.38H5.91v8.38zM27.74 17h-13.7v4.13h13.7zM3.89 0h26v2.17h-26zM0 11.32 3.44 3.7h26.92l3 7.62v.09c0 .83-.76 1.51-1.69 1.51s-1.69-.68-1.69-1.51h-1.6c0 .83-.76 1.51-1.69 1.51S25 12.24 25 11.41h-1.6c0 .83-.76 1.51-1.69 1.51s-1.69-.68-1.69-1.51h-1.6c0 .83-.76 1.51-1.69 1.51s-1.69-.68-1.69-1.51h-1.6c0 .83-.76 1.51-1.69 1.51s-1.69-.68-1.69-1.51h-1.6c0 .83-.76 1.51-1.69 1.51s-1.69-.68-1.69-1.51h-1.6c0 .83-.76 1.51-1.69 1.51S.1 12.24.1 11.41l-.13-.09Z" data-name="Livello 5" style="fill:#fff"/></svg>