<svg xmlns="http://www.w3.org/2000/svg" id="Livello_2" data-name="Livello 2" viewBox="0 0 27.51 21.43"><defs><style>.cls-1{fill:#fff}.cls-2{fill:#e52424}</style></defs><g id="KIPARLA"><rect width="13.81" height="17.34" y="1.28" class="cls-2" rx="1.64" ry="1.64"/><circle cx="13.81" cy="17.58" r="1.69" class="cls-2"/><path d="M13.7 17.84c0-.71-2.75-1.28-6.14-1.28s-6.14.57-6.14 1.28V1.39C1.42.69 4.17.12 7.56.12S13.7.69 13.7 1.4v16.45Z" class="cls-1"/><path d="M13.81 17.84h-.22c0-.55-2.48-1.16-6.03-1.16s-6.03.61-6.03 1.16h-.22V1.39C1.31.49 4.53 0 7.56 0s6.25.49 6.25 1.39zm-6.25-1.39c2.56 0 5.25.35 6.03 1V1.39c0-.55-2.48-1.16-6.03-1.16S1.53.84 1.53 1.39v16.06c.78-.65 3.47-1 6.03-1" class="cls-2"/><path d="M1.42 17.84c0-.68 2.75-1.23 6.14-1.23s6.14.55 6.14 1.23" class="cls-1"/><path d="M13.81 17.84h-.22c0-.53-2.48-1.12-6.03-1.12s-6.03.59-6.03 1.12h-.22c0-.87 3.22-1.34 6.25-1.34s6.25.47 6.25 1.34" class="cls-2"/><rect width="13.81" height="17.34" x="13.7" y="1.28" class="cls-2" rx="1.73" ry="1.73" transform="matrix(-1 0 0 -1 41.2 19.9)"/><path d="M13.81 17.84c0-.71 2.75-1.28 6.14-1.28s6.14.57 6.14 1.28V1.39c0-.71-2.75-1.28-6.14-1.28s-6.14.57-6.14 1.28z" class="cls-1"/><path d="M26.2 17.84h-.22c0-.55-2.48-1.16-6.03-1.16s-6.03.61-6.03 1.16h-.22V1.39C13.7.49 16.92 0 19.95 0s6.25.49 6.25 1.39zm-6.25-1.39c2.56 0 5.25.35 6.03 1V1.39c0-.55-2.48-1.16-6.03-1.16s-6.03.61-6.03 1.16v16.06c.78-.65 3.47-1 6.03-1" class="cls-2"/><path d="M26.09 17.84c0-.68-2.75-1.23-6.14-1.23s-6.14.55-6.14 1.23" class="cls-1"/><path d="M26.2 17.84h-.22c0-.53-2.48-1.12-6.03-1.12s-6.03.59-6.03 1.12h-.22c0-.87 3.22-1.34 6.25-1.34s6.25.47 6.25 1.34m-6.25.44v3.04l1.16-1.33 1.25 1.44v-3.15z" class="cls-2"/><path d="M3.25 2.06s2.36-.53 4.54-.49 4.63.49 4.63.49m-9.17.88s2.36-.53 4.54-.49 4.63.49 4.63.49m-9.17.87s2.36-.53 4.54-.49 4.63.49 4.63.49m-9.17.87s2.36-.53 4.54-.49 4.63.49 4.63.49m-9.17.87s2.36-.53 4.54-.49 4.63.49 4.63.49m-9.17.87s2.36-.53 4.54-.49 4.63.49 4.63.49m-9.17.87s2.36-.53 4.54-.49 4.63.49 4.63.49m-9.17.87s2.36-.53 4.54-.49 4.63.49 4.63.49m-9.17.88s2.36-.53 4.54-.49 4.63.49 4.63.49m-9.17.87s2.36-.53 4.54-.49 4.63.49 4.63.49m-9.17.87s2.36-.53 4.54-.49 4.63.49 4.63.49m-9.17.87s2.36-.53 4.54-.49 4.63.49 4.63.49m-9.17.87s2.36-.53 4.54-.49 4.63.49 4.63.49m-9.17.87s2.36-.53 4.54-.49 4.63.49 4.63.49m-9.17.87s2.36-.53 4.54-.49 4.63.49 4.63.49m-9.17.88s2.36-.53 4.54-.49 4.63.49 4.63.49M24.4 2.06s-2.36-.53-4.54-.49-4.63.49-4.63.49m9.17.88s-2.36-.53-4.54-.49-4.63.49-4.63.49m9.17.87s-2.36-.53-4.54-.49-4.63.49-4.63.49m9.17.87s-2.36-.53-4.54-.49-4.63.49-4.63.49m9.17.87s-2.36-.53-4.54-.49-4.63.49-4.63.49m9.17.87s-2.36-.53-4.54-.49-4.63.49-4.63.49m9.17.87s-2.36-.53-4.54-.49-4.63.49-4.63.49m9.17.87s-2.36-.53-4.54-.49-4.63.49-4.63.49m9.17.88s-2.36-.53-4.54-.49-4.63.49-4.63.49m9.17.87s-2.36-.53-4.54-.49-4.63.49-4.63.49m9.17.87s-2.36-.53-4.54-.49-4.63.49-4.63.49m9.17.87s-2.36-.53-4.54-.49-4.63.49-4.63.49m9.17.87s-2.36-.53-4.54-.49-4.63.49-4.63.49m9.17.87s-2.36-.53-4.54-.49-4.63.49-4.63.49m9.17.87s-2.36-.53-4.54-.49-4.63.49-4.63.49m9.17.88s-2.36-.53-4.54-.49-4.63.49-4.63.49" style="fill:#fff;stroke:#e52424;stroke-linecap:round;stroke-linejoin:round;stroke-width:.25px"/></g></svg>