<svg xmlns="http://www.w3.org/2000/svg" id="Livello_2" data-name="Livello 2" viewBox="0 0 32.38 28.58"><defs><style>.cls-1{fill:#fff}</style></defs><g id="KIPARLA"><path d="m13.45 5.39-4.96 4.96v18.23H1.53v-18.3H0l4.89-4.89h8.55Zm-6.68 18H3.54v3.23h3.23zm0-4.21H3.54v3.23h3.23zm0-4.22H3.54v3.23h3.23zm0-4.21H3.54v3.23h3.23z" class="cls-1"/><path d="M20.22 23.54h-3.18v5.04h-1.4v-5.04h-3.15v5.04h-2.04V10.69l6-6 5.98 5.98v17.91H20.2l.03-5.04Zm-4.59-9.15h-3.15v3.15h3.15zm0 4.26h-3.15v3.15h3.15zm4.6-4.26h-3.15v3.15h3.15zm0 4.26h-3.15v3.15h3.15z" class="cls-1"/><path d="M16.37 5.11V0h4.42v3.19H16.6v1.92zm11.11.28 4.89 4.89h-1.53v18.3h-6.96V10.35l-4.96-4.96h8.55Zm-1.87 21.23h3.23v-3.23h-3.23zm0-4.21h3.23v-3.23h-3.23zm0-4.21h3.23v-3.23h-3.23zm0-4.22h3.23v-3.23h-3.23z" class="cls-1"/></g></svg>